<svg width="23" height="19" viewBox="0 0 23 19" fill="none" xmlns="http://www.w3.org/2000/svg">
<g id="Group">
<path id="Union" fill-rule="evenodd" clip-rule="evenodd" d="M21.7536 16.658C21.7234 16.6278 21.6846 16.5933 21.6371 16.5717C21.2964 16.3992 21.154 16.1102 21.1584 15.6056C21.1627 13.2463 21.167 10.8094 21.1584 8.41135C21.154 7.9671 21.2964 7.68244 21.6328 7.44953C22.0943 7.13468 22.2841 6.65592 22.1676 6.10816C22.0425 5.54314 21.7018 5.18947 21.1756 5.08164C20.5847 4.95656 20.0973 5.13771 19.7695 5.60784C19.5798 5.87957 19.3382 6.00465 19.0061 6.00033H18.6179H17.8416C17.682 6.00465 17.544 5.9572 17.4189 5.858C15.8144 4.56839 14.1711 3.27014 12.5796 2.01503C12.4243 1.89427 12.3812 1.77781 12.4157 1.58804C12.5451 0.828933 12.1483 0.207847 11.428 0.0353233C11.0226 -0.0638779 10.587 0.0482625 10.2678 0.341553C9.95294 0.621904 9.80198 1.03165 9.85374 1.42845C9.88824 1.68724 9.82354 1.8382 9.60358 2.01072L9.12582 2.3892C8.05683 3.23603 6.98028 4.08884 5.93313 4.92206C5.74771 5.07083 5.56121 5.21852 5.37471 5.36621L5.37457 5.36632C5.18804 5.51404 5.0015 5.66176 4.81604 5.81056C4.6392 5.94858 4.46668 6.00896 4.25534 6.00465C4.06556 6.00033 3.87147 6.00033 3.68601 6.00033H3.26333C2.94847 6.00033 2.70694 5.87957 2.53442 5.62509C2.2325 5.18084 1.78825 4.98676 1.22323 5.06008C0.753107 5.12046 0.403746 5.3965 0.183779 5.88388C0.175517 5.89765 0.170773 5.91318 0.166176 5.92822C0.163574 5.93673 0.161019 5.94509 0.1579 5.95289C0.153587 5.97014 0.149274 5.98739 0.140648 6.00465C0.132022 6.02621 0.123395 6.05209 0.114769 6.08228C0.0285073 6.40576 0.0888906 6.75512 0.274354 7.03979C0.477069 7.35033 0.653906 7.54873 0.822117 7.64362C0.973075 7.72988 1.05071 7.89809 1.05071 8.13963V15.8601C1.05071 16.1016 0.973075 16.2698 0.822117 16.3561C0.399433 16.6062 0.132022 16.947 0.0285073 17.3653C-0.0523073 17.6971 0.0598265 17.966 0.104311 18.0726L0.106143 18.077C0.110456 18.0899 0.114769 18.0986 0.119082 18.1029C0.304545 18.5859 0.705663 18.9181 1.18873 18.9871C1.24911 18.9957 1.31381 19 1.37419 19C1.79688 19 2.20231 18.793 2.47834 18.4264C2.7587 18.0511 3.07786 17.9045 3.53505 17.939C3.6817 17.9519 3.84128 17.9476 4.01812 17.9347C4.25534 17.9217 4.32435 17.7794 4.33729 17.6629C4.34591 17.5767 4.32004 17.4904 4.26828 17.43C4.21221 17.3696 4.13889 17.3308 4.04831 17.3265C4.02941 17.3265 4.01052 17.3255 3.99112 17.3244C3.97068 17.3233 3.94968 17.3222 3.92754 17.3222C3.54368 17.3006 3.15119 17.2791 2.76732 17.3955C2.50854 17.4732 2.29719 17.6371 2.09879 17.9088C2.01684 18.0252 1.93489 18.1331 1.82275 18.2107C1.52946 18.4091 1.13697 18.366 0.912692 18.1072C0.662532 17.8182 0.671158 17.43 0.934257 17.1626C0.981701 17.1109 1.02483 17.0764 1.06796 17.0462C1.5424 16.7615 1.76237 16.3259 1.76237 15.6789V13.82V12.457V12.4569C1.76237 11.1199 1.76237 9.73544 1.76668 8.37685C1.771 7.70832 1.5424 7.25113 1.0464 6.93627C0.791925 6.77669 0.688411 6.52222 0.753107 6.22461C0.817804 5.93132 1.00327 5.74586 1.28362 5.68979C1.59416 5.62509 1.85295 5.72429 2.02116 5.97877C2.30582 6.41439 2.73282 6.62573 3.3194 6.62573H18.8897C19.1441 6.62573 19.4116 6.60848 19.6747 6.50065C19.8989 6.40576 20.093 6.24187 20.2655 5.99171C20.4424 5.72861 20.7012 5.62509 21.0203 5.68979C21.305 5.75017 21.4862 5.93564 21.5508 6.22893C21.6112 6.52222 21.5034 6.781 21.2532 6.94059C20.7616 7.25113 20.533 7.71263 20.533 8.38547C20.5373 10.7792 20.5373 13.2032 20.533 15.6013C20.533 16.3086 20.7529 16.7615 21.2446 17.0677C21.5077 17.2273 21.6155 17.4818 21.5508 17.7751C21.4862 18.0813 21.2877 18.2711 20.9815 18.3272C20.6149 18.4005 20.3949 18.1978 20.2742 18.0123C19.9636 17.5335 19.5194 17.3093 18.8681 17.3093C14.4687 17.3136 9.99607 17.3136 5.67003 17.3136H5.60534L5.5683 17.3134H5.56828C5.49234 17.3129 5.41139 17.3123 5.33361 17.3308C5.14384 17.374 5.04464 17.4861 5.05326 17.65C5.05757 17.8139 5.1654 17.9174 5.35949 17.939C5.43281 17.9476 5.51045 17.9476 5.58377 17.9433H5.66572H18.9932C19.3167 17.939 19.5453 18.0597 19.7092 18.3185C19.9205 18.642 20.2095 18.8534 20.5631 18.9353C21.1411 19.0733 21.7622 18.7843 22.0425 18.2495C22.3229 17.7233 22.2021 17.0375 21.7536 16.658ZM11.1477 1.92877H11.139C10.8026 1.92446 10.518 1.63979 10.5223 1.30769C10.5309 0.975578 10.8156 0.695227 11.1477 0.695227H11.1563C11.3159 0.695227 11.4755 0.768549 11.5919 0.889316C11.7084 1.01008 11.7687 1.16535 11.7644 1.32063C11.7644 1.65705 11.4841 1.92877 11.1477 1.92877ZM16.3924 5.9227H5.82099C5.81668 5.9227 5.81237 5.9227 5.80805 5.91407C5.80805 5.90976 5.80805 5.90545 5.81237 5.89682C5.81503 5.89682 5.8177 5.89517 5.82138 5.89289C5.82366 5.89149 5.82632 5.88984 5.82962 5.88819L5.83022 5.88771C6.55031 5.31423 7.27039 4.74075 7.99479 4.16727C8.35495 3.88044 8.7151 3.59469 9.07525 3.30894C9.43539 3.0232 9.79552 2.73747 10.1557 2.45066C10.2376 2.38596 10.2678 2.37302 10.3627 2.43772C10.8501 2.76551 11.3719 2.77845 11.8766 2.47222C11.9542 2.42478 11.9887 2.42046 12.0577 2.47653C13.0282 3.24858 14.0159 4.03356 14.9734 4.79267C15.1816 4.95883 15.3906 5.12499 15.6001 5.29153C15.8637 5.50107 16.128 5.71122 16.3924 5.9227ZM3.3107 8.04904C3.75495 8.05336 4.20351 8.05336 4.65207 8.04904C4.80303 8.04473 4.92811 7.99297 5.00143 7.9024C5.06613 7.82045 5.08769 7.71262 5.06613 7.59185C5.023 7.39345 4.87635 7.29425 4.63913 7.29425H2.95271C2.53865 7.29425 2.42651 7.40639 2.42651 7.81614V16.1318C2.42651 16.5329 2.54297 16.6494 2.94409 16.6494H19.3597C19.7608 16.6494 19.8773 16.5329 19.8773 16.1318V7.82045C19.8773 7.4107 19.7652 7.29856 19.3511 7.29856H6.1444C6.07108 7.29856 5.99344 7.29856 5.92012 7.3115C5.73466 7.34601 5.62252 7.47971 5.62252 7.66949C5.62252 7.87652 5.73466 8.01022 5.93306 8.0361C6.02795 8.04904 6.12715 8.04904 6.22204 8.04904H6.2248C10.3861 8.04904 14.6896 8.04904 18.9241 8.04473C19.088 8.04473 19.1225 8.06198 19.1225 8.23019C19.1182 9.92524 19.1182 11.6505 19.1182 13.3153V15.0147V15.1139C19.1052 15.0966 19.0923 15.0794 19.0837 15.0578C19.0751 15.0449 19.0664 15.0319 19.0578 15.0147C18.7343 14.5704 18.4065 14.1176 18.0917 13.6776L18.083 13.669C18.0011 13.5569 17.9105 13.4835 17.8113 13.4577C17.7121 13.4275 17.6086 13.449 17.518 13.5137C17.4318 13.5741 17.38 13.6518 17.3671 13.7423C17.3455 13.8588 17.3886 13.9882 17.4792 14.1219C17.7737 14.5276 18.0731 14.9432 18.3756 15.3631L18.3764 15.3642L18.6653 15.7652C18.6783 15.7824 18.6912 15.7997 18.7041 15.8126C18.7257 15.8342 18.7429 15.8557 18.7559 15.8816H13.0799C13.3473 15.5106 13.6159 15.1385 13.8845 14.7664L13.8863 14.7638C14.1541 14.3928 14.4219 14.0217 14.6886 13.6518C14.8827 13.3822 15.0779 13.1115 15.2731 12.8409C15.4682 12.5702 15.6634 12.2996 15.8575 12.03C15.892 11.9826 15.9092 11.9783 15.9092 11.9783C15.9179 11.9783 15.9351 11.9912 15.9739 12.0516C16.168 12.3276 16.3794 12.6209 16.6037 12.9272C16.6899 13.0479 16.7977 13.1169 16.9099 13.1342C17.0005 13.1471 17.0953 13.1212 17.173 13.0609C17.3584 12.9185 17.3757 12.7115 17.2161 12.4915C17.152 12.401 17.087 12.3104 17.0223 12.2202L17.022 12.2198C16.9388 12.1039 16.8561 11.9887 16.7762 11.8748C16.7438 11.8316 16.7126 11.7885 16.6813 11.7454C16.65 11.7022 16.6187 11.6591 16.5864 11.616C16.3966 11.3529 16.1508 11.2105 15.9006 11.2105C15.6505 11.2105 15.4089 11.3572 15.2235 11.6203C15.1092 11.7799 14.9938 11.9384 14.8784 12.0969C14.7631 12.2554 14.6477 12.4139 14.5334 12.5735C14.2649 12.9455 13.9891 13.3248 13.7133 13.7041L13.4378 14.0831L13.3861 14.1607L13.3861 14.1607L13.3861 14.1607C13.3429 14.2254 13.2998 14.2901 13.2481 14.3418C12.765 13.7337 12.2819 13.1299 11.7989 12.526C11.6134 12.2974 11.3848 12.168 11.1476 12.168C10.9104 12.168 10.6775 12.2931 10.4963 12.526C10.423 12.6188 10.3486 12.7115 10.2742 12.8042L10.274 12.8044C10.1997 12.8971 10.1253 12.9898 10.0521 13.0824C9.97881 13.1751 9.90447 13.2677 9.83014 13.3604L9.82994 13.3606L9.82974 13.3609C9.75541 13.4535 9.68107 13.5462 9.60781 13.6388C9.48274 13.7941 9.35766 13.9494 9.23258 14.1089C9.17921 14.173 9.12878 14.237 9.07644 14.3035L9.0428 14.3462C9.00398 14.2987 8.97379 14.2556 8.9436 14.2125C8.71069 13.8933 8.47779 13.5698 8.24919 13.2506C7.8567 12.7072 7.44695 12.1422 7.04584 11.5901C6.869 11.3486 6.63609 11.2149 6.38593 11.2149C6.14009 11.2149 5.90718 11.3442 5.73466 11.5815C5.48881 11.9179 5.24296 12.2586 5.01437 12.5778C4.60031 13.1471 4.18626 13.7208 3.76789 14.303C3.65653 14.454 3.54659 14.6063 3.43563 14.7601L3.43555 14.7603L3.43541 14.7604C3.35304 14.8746 3.27011 14.9895 3.18562 15.1053C3.18562 12.8323 3.18562 10.4816 3.18131 8.1655C3.18131 8.11374 3.18562 8.07923 3.19856 8.06198C3.21581 8.05336 3.26325 8.04904 3.3107 8.04904ZM9.56468 14.9025L9.74893 14.6733C10.2503 14.0496 10.6777 13.5177 11.0743 13.0134C11.1174 12.9573 11.139 12.953 11.1476 12.953C11.1562 12.953 11.1735 12.9573 11.2166 13.0134C11.6565 13.5698 12.1784 14.2297 12.7262 14.9025C12.7823 14.9759 12.7866 15.0061 12.7348 15.0794C12.5537 15.3123 12.3811 15.5581 12.2172 15.7954L12.2129 15.7997C12.1612 15.8773 12.1008 15.9075 12.0102 15.9032C11.8481 15.8967 11.6836 15.8975 11.5222 15.8983C11.4688 15.8986 11.4158 15.8989 11.3632 15.8989H10.9276H10.9275C10.7162 15.8989 10.4963 15.8989 10.2807 15.9032C10.1858 15.9075 10.134 15.8773 10.0779 15.7954C9.87954 15.5107 9.71564 15.2821 9.56037 15.0794C9.50861 15.0104 9.50861 14.9716 9.56468 14.9025ZM6.38593 11.9955C6.39025 11.9955 6.41181 11.9998 6.46357 12.0688C6.80077 12.5373 7.1408 13.0086 7.47969 13.4783L7.48035 13.4792C7.86513 14.0125 8.24844 14.5437 8.62443 15.0664L9.21964 15.8902H3.55223C3.55654 15.8859 3.56086 15.8816 3.56517 15.873L3.58242 15.8514C3.95215 15.3388 4.32779 14.8195 4.70537 14.2976L4.70551 14.2974L4.70553 14.2974C5.23967 13.559 5.77769 12.8153 6.3083 12.0775C6.35574 12.0042 6.37731 11.9955 6.38593 11.9955ZM13.3128 9.2783C14.0547 9.29124 14.6542 9.89507 14.6499 10.6326C14.6412 11.3701 14.0374 11.9697 13.3042 11.9697C12.5666 11.9697 11.9628 11.3701 11.9585 10.6326C11.9585 10.2703 12.1008 9.92526 12.3596 9.66648C12.6184 9.412 12.9548 9.27398 13.3128 9.2783ZM13.3042 10.0331C13.1532 10.0331 13.0023 10.0935 12.8901 10.2056C12.778 10.3178 12.7133 10.4687 12.709 10.624C12.709 10.7836 12.7694 10.9302 12.8772 11.0424C12.985 11.1545 13.136 11.2149 13.2912 11.2149H13.2999C13.6234 11.2149 13.8908 10.9561 13.8951 10.6326C13.8951 10.4817 13.8304 10.335 13.7182 10.2186C13.6061 10.1021 13.4551 10.0331 13.3042 10.0331Z" fill="#27282D"/>
</g>
</svg>
