<svg width="25" height="25" viewBox="0 0 25 25" fill="none" xmlns="http://www.w3.org/2000/svg">
<g id="Group">
<path id="Vector" d="M11.8841 10.5859C11.8841 10.4677 11.8841 10.3657 11.8841 10.2636C11.8841 7.24069 11.8841 4.21776 11.8841 1.19531C11.8841 0.728027 12.0032 0.61084 12.4778 0.61084C16.4559 0.61084 20.4343 0.61084 24.4124 0.61084C24.8811 0.61084 24.9998 0.72998 24.9998 1.20215C24.9998 8.73385 24.9998 16.2651 24.9998 23.7968C24.9998 24.2689 24.8806 24.3886 24.4128 24.389C20.0164 24.389 15.6199 24.389 11.223 24.389C10.8035 24.389 10.7078 24.3119 10.6092 23.8998C10.5184 23.5204 10.4276 23.141 10.3358 22.7582C8.35628 22.7582 6.39438 22.7582 4.4149 22.7582C4.32115 23.1503 4.22984 23.5385 4.1356 23.9257C4.04332 24.3051 3.93785 24.3886 3.55211 24.389C3.22789 24.3895 2.90318 24.3905 2.57897 24.389C2.182 24.3871 2.0487 24.2504 2.04723 23.8451C2.04626 23.5121 2.05553 23.1786 2.04088 22.8461C2.03747 22.766 1.97448 22.6561 1.90612 22.6171C1.44714 22.3554 1.22546 21.9667 1.22643 21.4418C1.22839 20.5282 1.22351 19.6142 1.23083 18.7006C1.23229 18.5463 1.18981 18.4618 1.05017 18.3817C0.357787 17.9828 -0.007934 17.3754 -0.000121539 16.5737C0.00769092 15.7831 0.377318 15.185 1.06726 14.8027C1.22839 14.7133 1.2572 14.6215 1.22741 14.4614C1.17956 14.2016 1.14538 13.9389 1.10827 13.6772C0.906612 12.2509 1.7694 10.9086 3.16051 10.5107C6.04917 9.68501 8.93294 9.68306 11.8079 10.5854C11.8231 10.5898 11.8411 10.5859 11.8841 10.5859ZM18.8636 20.2714C20.6433 20.2714 22.4046 20.2714 24.1604 20.2714C24.1604 14.9394 24.1604 9.62544 24.1604 4.31395C22.3855 4.31395 20.6301 4.31395 18.8636 4.31395C18.8636 9.63521 18.8636 14.9428 18.8636 20.2714ZM18.0203 5.95847C16.2395 5.95847 14.4783 5.95847 12.7137 5.95847C12.7093 6.00974 12.7044 6.04294 12.7044 6.07663C12.7039 7.70748 12.7015 9.33834 12.7098 10.9692C12.7103 11.0712 12.7767 11.1923 12.8494 11.2709C13.4632 11.937 13.742 12.7128 13.6346 13.6171C13.5926 13.9721 13.5335 14.3246 13.4832 14.6733C13.4998 14.6918 13.5086 14.7094 13.5223 14.7158C15.1375 15.4516 15.1375 17.6664 13.6302 18.4316C13.5731 18.4604 13.5452 18.5458 13.4817 18.6361C15.0296 18.6361 16.5193 18.6361 18.0208 18.6361C18.0203 14.4072 18.0203 10.1923 18.0203 5.95847ZM12.6663 14.5292C12.7117 14.2421 12.7664 13.9501 12.8026 13.6557C12.951 12.4448 12.3812 11.5585 11.1956 11.2656C10.3626 11.06 9.51399 10.8911 8.66243 10.7954C6.85287 10.5922 5.06919 10.7895 3.32945 11.3247C2.62731 11.5405 2.18395 12.0371 1.98376 12.7465C1.81139 13.3574 2.0194 13.9409 2.08141 14.54C2.6444 14.5834 3.11803 14.77 3.50181 15.1572C3.89146 15.5502 4.07115 16.0351 4.10582 16.5863C6.29135 16.5863 8.46322 16.5863 10.6336 16.5863C10.7449 15.3813 11.4974 14.6528 12.6663 14.5292ZM12.7034 18.6723C12.3929 18.5536 12.2757 18.412 12.2977 18.1986C12.3216 17.9692 12.4725 17.8559 12.7952 17.8251C13.5374 17.7538 14.0589 17.0693 13.908 16.3642C13.7752 15.7426 13.222 15.3227 12.6028 15.3735C11.9764 15.4242 11.4857 15.9438 11.4774 16.5893C11.4671 17.3661 11.4749 18.1435 11.4739 18.9203C11.4735 19.3368 11.3406 19.4687 10.9207 19.4687C8.55599 19.4691 6.19077 19.4691 3.82603 19.4687C3.40855 19.4687 3.27769 19.3363 3.27721 18.9159C3.27574 18.1303 3.28941 17.3442 3.26988 16.559C3.25719 16.0444 2.99107 15.6679 2.51354 15.4682C2.04479 15.2719 1.6029 15.3525 1.22839 15.6913C0.853878 16.0302 0.73425 16.4594 0.872921 16.9487C1.0155 17.4516 1.44177 17.7802 2.0111 17.8246C2.24547 17.8432 2.41051 17.9428 2.44762 18.1772C2.48522 18.414 2.35631 18.5649 2.13415 18.6396C2.10485 18.6493 2.07653 18.6606 2.04723 18.6718C2.04723 19.5785 2.04674 20.4667 2.04723 21.3544C2.04772 21.806 2.17077 21.9281 2.62633 21.9281C4.61558 21.9286 6.60483 21.9281 8.59408 21.9281C9.79768 21.9281 11.0018 21.9291 12.2054 21.9271C12.5355 21.9267 12.7 21.7826 12.7015 21.4774C12.7068 20.5478 12.7034 19.6176 12.7034 18.6723ZM12.7039 23.5502C16.5467 23.5502 20.3572 23.5502 24.1677 23.5502C24.1677 22.7323 24.1677 21.933 24.1677 21.1239C20.6179 21.1239 17.0808 21.1239 13.5237 21.1239C13.5237 21.2479 13.5232 21.3568 13.5237 21.4662C13.5262 21.8651 13.4144 22.2626 13.0687 22.4413C12.6702 22.6474 12.6873 22.9418 12.7029 23.2802C12.7073 23.3641 12.7039 23.4486 12.7039 23.5502ZM24.1692 1.44921C20.3362 1.44921 16.5267 1.44921 12.7166 1.44921C12.7166 2.13036 12.7166 2.79296 12.7166 3.46629C16.5389 3.46629 20.3484 3.46629 24.1692 3.46629C24.1692 2.79003 24.1692 2.12743 24.1692 1.44921ZM4.10826 18.6313C6.29916 18.6313 8.46956 18.6313 10.6336 18.6313C10.6336 18.2177 10.6336 17.8222 10.6336 17.432C8.44857 17.432 6.28452 17.432 4.10826 17.432C4.10826 17.8349 4.10826 18.224 4.10826 18.6313ZM18.0198 4.31785C16.2395 4.31785 14.4793 4.31785 12.7239 4.31785C12.7239 4.59471 12.7239 4.85349 12.7239 5.1074C14.4988 5.1074 16.2532 5.1074 18.0198 5.1074C18.0198 4.84226 18.0198 4.58934 18.0198 4.31785ZM18.0203 19.4867C16.513 19.4867 15.0257 19.4867 13.5442 19.4867C13.5442 19.7636 13.5442 20.0224 13.5442 20.2758C15.0462 20.2758 16.5271 20.2758 18.0203 20.2758C18.0203 20.0106 18.0203 19.7577 18.0203 19.4867ZM3.36949 23.5629C3.4359 23.2894 3.4984 23.0302 3.56236 22.7665C3.31432 22.7665 3.09752 22.7665 2.88707 22.7665C2.88707 23.0433 2.88707 23.3021 2.88707 23.5629C3.05064 23.5629 3.19469 23.5629 3.36949 23.5629ZM11.1824 22.7572C11.2552 23.0443 11.3206 23.3041 11.3836 23.5551C11.5623 23.5551 11.7122 23.5551 11.8675 23.5551C11.8675 23.2826 11.8675 23.0243 11.8675 22.7572C11.6414 22.7572 11.431 22.7572 11.1824 22.7572Z" fill="#27282D"/>
<path id="Vector_2" d="M20.4904 12.1152C20.4904 12.3715 20.4962 12.6279 20.4889 12.8837C20.4811 13.1454 20.3131 13.3178 20.0812 13.3178C19.8492 13.3178 19.6774 13.1454 19.674 12.8837C19.6676 12.3544 19.6676 11.8246 19.674 11.2953C19.6774 11.0331 19.8483 10.8618 20.0812 10.8618C20.3136 10.8618 20.4821 11.0331 20.4889 11.2953C20.4962 11.5683 20.4904 11.8417 20.4904 12.1152Z" fill="#27282D"/>
</g>
</svg>
