<svg width="20" height="26" viewBox="0 0 20 26" fill="none" xmlns="http://www.w3.org/2000/svg">
<g id="Group 3">
<path id="Union" fill-rule="evenodd" clip-rule="evenodd" d="M19.1614 17.5051C19.1429 17.3383 19.126 17.1704 19.1096 17.002C19.0497 16.3882 18.987 15.7538 18.8087 15.1596C17.7339 11.5763 15.3274 9.28921 11.6552 8.36204C11.4933 8.32116 11.4813 8.295 11.4884 8.16636C11.5048 7.86602 11.4988 7.56514 11.4906 7.25718C11.4682 6.40741 10.9722 5.73588 10.1644 5.46062C10.1214 5.4459 10.0794 5.42955 10.0358 5.41211V3.56322L10.0357 2.31587L10.0353 1.06851C10.0353 0.866289 9.98511 0.714214 9.88699 0.616101C9.81068 0.539791 9.70657 0.5 9.58557 0.5C9.45093 0.5 9.13643 0.556142 9.13534 1.0696C9.13511 1.23244 9.13493 1.29862 9.13479 1.30836V1.18398C9.13436 0.564529 9.13427 1.34541 9.13479 1.30836V5.41483C8.10133 5.78657 7.67781 6.39978 7.67727 7.51336C7.67727 7.57768 7.67618 7.64254 7.67454 7.70686L7.67431 7.71958C7.67165 7.8666 7.6689 8.0181 7.68108 8.16908C7.69144 8.295 7.6789 8.32279 7.51593 8.35986C5.38905 8.84225 3.54398 9.97273 2.17966 11.6303C0.816436 13.2879 0.0631461 15.3123 0.00155288 17.4855C-0.00607814 17.752 0.011364 17.9286 0.123104 18.0436C0.234299 18.1581 0.407087 18.1804 0.668177 18.1804L1.99815 18.1806H2.00854C2.89173 18.1807 3.77492 18.1808 4.65811 18.1804H6.39526C6.40452 19.0787 6.67488 19.802 7.21995 20.3874C7.82771 21.041 8.58536 21.3784 9.47165 21.3904L9.49441 21.3906L9.51798 21.3909C10.2664 21.3909 10.9363 21.1418 11.5102 20.6496C12.2341 20.0288 12.5933 19.2204 12.6064 18.181H14.3435C15.7394 18.181 17.1354 18.181 18.5313 18.1804C18.7739 18.1804 18.9586 18.1548 19.0709 18.0294C19.1881 17.8975 19.1827 17.6904 19.1614 17.5051ZM11.6966 18.199C11.6928 19.0978 11.3445 19.7426 10.6343 20.1683C9.84884 20.6393 9.05957 20.6224 8.28829 20.1187C7.62603 19.6859 7.3028 19.0575 7.30335 18.1984L11.6966 18.199ZM8.6911 6.87127C8.80448 6.54259 9.14569 6.29185 9.5376 6.26787C9.94913 6.24225 10.3111 6.48045 10.4789 6.87127H8.6911ZM18.2397 17.2609H0.898743C1.15002 14.2134 2.51815 11.9012 4.96607 10.387C7.94054 8.54682 10.994 8.51085 14.0415 10.2785C16.9195 11.9486 18.2157 14.9656 18.2397 17.2609ZM8.59299 8.15328V7.77827H10.5683V8.15328H8.59299ZM7.07095 21.4665L7.07087 21.4663C7.00658 21.3715 6.94009 21.2735 6.83221 21.2615C6.67305 21.2441 6.44466 21.2795 6.32093 21.3989C5.97609 21.7308 5.6371 22.0787 5.30872 22.4157L5.30859 22.4158L5.29728 22.4274C5.13867 22.5904 4.9795 22.7539 4.8198 22.9158C4.53691 23.202 4.62957 23.438 4.75657 23.5857C4.83833 23.6805 4.94135 23.7329 5.05418 23.7372H5.06835C5.20026 23.7372 5.33544 23.6718 5.45917 23.547C5.99824 23.0047 6.48663 22.5065 6.95212 22.0235C7.01153 21.9619 7.05078 21.8883 7.09166 21.8104C7.11019 21.775 7.13036 21.7374 7.1538 21.6981L7.19522 21.6294L7.14344 21.5678C7.12338 21.5433 7.10369 21.5144 7.08406 21.4856L7.07095 21.4665ZM13.8815 22.4368L13.9253 22.4814L14.1422 22.703L14.3592 22.9246C14.4796 23.0467 14.5396 23.1715 14.5385 23.2952C14.5374 23.4048 14.4894 23.5072 14.3951 23.5994C14.3008 23.692 14.1962 23.7378 14.0883 23.7378C13.9645 23.7378 13.8375 23.6773 13.7192 23.5568C13.6441 23.4802 13.5689 23.4041 13.4938 23.328L13.3808 23.2134L13.3738 23.2064L13.3735 23.2062C12.9822 22.81 12.5782 22.4009 12.1936 21.9849C12.0846 21.8671 12.0644 21.6376 12.1009 21.4812C12.1255 21.376 12.223 21.3171 12.3179 21.2605C12.3511 21.2408 12.3855 21.2201 12.4127 21.1994L12.4738 21.1531L12.5392 21.1929C12.5768 21.2158 12.6122 21.2348 12.6455 21.2523C12.7185 21.291 12.7877 21.328 12.8444 21.3853C13.1918 21.7332 13.5417 22.0901 13.8811 22.4364L13.8815 22.4368ZM10.0344 23.9329V23.5961V22.8379C10.0344 22.67 9.99021 22.5408 9.90191 22.453C9.82288 22.3746 9.71114 22.3337 9.58032 22.3364C9.29579 22.3386 9.13282 22.5234 9.13336 22.8439C9.13445 23.5263 9.135 24.2572 9.13282 24.9773C9.13173 25.3964 9.40154 25.4831 9.56288 25.4978C9.57705 25.4989 9.59122 25.5 9.60485 25.5C9.70678 25.5 9.7978 25.4657 9.87084 25.4003C9.97495 25.3065 10.0306 25.1588 10.0327 24.9735C10.0355 24.7287 10.0349 24.4796 10.0344 24.2393C10.0347 24.1709 10.0346 24.1028 10.0345 24.0348L10.0344 23.9329ZM6.06933 11.0318C6.10858 11.0438 6.14346 11.0656 6.17726 11.0994C6.33969 11.2618 6.34732 11.5343 6.1947 11.7197C6.16199 11.7589 6.12983 11.79 6.09604 11.8145C5.17214 12.4844 4.39759 13.2993 3.79365 14.2357C3.68845 14.3993 3.55164 14.4843 3.40502 14.4843C3.32598 14.4843 3.24367 14.4598 3.16137 14.4091C3.04472 14.3377 2.97332 14.245 2.94825 14.1349C2.92045 14.0133 2.95206 13.8809 3.042 13.7413C3.7277 12.6779 4.58346 11.7851 5.58531 11.089C5.71939 10.9964 5.9347 10.9904 6.06933 11.0318Z" fill="#27282D"/>
</g>
</svg>
