<svg width="25" height="25" viewBox="0 0 25 25" fill="none" xmlns="http://www.w3.org/2000/svg">
<g id="Advanced">
<path id="Vector" d="M21.9959 5.7132C21.9955 5.50929 21.8619 5.37217 21.6603 5.37178C20.5208 5.3667 19.3813 5.36319 18.2414 5.37803C18.1347 5.3792 18 5.48975 17.9312 5.58703C17.8386 5.71789 17.9066 5.86165 18.0152 5.97142C18.2808 6.23979 18.5492 6.50543 18.8152 6.77302C18.8582 6.81638 18.8957 6.86482 18.9059 6.87693C18.7883 7.01835 18.6856 7.14257 18.5734 7.27656C18.1086 6.81013 17.6621 6.36089 17.214 5.91243C16.9378 5.63507 16.8007 5.63742 16.5186 5.91868C16.3421 6.09525 16.1573 6.26362 15.9928 6.45035C15.8839 6.57301 15.8014 6.56754 15.6721 6.48238C15.4764 6.35464 15.2721 6.23237 15.0569 6.14213C14.5346 5.92454 14.0041 5.72649 13.4509 5.51085C13.4509 5.17802 13.4521 4.80847 13.4505 4.43853C13.4494 4.11703 13.3341 4.00101 13.0126 4.00062C12.1723 3.99945 11.3317 4.00023 10.491 4.00062C10.141 4.00062 10.0324 4.10961 10.032 4.45963C10.0308 4.82839 10.0316 5.19716 10.0316 5.56437C9.19798 5.76242 8.44091 6.08119 7.73306 6.51949C7.69009 6.54567 7.58305 6.52692 7.54243 6.48941C7.33812 6.30151 7.14631 6.10072 6.94943 5.90423C6.68692 5.64328 6.54003 5.64093 6.28377 5.89681C5.76929 6.4105 5.25559 6.92381 4.74268 7.43907C4.49423 7.68791 4.49384 7.8387 4.74541 8.08832C4.97667 8.31802 5.21301 8.54147 5.44896 8.7696C4.94933 9.53527 4.61924 10.3318 4.41102 11.183C4.02897 11.183 3.66606 11.1818 3.30355 11.183C2.96564 11.1842 2.85196 11.2955 2.85196 11.6283C2.85079 12.4694 2.85079 13.3097 2.85157 14.1503C2.85196 14.4879 2.96447 14.6019 3.2969 14.6027C3.66645 14.6043 4.03561 14.6031 4.40047 14.6031C4.49306 14.8984 4.56728 15.1805 4.67119 15.4504C4.72823 15.5985 4.71104 15.6864 4.59697 15.7989C3.61958 16.7661 3.16955 17.2282 2.19763 18.2005C1.93629 18.4627 1.93434 18.6092 2.1906 18.8662C2.47225 19.1482 2.75391 19.4307 3.03674 19.7123C3.29808 19.9725 3.44379 19.9737 3.702 19.7162C4.22156 19.1982 4.22 19.1912 4.73877 18.6728C4.7919 18.6197 4.84854 18.5701 4.90909 18.5131C5.38998 18.9939 5.85172 19.4584 6.31658 19.9205C6.52792 20.1307 6.69473 20.1307 6.90568 19.9245C7.10451 19.7303 7.30491 19.5373 7.49321 19.3334C7.59204 19.2256 7.65923 19.2209 7.79595 19.2912C8.30106 19.5494 8.81554 19.7912 9.33587 20.019C9.55346 20.1143 9.79371 20.1588 10.0324 20.2295C10.0324 20.6093 10.0312 20.9792 10.0328 21.3491C10.034 21.6683 10.1504 21.7843 10.473 21.7847C11.3207 21.7859 12.168 21.7859 13.0161 21.7843C13.3345 21.7843 13.4505 21.6659 13.4517 21.3441C13.4529 20.9741 13.4521 20.6046 13.4521 20.2229C14.2806 20.0209 15.033 19.7104 15.7354 19.2756C15.7835 19.2455 15.8999 19.2592 15.9432 19.2982C16.1538 19.4897 16.3503 19.6975 16.5522 19.8979C16.7937 20.137 16.9484 20.1389 17.187 19.9006C17.7066 19.3826 18.2258 18.8639 18.7434 18.3443C18.9895 18.097 18.9879 17.9458 18.7363 17.6939C18.5062 17.4638 18.2746 17.236 18.041 17.0048C18.5312 16.2516 18.8621 15.4621 19.0703 14.6027C19.4524 14.6027 19.8286 14.6039 20.2048 14.6023C20.5114 14.6008 20.6314 14.4812 20.6317 14.1746C20.6333 13.3198 20.6333 12.4647 20.6317 11.61C20.6314 11.3033 20.5114 11.1846 20.204 11.1834C19.8278 11.1811 19.4516 11.183 19.0856 11.183C18.9852 10.8713 18.9004 10.5779 18.7945 10.2923C18.7496 10.1708 18.7738 10.1017 18.861 10.0161C19.3582 9.52628 19.8497 9.03016 20.3442 8.53756C20.3817 8.50006 20.427 8.4692 20.4813 8.42467C20.7927 8.74031 21.0915 9.0454 21.3919 9.34854C21.5005 9.45831 21.6427 9.52941 21.7752 9.43995C21.874 9.37354 21.9888 9.23955 21.99 9.13447C22.0041 7.99339 22.0006 6.8531 21.9959 5.7132ZM5.31028 17.1243C4.65049 17.7911 3.55004 18.9146 3.41644 19.0568C3.22229 18.865 3.04885 18.6931 2.88087 18.5263C3.76802 17.6392 4.14148 17.2579 5.04816 16.352C5.16067 16.5403 5.28685 16.7341 5.38998 16.9395C5.4099 16.9786 5.35599 17.0782 5.31028 17.1243ZM18.9684 11.8658H19.936V13.9179H18.9453C18.5789 13.9179 18.4988 13.9769 18.423 14.3359C18.2371 15.2105 17.8871 16.0133 17.3863 16.752C17.1968 17.0313 17.2093 17.1368 17.4554 17.3814C17.6628 17.5864 17.8738 17.788 18.0629 17.9712C17.6472 18.3873 17.2476 18.7873 16.8241 19.2107C16.6425 19.0264 16.4311 18.8088 16.2159 18.5935C15.9858 18.3634 15.8749 18.3521 15.6026 18.5369C14.8639 19.0381 14.0623 19.39 13.1868 19.5744C12.8259 19.651 12.7665 19.7307 12.7665 20.0952C12.7661 20.4217 12.7665 20.7483 12.7665 21.0897H10.7145C10.7145 20.7323 10.7156 20.385 10.7145 20.0381C10.7133 19.751 10.6418 19.6549 10.3617 19.5944C9.45385 19.3975 8.61396 19.0447 7.8483 18.5166C7.61431 18.3556 7.48813 18.3728 7.2846 18.5748C7.06818 18.7904 6.85411 19.01 6.6627 19.2041C6.25291 18.7955 5.8525 18.3955 5.42318 17.9681C5.59663 17.7997 5.8107 17.5946 6.02165 17.3857C6.27439 17.1345 6.28533 17.0329 6.08689 16.7387C5.58999 16.0063 5.24348 15.2094 5.05988 14.3421C4.98175 13.9749 4.90401 13.9191 4.51962 13.9187C4.21375 13.9183 3.90709 13.9171 3.60083 13.916C3.58754 13.916 3.57465 13.9089 3.54731 13.9015V11.8666C3.89225 11.8666 4.23172 11.867 4.57158 11.8666C4.888 11.8655 4.97824 11.7998 5.04387 11.4951C5.23802 10.5935 5.59155 9.76223 6.11501 9.00243C6.27674 8.76765 6.26111 8.6403 6.06032 8.43834C5.84117 8.21684 5.6185 7.99886 5.41107 7.79299C5.82437 7.37969 6.22049 6.9828 6.64082 6.56246C6.83341 6.75583 7.04631 6.97186 7.26077 7.18632C7.49555 7.41993 7.60337 7.43399 7.8733 7.25039C8.61787 6.74411 9.42728 6.39332 10.309 6.2062C10.652 6.13354 10.7145 6.04799 10.7145 5.69406C10.7148 5.36748 10.7145 5.04051 10.7145 4.69909H12.7665C12.7665 5.0409 12.7661 5.38077 12.7665 5.71984C12.7669 6.03939 12.831 6.12768 13.1353 6.19331C14.0361 6.38863 14.8682 6.74138 15.628 7.26484C15.8651 7.42774 15.9917 7.41485 16.1921 7.21328C16.412 6.99178 16.6249 6.76404 16.8257 6.55426C17.2492 6.97577 17.646 7.3711 18.0308 7.75393C17.6933 8.08793 17.3433 8.43443 16.989 8.78484L16.9886 8.78523L16.1335 9.64465C16.1358 9.64855 16.1386 9.65207 16.1413 9.65598C15.9803 9.81145 15.8198 9.96615 15.6944 10.0869L15.694 10.0865C15.3205 9.73918 14.9545 9.32471 14.5174 9.00555C11.5938 6.87146 7.38226 8.73991 6.99006 12.3331C6.70762 14.9172 8.44208 17.2001 11.0094 17.6263C13.6427 18.0626 16.2116 16.1098 16.4874 13.455C16.5198 13.1374 16.5038 12.8155 16.5136 12.496C16.5147 12.4424 16.5151 12.3725 16.5468 12.3385C16.6913 12.1788 16.8425 12.0256 17.0034 11.8608L17.073 11.7901L18.0937 10.7635L18.0996 10.7572C18.134 10.7189 18.1703 10.6783 18.2097 10.6357C18.291 10.9447 18.3598 11.1853 18.4172 11.4287C18.5074 11.8112 18.5715 11.8658 18.9684 11.8658ZM15.1545 10.6424C14.5053 11.2904 13.8584 11.9354 13.1814 12.6108C13.1427 12.6503 13.1032 12.6889 13.0638 12.7284C12.9501 12.6069 12.8228 12.4647 12.688 12.3292C12.0348 11.6733 11.3801 11.0193 10.7258 10.365C10.4387 10.0779 10.3078 10.079 10.0148 10.3712C9.28509 11.101 8.55537 11.8311 7.82486 12.5608C7.77681 12.6089 7.72447 12.6534 7.66314 12.7089C7.64477 11.442 8.52255 9.58761 10.5434 8.96688C12.5067 8.36412 14.3713 9.34151 15.149 10.6334C15.151 10.6369 15.1526 10.6396 15.1545 10.6424ZM15.1791 13.6988C15.2307 13.6472 15.2815 13.5952 15.3315 13.5429L15.3354 13.539C15.4854 13.3835 15.6334 13.2261 15.7831 13.0698C15.787 13.0714 15.7917 13.0737 15.7956 13.0757C15.8131 13.0843 15.8303 13.0917 15.8479 13.0995C15.8135 13.33 15.8006 13.5671 15.7417 13.7921C15.3088 15.4477 14.2693 16.5356 12.5958 16.8927C10.9031 17.254 9.50541 16.6735 8.42958 15.3156C8.31864 15.1762 8.30848 15.0871 8.45028 14.9496C9.0925 14.325 9.72105 13.6866 10.375 13.0323C11.1547 13.8132 11.9137 14.5738 12.6724 15.3344C12.7173 15.3793 12.7626 15.425 12.8083 15.4695C13.0298 15.6848 13.1908 15.686 13.4122 15.4656C13.7459 15.1332 14.0791 14.8004 14.4119 14.4675L14.4912 14.3875C14.7213 14.1582 14.9502 13.9288 15.1791 13.6988ZM21.304 8.31646C21.1122 8.11488 20.9638 7.95394 20.8095 7.79846C20.5302 7.51642 20.3923 7.51642 20.1145 7.79456C18.009 9.89974 15.9034 12.0053 13.799 14.1113C13.5736 14.3367 13.3533 14.5668 13.1212 14.8039C13.0431 14.7297 12.9861 14.6781 12.9318 14.6242C12.1911 13.8835 11.4512 13.1433 10.7109 12.4026C10.4437 12.1358 10.3012 12.1377 10.0304 12.4085C9.40072 13.0382 8.771 13.6679 8.14128 14.2972C8.08659 14.3519 8.02956 14.4039 7.94362 14.4863C7.86588 14.2214 7.79048 13.9878 7.73306 13.7499C7.72056 13.6964 7.75416 13.6089 7.79595 13.5667C8.63936 12.7171 9.48666 11.8721 10.3332 11.0267C10.3422 11.0178 10.3582 11.0166 10.3863 11.0057C10.4371 11.0537 10.4941 11.1045 10.5484 11.1588C11.2891 11.8987 12.0294 12.6397 12.77 13.3796C13.0376 13.648 13.1806 13.648 13.4505 13.3773C15.4956 11.3326 17.5402 9.28721 19.5852 7.24219C19.845 6.98202 19.8465 6.83357 19.5875 6.57692C19.4266 6.41714 19.2586 6.26362 19.0547 6.06947H21.304V8.31646Z" fill="#27282D"/>
</g>
</svg>
