<svg width="19" height="19" viewBox="0 0 19 19" fill="none" xmlns="http://www.w3.org/2000/svg">
<g id="Group">
<path id="Vector" d="M7.60059 2.84828C7.60059 2.54395 7.60059 2.54395 7.90863 2.54395C8.23152 2.54395 8.23152 2.54395 8.23152 2.87426C8.23152 3.17859 8.23152 3.17859 7.92347 3.17859C7.60059 3.17859 7.60059 3.17859 7.60059 2.84828Z" fill="#27282D"/>
<path id="Vector_2" d="M8.03911 14.3159C8.32489 14.0301 8.32489 14.0301 8.61437 14.3159C8.66633 14.3641 8.72943 14.4013 8.78881 14.4458C8.73685 14.5052 8.71829 14.5312 8.69602 14.5534C8.54015 14.713 8.37685 14.8652 8.22468 15.0285C8.15788 15.099 8.12076 15.0916 8.05396 15.0285C7.67911 14.6796 7.6754 14.6796 8.03911 14.3159Z" fill="#27282D"/>
<path id="Vector_3" d="M7.95364 5.54308C8.15034 5.34638 8.34704 5.15339 8.54003 4.95669C8.61055 4.88246 8.65137 4.86019 8.74044 4.94555C9.10045 5.29442 9.10416 5.29071 8.74787 5.647C8.58086 5.81401 8.41384 5.98102 8.24683 6.14803C8.21343 6.18144 8.18003 6.20741 8.12065 6.25937C8.06127 6.18886 8.01302 6.11834 7.95364 6.05896C7.69384 5.79916 7.69384 5.80288 7.95364 5.54308Z" fill="#27282D"/>
<path id="Vector_4" d="M8.05025 10.5905C7.67911 10.2453 7.67911 10.2453 8.03169 9.89273C8.20241 9.722 8.37685 9.55128 8.54757 9.37685C8.61809 9.30262 8.66262 9.29149 8.73314 9.37314C8.8185 9.47334 8.91871 9.5587 9.01149 9.6552C9.03376 9.67747 9.05603 9.70345 9.0783 9.73314C9.05603 9.76283 9.03747 9.78881 9.01149 9.81108C8.74798 10.0783 8.48077 10.3381 8.21726 10.609C8.15788 10.6684 8.11334 10.6832 8.06138 10.609C8.06138 10.5979 8.05767 10.5942 8.05025 10.5905Z" fill="#27282D"/>
<path id="Vector_5" d="M10.3174 6.24802C10.3248 6.3705 10.1355 6.47071 10.0279 6.57462C9.44151 7.16473 8.85512 7.74741 8.26872 8.33381C8.2279 8.37463 8.19821 8.43031 8.10542 8.44886C8.04975 8.38577 7.99037 8.30783 7.91985 8.23731C7.69717 8.01092 7.69346 8.01092 7.91614 7.78824C8.53965 7.16473 9.16687 6.54122 9.78667 5.914C9.87946 5.81751 9.93884 5.79895 10.0316 5.91029C10.1244 6.03648 10.31 6.13297 10.3174 6.24802Z" fill="#27282D"/>
<path id="Vector_6" d="M12.262 5.93553C12.5701 6.25471 12.5738 6.25099 12.2546 6.56646C11.453 7.36811 10.655 8.16606 9.85336 8.96771C9.81253 9.00854 9.768 9.04936 9.70119 9.11246C9.64181 9.03823 9.59356 8.96771 9.53047 8.90833C9.27438 8.64853 9.27438 8.65225 9.53418 8.39245C10.3544 7.57224 11.1746 6.75574 11.9874 5.93182C12.1024 5.81305 12.1581 5.8279 12.262 5.93553Z" fill="#27282D"/>
<path id="Vector_7" d="M9.30424 13.0511C10.4028 11.9525 11.5088 10.8539 12.5999 9.74794C12.7335 9.61433 12.8078 9.62175 12.9154 9.75536C12.9748 9.8333 13.0527 9.89639 13.1232 9.96691C13.1455 9.98918 13.1678 10.0152 13.1938 10.0448C13.1678 10.0783 13.1418 10.1079 13.1158 10.1376C11.9096 11.3438 10.6997 12.5537 9.49723 13.7599C9.43785 13.823 9.40074 13.8379 9.32651 13.7673C8.94053 13.4148 8.94053 13.4185 9.30424 13.0511Z" fill="#27282D"/>
<path id="Vector_8" d="M9.00045 15.6148C8.98931 15.4886 9.18972 15.3847 9.30107 15.2734C10.3996 14.1711 11.5019 13.0762 12.5968 11.9702C12.7378 11.8292 12.8157 11.8329 12.9271 11.9814C12.9864 12.0593 13.0644 12.1224 13.1349 12.1929C13.1572 12.2152 13.1757 12.2412 13.198 12.2709C13.1646 12.308 13.1386 12.3377 13.1126 12.3637C11.9102 13.5661 10.7077 14.7686 9.5089 15.9748C9.42354 16.0602 9.379 16.0453 9.30849 15.9674C9.20086 15.8412 9.00787 15.7373 9.00045 15.6148Z" fill="#27282D"/>
<path id="Vector_9" d="M15.1353 5.90216C12.9604 8.07702 10.7856 10.2519 8.6107 12.4304C8.56616 12.4787 8.52534 12.5307 8.4808 12.59C8.414 12.5307 8.37317 12.4935 8.33235 12.4527C8.23214 12.3488 8.06142 12.2523 8.05028 12.1372C8.03915 12.0185 8.22472 11.9257 8.32493 11.8218C10.4886 9.65435 12.6598 7.49062 14.8198 5.31948C14.9534 5.18587 15.0165 5.20071 15.1353 5.3269C15.4136 5.62381 15.4211 5.61639 15.1353 5.90216Z" fill="#27282D"/>
<path id="Vector_10" d="M2.53809 4.44437C2.53809 4.12891 2.53809 4.12891 2.85355 4.12891C3.16902 4.12891 3.16902 4.12891 3.16902 4.44437C3.16902 4.75984 3.16902 4.75984 2.85355 4.75984C2.53809 4.75984 2.53809 4.75984 2.53809 4.44437Z" fill="#27282D"/>
<path id="Vector_11" d="M2.53809 8.23285C2.53809 7.9248 2.53809 7.9248 2.84242 7.9248C3.16902 7.9248 3.16902 7.9248 3.16902 8.2514C3.16902 8.55945 3.16902 8.55945 2.86469 8.55945C2.53809 8.55945 2.53809 8.55945 2.53809 8.23285Z" fill="#27282D"/>
<path id="Vector_12" d="M2.53809 6.33636C2.53809 6.02832 2.53809 6.02832 2.84242 6.02832C3.17273 6.02832 3.17273 6.02832 3.17273 6.35121C3.17273 6.65925 3.17273 6.65925 2.8684 6.65925C2.53809 6.65925 2.53809 6.65925 2.53809 6.33636Z" fill="#27282D"/>
<path id="Vector_13" d="M2.53809 2.56254C2.53809 2.22852 2.53809 2.22852 2.87582 2.22852C3.16902 2.22852 3.16902 2.22852 3.16902 2.52914C3.16902 2.86316 3.16902 2.86316 2.83128 2.86316C2.53809 2.85945 2.53809 2.85945 2.53809 2.56254Z" fill="#27282D"/>
<path id="Vector_14" d="M2.53809 10.1563C2.53809 9.82227 2.53809 9.82227 2.87953 9.82227C3.17273 9.82227 3.17273 9.82227 3.17273 10.1229C3.17273 10.4532 3.17273 10.4532 2.83128 10.4532C2.53809 10.4569 2.53809 10.4569 2.53809 10.1563Z" fill="#27282D"/>
<path id="Vector_15" d="M18.5271 2.54382H9.32666C8.86273 2.54382 8.87016 2.54382 8.86273 3.01516C8.85902 3.16362 8.91098 3.18217 9.04088 3.18217C9.45284 3.17475 9.8648 3.17846 10.3287 3.17846C10.0578 3.44568 9.82398 3.67207 9.59387 3.90218C9.27098 4.22135 9.27841 4.21764 9.59758 4.54795C9.70893 4.66301 9.76088 4.63703 9.85738 4.53682C10.2731 4.11001 10.6924 3.69434 11.1155 3.27496C11.1601 3.23042 11.1935 3.17104 11.2751 3.17104C11.6797 3.17475 12.0879 3.17104 12.5593 3.17104C12.4665 3.24898 12.4182 3.2898 12.3737 3.33434C11.8689 3.83537 11.3679 4.34012 10.8632 4.84486C10.544 5.16404 10.5514 5.16033 10.8669 5.49064C10.9782 5.60569 11.0265 5.58342 11.1267 5.48322C11.8541 4.74837 12.5889 4.01723 13.3201 3.28609C13.3683 3.23784 13.4054 3.17104 13.4908 3.17104C13.8953 3.17475 14.3036 3.17104 14.7081 3.17104C14.7193 3.18959 14.7341 3.20815 14.7452 3.22671C14.6933 3.26382 14.6302 3.2898 14.5857 3.33434C14.0809 3.83537 13.5762 4.34012 13.0751 4.84486C12.756 5.16404 12.7634 5.15662 13.0677 5.47951C13.1865 5.6094 13.2459 5.57971 13.3535 5.47208C14.0772 4.74094 14.8046 4.01352 15.5358 3.2898C15.584 3.24155 15.6211 3.17475 15.7065 3.17475C16.111 3.17846 16.5193 3.17475 16.9684 3.17475C16.6083 3.53475 16.2743 3.86135 15.9477 4.19166C15.8364 4.303 15.636 4.40692 15.6471 4.53311C15.6545 4.65558 15.8512 4.75579 15.9477 4.87826C16.0294 4.97847 16.0813 4.9562 16.163 4.87455C16.6455 4.38465 17.1428 3.91331 17.6104 3.41228C17.7923 3.21929 17.9778 3.14135 18.2302 3.16733C18.3267 3.17846 18.3712 3.18588 18.3638 3.29722C18.3527 3.4531 18.349 3.61269 18.3638 3.77228C18.3787 3.93187 18.3193 4.03579 18.2079 4.14713C16.7048 5.64281 15.2017 7.14591 13.7024 8.64901C13.6059 8.74551 13.4463 8.842 13.4314 8.94963C13.4166 9.07582 13.6133 9.15004 13.6949 9.2651C13.8026 9.42097 13.8805 9.37273 13.9918 9.25767C15.3873 7.85478 16.7865 6.45931 18.1857 5.05641C18.2339 5.00816 18.2673 4.94507 18.3082 4.88569C18.3267 4.89682 18.3453 4.91167 18.3638 4.9228C18.3638 5.29023 18.3601 5.65394 18.3675 6.02136C18.3712 6.15126 18.3304 6.24033 18.2376 6.32941C16.7234 7.83622 15.2129 9.35046 13.7024 10.861C13.6059 10.9575 13.4463 11.0503 13.4314 11.1616C13.4166 11.2915 13.6133 11.362 13.6949 11.4771C13.8026 11.6329 13.8805 11.5847 13.9918 11.4696C15.3873 10.0667 16.7865 8.67128 18.1857 7.27209C18.2339 7.22385 18.271 7.16446 18.3156 7.10879C18.3304 7.11993 18.349 7.13106 18.3638 7.1422C18.3638 7.50962 18.3601 7.87333 18.3675 8.24076C18.3712 8.37066 18.3267 8.45973 18.2376 8.5488C16.6158 10.1632 15.0013 11.7814 13.3832 13.3996C13.0751 13.7076 13.0826 13.7002 13.3832 14.0194C13.5019 14.1455 13.5576 14.127 13.6689 14.0156C15.1721 12.5051 16.6789 11.002 18.1857 9.4952C18.2339 9.44695 18.271 9.38386 18.3156 9.32819C18.3341 9.33932 18.349 9.35417 18.3675 9.3653C18.3675 9.74757 18.3638 10.1298 18.3675 10.5121C18.3675 10.5975 18.3453 10.6569 18.2822 10.7199C16.1815 12.8243 14.0846 14.9212 11.984 17.0218C11.9432 17.0627 11.9098 17.1072 11.8392 17.1072C11.4347 17.1035 11.0302 17.1072 10.6219 17.1072C10.6108 17.0886 10.5997 17.0701 10.5885 17.0515C10.6405 17.0144 10.6999 16.9847 10.7444 16.9402C11.3568 16.3315 11.9691 15.7192 12.5778 15.1105C12.8896 14.7987 12.8821 14.8062 12.5852 14.4907C12.4776 14.3756 12.4182 14.3608 12.2995 14.4833C11.4718 15.3258 10.6331 16.1571 9.798 16.9884C9.74975 17.0367 9.71264 17.1072 9.62728 17.1035C9.22274 17.0998 8.81449 17.1035 8.37655 17.1035C8.41366 17.059 8.4285 17.0404 8.44335 17.0256C8.54727 16.9142 8.72913 16.8066 8.73284 16.6952C8.73655 16.5616 8.53242 16.4726 8.43593 16.3538C8.3617 16.261 8.30974 16.2573 8.22067 16.3501C8.00912 16.5765 7.78273 16.7917 7.56747 17.0107C7.5118 17.0664 7.45613 17.1109 7.36706 17.1072C6.05323 17.1035 4.74312 17.1146 3.4293 17.0998C2.63878 17.0924 1.97445 16.4466 1.91135 15.6561C1.84455 14.8507 2.39383 14.1158 3.18064 13.9748C3.67796 13.8857 4.17899 13.9525 4.68003 13.9377C4.92869 13.9303 5.07343 14.0565 5.06972 14.2569C5.06601 14.4536 4.92498 14.5686 4.67261 14.5686C4.19755 14.5686 3.7225 14.5686 3.24744 14.5686C2.96538 14.5686 2.85775 14.68 2.85404 14.9657C2.85404 15.3406 2.85033 15.7192 2.85404 16.094C2.85775 16.3501 2.9728 16.4651 3.22889 16.4689C3.66312 16.4726 4.10106 16.4689 4.53529 16.4689C4.77281 16.4689 5.01034 16.4689 5.24044 16.4132C6.28705 16.1608 6.96623 15.2886 6.96623 14.1752C6.96623 10.2189 6.96623 6.2626 6.96623 2.30629C6.96623 2.23949 6.96623 2.17639 6.96252 2.10959C6.91798 1.08525 6.12375 0.198236 5.10684 0.0460704C4.58353 -0.0318682 4.05281 0.0126681 3.52579 0.0126681C1.54022 0.0126681 0.00371136 1.54546 0 3.52733C0.00371136 7.51333 0.00742273 11.4956 0.00371136 15.4779C0.00371136 15.7043 0.0185568 15.927 0.0630932 16.146C0.404539 17.8532 1.80372 19 3.54435 19C8.53613 19 13.5279 19 18.5197 19C18.9131 19 18.9948 18.9146 18.9948 18.5287V3.02258C18.9985 2.62918 18.9131 2.54382 18.5271 2.54382ZM18.3675 16.9996C18.3675 17.0886 18.3378 17.1072 18.2562 17.1072C17.9296 17.1035 17.603 17.1072 17.2875 17.1072C17.6475 16.7509 18.0075 16.3946 18.3675 16.0383C18.3638 16.3427 18.3601 16.6693 18.3675 16.9996ZM18.3638 11.6107V12.8132C18.3638 12.8911 18.297 12.9208 18.2525 12.969C17.6253 13.6 16.998 14.2309 16.3634 14.8544C16.2558 14.9583 16.2595 15.0103 16.3634 15.1142C16.69 15.4297 16.6863 15.4371 17.0092 15.1105C17.4508 14.6688 17.8888 14.2272 18.3601 13.7521C18.3601 14.2049 18.3564 14.6095 18.3601 15.0177C18.3601 15.0882 18.3156 15.1216 18.2748 15.1625C17.655 15.7822 17.0352 16.402 16.4154 17.0218C16.3708 17.0664 16.33 17.1109 16.2521 17.1109C15.8512 17.1072 15.4541 17.1072 15.0125 17.1072C15.3354 16.7843 15.6248 16.4837 15.9292 16.1942C16.0368 16.094 16.0368 16.0383 15.9292 15.9344C15.5989 15.6189 15.6063 15.6115 15.2834 15.9381C14.9271 16.2907 14.5708 16.6433 14.2219 17.0033C14.1477 17.0812 14.0735 17.1109 13.9659 17.1109C13.591 17.1035 13.2162 17.1072 12.8673 17.1072C14.697 15.2775 16.5341 13.4404 18.3638 11.6107ZM0.638354 3.50506C0.642066 1.90546 1.90022 0.647311 3.49982 0.647311C4.01198 0.647311 4.53157 0.591641 5.04003 0.680713C5.78973 0.8069 6.31674 1.44525 6.33159 2.20608C6.3353 2.42134 6.33159 2.6366 6.33159 2.89269C5.81571 2.40279 5.24416 2.20608 4.58724 2.22464C4.36827 2.23206 4.15302 2.22835 3.93404 2.22464C3.83755 2.22093 3.80044 2.23949 3.79672 2.35083C3.7893 2.85928 3.78559 2.85928 4.28662 2.86299C4.51673 2.86299 4.75054 2.84815 4.97694 2.88155C5.78973 3.00774 6.32787 3.6498 6.33901 4.47373C6.33901 4.56651 6.33901 4.65558 6.33901 4.78548C6.09777 4.57022 5.86024 4.40321 5.58931 4.29187C5.15508 4.11001 4.7023 4.12857 4.2458 4.12857C3.80786 4.13228 3.81528 4.12857 3.80415 4.5628C3.80044 4.72239 3.83384 4.77435 4.00456 4.76692C4.32003 4.75208 4.6392 4.73723 4.95096 4.77806C5.76746 4.87826 6.33159 5.53889 6.33901 6.36652C6.33901 6.46302 6.33901 6.55951 6.33901 6.69312C6.0087 6.38137 5.66354 6.18095 5.259 6.09188C4.8025 5.98796 4.33858 6.04734 3.87837 6.0325C3.83013 6.0325 3.80415 6.04734 3.80786 6.0993C3.80786 6.11044 3.80786 6.12528 3.80786 6.14013C3.77074 6.66714 3.77074 6.66343 4.29034 6.66714C4.51302 6.66714 4.74312 6.6523 4.96209 6.68199C5.7823 6.80075 6.33159 7.44653 6.33901 8.27787C6.33901 8.36695 6.33901 8.45973 6.33901 8.5822C6.09035 8.36695 5.84911 8.19622 5.56704 8.08117C5.13653 7.90674 4.69116 7.92529 4.24209 7.92529C3.80415 7.92529 3.81528 7.92529 3.80044 8.35952C3.79672 8.52282 3.83755 8.56736 4.00085 8.56365C4.33116 8.55623 4.66147 8.52654 4.98807 8.5822C5.79344 8.71953 6.32787 9.35046 6.3353 10.167C6.3353 10.2597 6.3353 10.3525 6.3353 10.4416C6.27963 10.475 6.26107 10.423 6.23509 10.4008C5.80457 10.0148 5.29611 9.82922 4.72085 9.82551C4.45735 9.82551 4.19384 9.82922 3.93033 9.8218C3.82642 9.81809 3.80044 9.85149 3.80044 9.9517C3.7893 10.4564 3.78559 10.4527 4.28662 10.4564C4.54271 10.4602 4.79879 10.4379 5.05488 10.4861C5.77117 10.6272 6.30561 11.2433 6.32787 11.9707C6.3353 12.2008 6.32787 12.4272 6.32787 12.6907C6.00127 12.3938 5.65983 12.1859 5.25529 12.0969C5.15879 12.0746 5.0623 12.0486 4.9658 12.0449C4.36456 12.0301 3.76332 12.0004 3.16579 12.0523C2.12661 12.1451 1.29527 12.635 0.664334 13.4701C0.604952 13.4367 0.634643 13.3773 0.634643 13.3327C0.638354 10.0593 0.634643 6.78219 0.638354 3.50506ZM18.3675 17.9571C18.3527 18.3691 18.3638 18.3691 17.9444 18.3691H10.7444C8.33943 18.3691 5.93076 18.3691 3.52579 18.3691C2.13032 18.3691 0.998357 17.4598 0.697736 16.1051C0.319177 14.409 1.64042 12.7092 3.37734 12.6795C3.93776 12.6684 4.50188 12.6165 5.05488 12.713C5.8454 12.8466 6.39468 13.5851 6.32787 14.3905C6.26478 15.181 5.60416 15.8157 4.81364 15.8379C4.41281 15.8491 4.00827 15.8379 3.60744 15.8416C3.51837 15.8416 3.48497 15.8231 3.48126 15.7229C3.45899 15.207 3.45528 15.207 3.97487 15.207C4.23838 15.207 4.50188 15.2107 4.76539 15.207C5.28869 15.1959 5.70065 14.769 5.69694 14.2532C5.69323 13.7447 5.28498 13.3142 4.7691 13.3142C4.21611 13.3142 3.66312 13.2659 3.11012 13.3476C2.0561 13.5035 1.25815 14.4536 1.26557 15.5373C1.26929 16.6136 2.06723 17.5451 3.11383 17.7084C3.28456 17.7344 3.45528 17.7418 3.626 17.7418C8.46562 17.7418 13.3015 17.7418 18.1411 17.7381C18.3341 17.7307 18.375 17.7827 18.3675 17.9571Z" fill="#27282D"/>
<path id="Vector_16" d="M2.53809 4.44437C2.53809 4.12891 2.53809 4.12891 2.85355 4.12891C3.16902 4.12891 3.16902 4.12891 3.16902 4.44437C3.16902 4.75984 3.16902 4.75984 2.85355 4.75984C2.53809 4.75984 2.53809 4.75984 2.53809 4.44437Z" fill="#27282D"/>
<path id="Vector_17" d="M2.53809 8.23285C2.53809 7.9248 2.53809 7.9248 2.84242 7.9248C3.16902 7.9248 3.16902 7.9248 3.16902 8.2514C3.16902 8.55945 3.16902 8.55945 2.86469 8.55945C2.53809 8.55945 2.53809 8.55945 2.53809 8.23285Z" fill="#27282D"/>
<path id="Vector_18" d="M2.53809 6.33636C2.53809 6.02832 2.53809 6.02832 2.84242 6.02832C3.17273 6.02832 3.17273 6.02832 3.17273 6.35121C3.17273 6.65925 3.17273 6.65925 2.8684 6.65925C2.53809 6.65925 2.53809 6.65925 2.53809 6.33636Z" fill="#27282D"/>
<path id="Vector_19" d="M2.53809 2.56254C2.53809 2.22852 2.53809 2.22852 2.87582 2.22852C3.16902 2.22852 3.16902 2.22852 3.16902 2.52914C3.16902 2.86316 3.16902 2.86316 2.83128 2.86316C2.53809 2.85945 2.53809 2.85945 2.53809 2.56254Z" fill="#27282D"/>
<path id="Vector_20" d="M2.53809 10.1563C2.53809 9.82227 2.53809 9.82227 2.87953 9.82227C3.17273 9.82227 3.17273 9.82227 3.17273 10.1229C3.17273 10.4532 3.17273 10.4532 2.83128 10.4532C2.53809 10.4569 2.53809 10.4569 2.53809 10.1563Z" fill="#27282D"/>
<path id="Vector_21" d="M18.5273 2.54382H9.32685C8.86293 2.54382 8.87035 2.54382 8.86293 3.01516C8.85922 3.16362 8.91118 3.18217 9.04107 3.18217C9.41221 3.17475 9.78335 3.17846 10.1916 3.17846C10.2436 3.17846 10.2658 3.24155 10.2324 3.27496C10.0023 3.50135 9.79819 3.70176 9.59407 3.90218C9.27118 4.22135 9.2786 4.21764 9.59778 4.54795C9.70912 4.66301 9.76108 4.63703 9.85757 4.53682C10.2732 4.11001 10.6926 3.69434 11.1157 3.27496C11.1603 3.23042 11.1937 3.17104 11.2753 3.17104C11.6353 3.17475 11.999 3.17475 12.4036 3.17104C12.4555 3.17104 12.4815 3.23784 12.4407 3.27124C12.4147 3.29351 12.3924 3.31207 12.3739 3.33434C11.8691 3.83537 11.3681 4.34012 10.8634 4.84486C10.5442 5.16404 10.5516 5.16033 10.8671 5.49064C10.9784 5.60569 11.0267 5.58342 11.1269 5.48322C11.8543 4.74837 12.5891 4.01723 13.3203 3.28609C13.3685 3.23784 13.4056 3.17104 13.491 3.17104C13.8399 3.17104 14.1887 3.17104 14.5376 3.17104C14.5673 3.24898 14.5673 3.24898 14.597 3.32692C14.5933 3.33063 14.5896 3.33434 14.5896 3.33434C14.0848 3.83537 13.5801 4.34012 13.079 4.84486C12.7599 5.16404 12.7673 5.15662 13.0716 5.47951C13.1904 5.6094 13.2498 5.57971 13.3574 5.47208C14.0811 4.74094 14.8085 4.01352 15.5397 3.2898C15.5879 3.24155 15.625 3.17475 15.7104 3.17475C16.0741 3.17846 16.4378 3.17846 16.8349 3.17475C16.8869 3.17475 16.9092 3.23784 16.8758 3.27124C16.5529 3.59413 16.2523 3.89104 15.9553 4.19166C15.844 4.303 15.6436 4.40692 15.6547 4.53311C15.6621 4.65558 15.8588 4.75579 15.9553 4.87826C16.037 4.97847 16.089 4.9562 16.1706 4.87455C16.6531 4.38465 17.1504 3.91331 17.618 3.41228C17.7999 3.21929 17.9855 3.14135 18.2378 3.16733C18.3343 3.17846 18.3789 3.18588 18.3714 3.29722C18.3603 3.4531 18.3566 3.61269 18.3714 3.77228C18.3863 3.93187 18.3269 4.03579 18.2156 4.14713C16.7125 5.64281 15.2094 7.14591 13.71 8.64901C13.6135 8.74551 13.4539 8.842 13.439 8.94963C13.4242 9.07582 13.6209 9.15004 13.7025 9.2651C13.8102 9.42097 13.8881 9.37273 13.9995 9.25767C15.3949 7.85478 16.7941 6.45931 18.1933 5.05641C18.2007 5.04899 18.2044 5.04156 18.2119 5.03785C18.2898 5.06754 18.2935 5.06754 18.3714 5.10095C18.3714 5.40899 18.3677 5.71703 18.3752 6.02508C18.3789 6.15497 18.338 6.24405 18.2453 6.33312C16.731 7.83993 15.2205 9.35417 13.71 10.8647C13.6135 10.9612 13.4539 11.054 13.439 11.1653C13.4242 11.2952 13.6209 11.3657 13.7025 11.4808C13.8102 11.6367 13.8881 11.5884 13.9995 11.4734C15.3949 10.0705 16.7941 8.67499 18.1933 7.27581C18.2044 7.26467 18.2119 7.25725 18.2193 7.24611C18.2935 7.27581 18.2972 7.27581 18.3677 7.3055C18.3677 7.61725 18.364 7.92901 18.3714 8.24076C18.3752 8.37066 18.3306 8.45973 18.2415 8.5488C16.6197 10.1632 15.0052 11.7814 13.3871 13.3996C13.079 13.7076 13.0865 13.7002 13.3871 14.0194C13.5058 14.1455 13.5615 14.127 13.6729 14.0156C15.176 12.5051 16.6828 11.002 18.1896 9.4952C18.2007 9.48407 18.2081 9.47664 18.2156 9.46551C18.2898 9.4952 18.2935 9.4952 18.3677 9.52489C18.3677 9.8552 18.3677 10.1855 18.3677 10.5121C18.3677 10.5975 18.3455 10.6569 18.2824 10.7199C16.1817 12.8243 14.0848 14.9212 11.9842 17.0218C11.9434 17.0627 11.91 17.1072 11.8394 17.1072C11.4906 17.1035 11.1417 17.1035 10.7965 17.1072C10.7669 17.0293 10.7669 17.0293 10.7372 16.9513C10.7409 16.9476 10.7446 16.9439 10.7483 16.9402C11.3607 16.3315 11.9731 15.7192 12.5817 15.1105C12.8935 14.7987 12.886 14.8062 12.5891 14.4907C12.4815 14.3756 12.4221 14.3608 12.3034 14.4833C11.4757 15.3258 10.637 16.1571 9.8019 16.9884C9.75366 17.0367 9.71654 17.1072 9.63118 17.1035C9.22664 17.0998 8.81839 17.1035 8.38045 17.1035C8.41757 17.059 8.43241 17.0404 8.44726 17.0256C8.55117 16.9142 8.73303 16.8066 8.73674 16.6952C8.74045 16.5616 8.53633 16.4726 8.43983 16.3538C8.36561 16.261 8.31365 16.2573 8.22457 16.3501C8.01303 16.5765 7.78663 16.7917 7.57137 17.0107C7.5157 17.0664 7.46003 17.1109 7.37096 17.1072C6.05714 17.1035 4.74703 17.1146 3.43321 17.0998C2.64269 17.0924 1.97835 16.4466 1.91526 15.6561C1.84845 14.8507 2.39774 14.1158 3.18454 13.9748C3.68187 13.8857 4.1829 13.9525 4.68393 13.9377C4.9326 13.9303 5.07734 14.0565 5.07363 14.2569C5.06992 14.4536 4.92888 14.5686 4.67651 14.5686C4.20146 14.5686 3.7264 14.5686 3.25135 14.5686C2.96929 14.5686 2.86166 14.68 2.85794 14.9657C2.85794 15.3406 2.85423 15.7192 2.85794 16.094C2.86166 16.3501 2.97671 16.4651 3.23279 16.4689C3.66702 16.4726 4.10496 16.4689 4.53919 16.4689C4.77672 16.4689 5.01425 16.4689 5.24435 16.4132C6.29095 16.1608 6.97013 15.2886 6.97013 14.1752C6.97013 10.2189 6.97013 6.2626 6.97013 2.30629C6.97013 2.23949 6.97013 2.17639 6.96642 2.10959C6.92189 1.08525 6.12765 0.198236 5.11074 0.0460704C4.58744 -0.0318682 4.05671 0.0126681 3.5297 0.0126681C1.54412 0.0126681 0.00761761 1.54546 0.00390625 3.52733C0.00390625 7.51333 0.00761761 11.4956 0.00390625 15.4779C0.00390625 15.7043 0.0187517 15.927 0.0632881 16.146C0.404733 17.8532 1.80392 19 3.54455 19C8.53633 19 13.5281 19 18.5199 19C18.9133 19 18.9949 18.9146 18.9949 18.5287V3.02258C18.9987 2.62918 18.9133 2.54382 18.5273 2.54382ZM18.3677 16.9996C18.3677 17.0886 18.338 17.1072 18.2564 17.1072C17.978 17.1035 17.6997 17.1035 17.425 17.1072C17.3731 17.1072 17.3508 17.0441 17.3842 17.0107C17.6811 16.7175 17.9743 16.4243 18.2675 16.1348C18.3046 16.0977 18.364 16.1237 18.364 16.1757C18.364 16.4392 18.3603 16.7175 18.3677 16.9996ZM18.2675 11.7072C18.3046 11.6701 18.364 11.696 18.364 11.748V12.8132C18.364 12.8911 18.2972 12.9208 18.2527 12.969C17.6255 13.6 16.9982 14.2309 16.3636 14.8544C16.256 14.9583 16.2597 15.0103 16.3636 15.1142C16.6902 15.4297 16.6865 15.4371 17.0094 15.1105C17.4176 14.6985 17.8259 14.2866 18.2638 13.8486C18.3009 13.8115 18.3603 13.8375 18.3603 13.8895C18.3603 14.2866 18.3603 14.6503 18.3603 15.014C18.3603 15.0845 18.3158 15.1179 18.2749 15.1587C17.6551 15.7785 17.0353 16.3983 16.4156 17.0181C16.371 17.0627 16.3302 17.1072 16.2523 17.1072C15.896 17.1035 15.536 17.1035 15.15 17.1035C15.098 17.1035 15.0757 17.0441 15.1092 17.007C15.3949 16.7212 15.6547 16.4503 15.9294 16.1905C16.037 16.0903 16.037 16.0346 15.9294 15.9307C15.5991 15.6152 15.6065 15.6078 15.2836 15.9344C14.9273 16.287 14.571 16.6396 14.2221 16.9996C14.1479 17.0775 14.0737 17.1072 13.9661 17.1072C13.6395 17.1035 13.3166 17.1035 13.0048 17.1035C12.9528 17.1035 12.9306 17.0441 12.964 17.007C14.7306 15.2441 16.5009 13.4738 18.2675 11.7072ZM0.638549 3.50506C0.642261 1.90546 1.90041 0.647311 3.50001 0.647311C4.01218 0.647311 4.53177 0.591641 5.04023 0.680713C5.78992 0.8069 6.31693 1.44525 6.33178 2.20608C6.33549 2.38423 6.33549 2.56237 6.33178 2.76279C6.33178 2.81104 6.27611 2.83702 6.239 2.80732C5.7491 2.38052 5.20353 2.20608 4.58744 2.22464C4.36847 2.23206 4.15321 2.22835 3.93424 2.22464C3.83774 2.22093 3.80063 2.23949 3.79692 2.35083C3.7895 2.85928 3.78578 2.85928 4.28682 2.86299C4.51692 2.86299 4.75074 2.84815 4.97713 2.88155C5.78992 3.00774 6.32807 3.6498 6.3392 4.47373C6.3392 4.53311 6.3392 4.59249 6.3392 4.65929C6.3392 4.70754 6.28353 4.73352 6.24642 4.70383C6.03487 4.52569 5.82703 4.38837 5.58951 4.28816C5.15528 4.1063 4.70249 4.12486 4.24599 4.12486C3.80805 4.12857 3.81548 4.12486 3.80434 4.55909C3.80063 4.71868 3.83403 4.77064 4.00476 4.76321C4.32022 4.74837 4.6394 4.73352 4.95115 4.77435C5.76765 4.87455 6.33178 5.53518 6.3392 6.36281C6.3392 6.4259 6.3392 6.489 6.3392 6.55951C6.3392 6.60776 6.28353 6.63374 6.24642 6.60405C5.9458 6.34054 5.62662 6.16982 5.2592 6.08446C4.8027 5.98054 4.33878 6.03992 3.87857 6.02508C3.83032 6.02508 3.80434 6.03992 3.80805 6.09188C3.80805 6.10301 3.80805 6.11786 3.80805 6.13271C3.77094 6.65972 3.77094 6.65601 4.29053 6.65972C4.51321 6.65972 4.74332 6.64487 4.96229 6.67456C5.7825 6.79333 6.33178 7.43911 6.3392 8.27045C6.3392 8.32983 6.3392 8.3855 6.3392 8.45602C6.3392 8.50427 6.28353 8.53025 6.24642 8.50056C6.02745 8.32241 5.81219 8.17767 5.56724 8.07746C5.13672 7.90303 4.69136 7.92158 4.24228 7.92158C3.80434 7.92158 3.81548 7.92158 3.80063 8.35581C3.79692 8.51911 3.83774 8.56365 4.00104 8.55994C4.33136 8.55251 4.66167 8.52282 4.98827 8.57849C5.79363 8.71581 6.32807 9.34674 6.33549 10.1632C6.33549 10.23 6.33549 10.2931 6.33549 10.3599C6.33549 10.4119 6.27611 10.4342 6.239 10.4008C5.80848 10.0148 5.30002 9.82922 4.72476 9.82551C4.46125 9.82551 4.19775 9.82922 3.93424 9.8218C3.83032 9.81809 3.80434 9.85149 3.80434 9.9517C3.79321 10.4564 3.7895 10.4527 4.29053 10.4564C4.54661 10.4602 4.8027 10.4379 5.05878 10.4861C5.77507 10.6272 6.30951 11.2433 6.33178 11.9707C6.3392 12.1637 6.33549 12.3529 6.33178 12.5682C6.33178 12.6165 6.27611 12.6424 6.239 12.6127C5.94209 12.3567 5.62662 12.1822 5.2592 12.1006C5.1627 12.0783 5.0662 12.0523 4.96971 12.0486C4.36847 12.0338 3.76723 12.0041 3.1697 12.056C2.16763 12.1451 1.36226 12.6053 0.738756 13.381C0.705354 13.4255 0.634838 13.3958 0.638549 13.3402C0.638549 13.3365 0.638549 13.3365 0.638549 13.3327C0.638549 10.0593 0.634838 6.78219 0.638549 3.50506ZM18.3677 17.9571C18.3529 18.3691 18.364 18.3691 17.9446 18.3691H10.7446C8.33963 18.3691 5.93095 18.3691 3.52599 18.3691C2.13052 18.3691 0.998551 17.4598 0.697931 16.1051C0.319372 14.409 1.64062 12.7092 3.37753 12.6795C3.93795 12.6684 4.50208 12.6165 5.05507 12.713C5.84559 12.8466 6.39487 13.5851 6.32807 14.3905C6.26497 15.181 5.60435 15.8157 4.81383 15.8379C4.413 15.8491 4.00847 15.8379 3.60764 15.8416C3.51857 15.8416 3.48516 15.8231 3.48145 15.7229C3.45918 15.207 3.45547 15.207 3.97506 15.207C4.23857 15.207 4.50208 15.2107 4.76558 15.207C5.28889 15.1959 5.70085 14.769 5.69714 14.2532C5.69342 13.7447 5.28517 13.3142 4.7693 13.3142C4.2163 13.3142 3.66331 13.2659 3.11032 13.3476C2.05629 13.5035 1.25835 14.4536 1.26577 15.5373C1.26948 16.6136 2.06742 17.5451 3.11403 17.7084C3.28475 17.7344 3.45547 17.7418 3.6262 17.7418C8.46581 17.7418 13.3017 17.7418 18.1413 17.7381C18.3343 17.7307 18.3752 17.7827 18.3677 17.9571Z" fill="#27282D"/>
<path id="Vector_22" d="M15.1353 5.90216C12.9604 8.07702 10.7856 10.2519 8.6107 12.4304C8.56616 12.4787 8.52534 12.5307 8.4808 12.59C8.414 12.5307 8.37317 12.4935 8.33235 12.4527C8.23214 12.3488 8.06142 12.2523 8.05028 12.1372C8.03915 12.0185 8.22472 11.9257 8.32493 11.8218C10.4886 9.65435 12.6598 7.49062 14.8198 5.31948C14.9534 5.18587 15.0165 5.20071 15.1353 5.3269C15.4136 5.62381 15.4211 5.61639 15.1353 5.90216Z" fill="#27282D"/>
<path id="Vector_23" d="M13.1938 10.0448C13.1679 10.0783 13.1419 10.1079 13.1159 10.1376C11.9097 11.3438 10.6998 12.5537 9.49733 13.7599C9.43795 13.823 9.40084 13.8379 9.32661 13.7673C8.94434 13.4148 8.94063 13.4185 9.30805 13.0511C10.4066 11.9525 11.5126 10.8539 12.6037 9.74794C12.7374 9.61433 12.8116 9.62175 12.9192 9.75536C12.9786 9.8333 13.0565 9.89639 13.127 9.96691C13.1456 9.99289 13.1679 10.0152 13.1938 10.0448Z" fill="#27282D"/>
<path id="Vector_24" d="M13.1943 12.2674C13.1609 12.3045 13.1349 12.3342 13.1089 12.3601C11.9064 13.5626 10.704 14.7651 9.50519 15.9713C9.41983 16.0567 9.37529 16.0418 9.30478 15.9639C9.20086 15.8451 9.00787 15.7412 9.00045 15.6187C8.98931 15.4925 9.18972 15.3886 9.30107 15.2773C10.3996 14.175 11.5019 13.0801 12.5968 11.9742C12.7378 11.8331 12.8157 11.8368 12.9271 11.9853C12.9864 12.0632 13.0644 12.1263 13.1349 12.1968C13.1535 12.2117 13.172 12.2377 13.1943 12.2674Z" fill="#27282D"/>
<path id="Vector_25" d="M12.2546 6.56661C11.453 7.36827 10.655 8.16621 9.85336 8.96786C9.81253 9.00869 9.768 9.04951 9.70119 9.11261C9.64181 9.03838 9.59356 8.96786 9.53047 8.90848C9.27438 8.64869 9.27438 8.6524 9.53418 8.3926C10.3544 7.57239 11.1746 6.75589 11.9874 5.93197C12.0987 5.81692 12.1581 5.83176 12.2583 5.93568C12.5701 6.25486 12.5738 6.24743 12.2546 6.56661Z" fill="#27282D"/>
<path id="Vector_26" d="M10.3174 6.24802C10.3248 6.3705 10.1355 6.47071 10.0279 6.57462C9.44151 7.16473 8.85512 7.74741 8.26872 8.33381C8.2279 8.37463 8.19821 8.43031 8.10542 8.44886C8.04975 8.38577 7.99037 8.30783 7.91985 8.23731C7.69717 8.01092 7.69346 8.01092 7.91614 7.78824C8.53965 7.16473 9.16687 6.54122 9.78667 5.914C9.87946 5.81751 9.93884 5.79895 10.0316 5.91029C10.1244 6.03648 10.31 6.13297 10.3174 6.24802Z" fill="#27282D"/>
<path id="Vector_27" d="M8.74755 5.647C8.58054 5.81401 8.41353 5.98102 8.24652 6.14803C8.21312 6.18144 8.17971 6.20741 8.12033 6.25937C8.06095 6.18886 8.0127 6.11834 7.95332 6.05896C7.69724 5.79916 7.69724 5.79916 7.95703 5.54308C8.15373 5.34638 8.35044 5.15339 8.54343 4.95669C8.61394 4.88246 8.65477 4.86019 8.74384 4.94555C9.10013 5.29442 9.10384 5.29071 8.74755 5.647Z" fill="#27282D"/>
<path id="Vector_28" d="M9.08201 9.72943C9.05974 9.75912 9.04118 9.7851 9.0152 9.80737C8.7517 10.0746 8.48448 10.3344 8.22097 10.6053C8.16159 10.6647 8.11705 10.6795 8.06509 10.6053C8.06138 10.6016 8.05767 10.5942 8.05025 10.5905C7.67911 10.2453 7.67911 10.2453 8.03169 9.89273C8.20241 9.722 8.37685 9.55128 8.54757 9.37685C8.61809 9.30262 8.66262 9.29149 8.73314 9.37314C8.8185 9.47334 8.91871 9.5587 9.01149 9.6552C9.03376 9.67376 9.05603 9.69974 9.08201 9.72943Z" fill="#27282D"/>
<path id="Vector_29" d="M8.78823 14.4458C8.73627 14.5052 8.71771 14.5312 8.69545 14.5534C8.53957 14.713 8.37627 14.8652 8.2241 15.0285C8.1573 15.099 8.12019 15.0916 8.05338 15.0285C7.67482 14.6796 7.67482 14.6796 8.03854 14.3159C8.32431 14.0301 8.32431 14.0301 8.6138 14.3159C8.66576 14.3641 8.72885 14.4013 8.78823 14.4458Z" fill="#27282D"/>
<path id="Vector_30" d="M8.23542 2.87426C8.23542 3.17859 8.23542 3.17859 7.92738 3.17859C7.60449 3.17859 7.60449 3.17859 7.60449 2.84828C7.60449 2.54395 7.60449 2.54395 7.91254 2.54395C8.23542 2.54395 8.23542 2.54395 8.23542 2.87426Z" fill="#27282D"/>
<path id="Vector_31" d="M3.16902 4.44437C3.16902 4.75984 3.16902 4.75984 2.85355 4.75984C2.53809 4.75984 2.53809 4.75984 2.53809 4.44437C2.53809 4.12891 2.53809 4.12891 2.85355 4.12891C3.16902 4.12891 3.16902 4.12891 3.16902 4.44437Z" fill="#27282D"/>
<path id="Vector_32" d="M3.16902 8.2514C3.16902 8.55945 3.16902 8.55945 2.86469 8.55945C2.53809 8.55945 2.53809 8.55945 2.53809 8.23285C2.53809 7.9248 2.53809 7.9248 2.84242 7.9248C3.16902 7.9248 3.16902 7.9248 3.16902 8.2514Z" fill="#27282D"/>
<path id="Vector_33" d="M3.1698 6.34828C3.1698 6.65632 3.1698 6.65632 2.86547 6.65632C2.53516 6.65632 2.53516 6.65632 2.53516 6.33343C2.53516 6.02539 2.53516 6.02539 2.83949 6.02539C3.1698 6.02539 3.1698 6.02539 3.1698 6.34828Z" fill="#27282D"/>
<path id="Vector_34" d="M2.53809 2.56254C2.53809 2.22852 2.53809 2.22852 2.87582 2.22852C3.16902 2.22852 3.16902 2.22852 3.16902 2.52914C3.16902 2.86316 3.16902 2.86316 2.83128 2.86316C2.53809 2.85945 2.53809 2.85945 2.53809 2.56254Z" fill="#27282D"/>
<path id="Vector_35" d="M3.1698 10.1266C3.1698 10.4569 3.1698 10.4569 2.82835 10.4569C2.53516 10.4569 2.53516 10.4569 2.53516 10.1563C2.53516 9.82227 2.53516 9.82227 2.8766 9.82227C3.1698 9.82598 3.1698 9.82598 3.1698 10.1266Z" fill="#27282D"/>
<path id="Vector_36" d="M3.16902 2.52914C3.16902 2.86316 3.16902 2.86316 2.83128 2.86316C2.53809 2.86316 2.53809 2.86316 2.53809 2.56254C2.53809 2.22852 2.53809 2.22852 2.87582 2.22852C3.16902 2.22852 3.16902 2.22852 3.16902 2.52914Z" fill="#27282D"/>
<path id="Vector_37" d="M3.16902 4.44437C3.16902 4.75984 3.16902 4.75984 2.85355 4.75984C2.53809 4.75984 2.53809 4.75984 2.53809 4.44437C2.53809 4.12891 2.53809 4.12891 2.85355 4.12891C3.16902 4.12891 3.16902 4.12891 3.16902 4.44437Z" fill="#27282D"/>
<path id="Vector_38" d="M3.1698 6.34828C3.1698 6.65632 3.1698 6.65632 2.86547 6.65632C2.53516 6.65632 2.53516 6.65632 2.53516 6.33343C2.53516 6.02539 2.53516 6.02539 2.83949 6.02539C3.1698 6.02539 3.1698 6.02539 3.1698 6.34828Z" fill="#27282D"/>
<path id="Vector_39" d="M3.16902 8.2514C3.16902 8.55945 3.16902 8.55945 2.86469 8.55945C2.53809 8.55945 2.53809 8.55945 2.53809 8.23285C2.53809 7.9248 2.53809 7.9248 2.84242 7.9248C3.16902 7.9248 3.16902 7.9248 3.16902 8.2514Z" fill="#27282D"/>
<path id="Vector_40" d="M3.1698 10.1266C3.1698 10.4569 3.1698 10.4569 2.82835 10.4569C2.53516 10.4569 2.53516 10.4569 2.53516 10.1563C2.53516 9.82227 2.53516 9.82227 2.8766 9.82227C3.1698 9.82598 3.1698 9.82598 3.1698 10.1266Z" fill="#27282D"/>
</g>
</svg>
