<svg width="22" height="19" viewBox="0 0 22 19" fill="none" xmlns="http://www.w3.org/2000/svg">
<g id="Group">
<path id="Vector" d="M21.5849 10.1652C21.5806 10.1525 21.5806 10.1314 21.5764 10.1272C21.4497 9.90325 20.8244 8.79211 20.1611 7.61337C19.6076 6.62475 19.0204 5.58544 18.6655 4.96016C18.581 4.81228 18.4965 4.66441 18.4162 4.51654C18.3951 4.48274 18.3782 4.45317 18.3655 4.42782L18.3613 4.4236L18.3106 4.3391C18.2852 4.29263 18.2557 4.24615 18.2303 4.19968C17.9388 3.70114 17.398 3.54905 16.8868 3.82789C16.608 3.97576 16.3291 4.13208 16.0587 4.28418L15.8475 4.40247C15.3616 4.67286 15.1926 5.07423 15.349 5.60234C15.3659 5.66148 15.3785 5.73331 15.3405 5.79668C15.3067 5.86005 15.2391 5.88118 15.18 5.89808C14.9603 5.953 14.7195 6.0206 14.4491 6.1051C14.242 6.16847 14.0392 6.16002 13.8196 6.07552C13.4816 5.94878 13.1351 5.82625 12.8014 5.70796C12.6535 5.65726 12.5098 5.60656 12.362 5.55586C11.9141 5.39954 11.5339 5.34039 11.1537 5.37842C10.803 5.41222 10.4481 5.44179 10.1017 5.47136C9.75945 5.50094 9.40034 5.53051 9.0539 5.56431C9.01165 5.56854 8.9694 5.57276 8.92293 5.57699C8.55537 5.61079 8.17513 5.64458 7.90896 5.86005C7.46535 6.22339 7.05131 6.07975 6.71755 5.96567C6.62037 5.93188 6.53588 5.90653 6.46405 5.88963C6.40491 5.87695 6.33308 5.85583 6.29506 5.78823C6.25704 5.72063 6.26971 5.64036 6.29083 5.58121C6.4387 5.09958 6.26971 4.67709 5.8261 4.4236C5.53458 4.25883 5.23884 4.09406 4.95155 3.93774L4.8079 3.85746C4.2122 3.53215 3.70099 3.67579 3.36722 4.2715C3.1771 4.60949 2.98698 4.94748 2.79264 5.28125C2.25608 6.22762 1.6984 7.20779 1.15761 8.17951C1.03932 8.39075 0.916797 8.60622 0.794276 8.80901C0.515434 9.28642 0.228143 9.78073 0 10.2919V10.6806C0.118296 11.0228 0.363339 11.2721 0.777376 11.4665C1.01397 11.5763 1.25056 11.7073 1.47871 11.8551C1.766 12.041 2.08709 12.1002 2.37438 12.0157C2.64477 11.9354 2.86446 11.7411 2.98276 11.4834C3.00388 11.4369 3.04191 11.3693 3.11373 11.3439C3.13485 11.3355 3.15175 11.3355 3.17288 11.3355C3.22358 11.3355 3.27428 11.3566 3.30807 11.3735C3.54889 11.5045 3.74324 11.6481 3.91223 11.8213C3.9925 11.9058 4.06433 12.0157 3.95026 12.1889C3.69676 12.5776 3.63761 13.0297 3.78549 13.4268C3.93758 13.8239 4.28402 14.1239 4.74031 14.2422C4.85438 14.2718 4.96 14.3182 4.96422 14.5168C4.97267 15.1674 5.36136 15.6491 5.99932 15.8096C6.18521 15.8561 6.22324 15.9659 6.22746 16.1096C6.23169 16.7264 6.63727 17.2334 7.23721 17.3771C7.3893 17.4109 7.48225 17.4785 7.48647 17.6812C7.49915 18.222 7.74841 18.6149 8.2216 18.8515C8.70324 19.0881 9.1722 19.0417 9.61581 18.7163C9.77635 18.598 9.9369 18.4671 10.0932 18.3403C10.1397 18.3023 10.1862 18.2643 10.2326 18.2263C10.2791 18.1882 10.3298 18.1375 10.3805 18.0868C10.503 17.9601 10.634 17.8249 10.7903 17.8249H10.7945C10.9593 17.8291 11.0987 17.9559 11.2339 18.0826C11.2846 18.1333 11.3353 18.1756 11.3818 18.2136C11.7367 18.484 12.1761 18.5642 12.5859 18.4417C12.9957 18.3192 13.3126 18.0023 13.4562 17.5841C13.5069 17.432 13.5872 17.339 13.7942 17.3813C14.1956 17.4658 14.6054 17.3728 14.9096 17.1278C15.2138 16.8827 15.3912 16.5067 15.3997 16.0969C15.3997 15.9026 15.4968 15.8392 15.6363 15.8054C16.2658 15.6449 16.6502 15.1674 16.6629 14.5253C16.6671 14.4027 16.684 14.2929 16.8741 14.2422C17.3346 14.1197 17.6895 13.8239 17.8374 13.431C17.9895 13.0381 17.9304 12.5818 17.6726 12.1762C17.567 12.0115 17.6346 11.9016 17.7064 11.8298C17.8501 11.6777 18.0318 11.5425 18.2514 11.4115C18.319 11.3693 18.4035 11.327 18.4923 11.3524C18.581 11.3777 18.6359 11.4538 18.6697 11.5172C18.9739 12.0537 19.502 12.2058 20.0512 11.9101C20.1569 11.8551 20.2625 11.7918 20.3639 11.7326C20.5413 11.6312 20.723 11.5256 20.9131 11.4369C21.306 11.2468 21.5342 10.9975 21.6271 10.6426V10.3215C21.5975 10.2581 21.5891 10.2032 21.5849 10.1652ZM2.4293 11.1665C2.37015 11.2721 2.29411 11.4115 2.09976 11.4031C2.09554 11.4031 2.09131 11.4031 2.08709 11.4031C2.00259 11.4031 1.93922 11.3651 1.88429 11.3355L1.78712 11.2806C1.49138 11.1158 1.18296 10.9468 0.882998 10.7778C0.781601 10.7229 0.684429 10.6553 0.654855 10.5454C0.625281 10.4398 0.671755 10.33 0.726678 10.2412C1.90119 8.16261 3.06303 6.11355 3.94181 4.55879C4.08545 4.30108 4.22065 4.26305 4.48259 4.40247C4.81213 4.58414 5.15434 4.77004 5.48811 4.96016C5.7416 5.1038 5.77962 5.24322 5.63175 5.50094C5.0952 6.45153 4.55864 7.39791 4.02208 8.3485C3.48974 9.28642 2.95741 10.2243 2.4293 11.1665ZM5.0783 13.6211C5.06562 13.6211 5.05295 13.6211 5.04027 13.6211C4.73186 13.6169 4.49949 13.4564 4.39387 13.1733C4.29247 12.8945 4.36429 12.6114 4.59244 12.4213C4.83748 12.2143 5.0952 12.0115 5.34024 11.8171C5.43319 11.7411 5.52613 11.6693 5.61908 11.5932C5.66978 11.551 5.72048 11.5129 5.77118 11.4707C5.90637 11.3608 6.04579 11.2468 6.18944 11.1411C6.5063 10.9003 6.91612 10.9383 7.15693 11.2256C7.27523 11.3651 7.33015 11.5425 7.31325 11.7242C7.29635 11.9101 7.20341 12.0833 7.04709 12.21C6.61615 12.5607 6.17676 12.9114 5.75005 13.2494L5.46698 13.4733C5.34869 13.5704 5.21349 13.6211 5.0783 13.6211ZM6.33731 15.197C6.32463 15.197 6.31196 15.197 6.30351 15.197C6.01199 15.1928 5.7585 15.0238 5.66133 14.7661C5.55148 14.4788 5.63598 14.1746 5.88102 13.976C6.17254 13.7352 6.47673 13.4944 6.76825 13.262C6.89077 13.1649 7.00906 13.0719 7.13158 12.9747C7.22031 12.9029 7.30903 12.8311 7.39775 12.7635C7.63857 12.5691 7.88784 12.3706 8.13288 12.1805C8.47509 11.9101 8.88068 11.9354 9.13417 12.2438C9.24825 12.3833 9.30317 12.5565 9.28627 12.7339C9.26514 12.9283 9.15952 13.1142 8.9863 13.2578C8.50044 13.6465 8.00613 14.0394 7.52872 14.4196C7.27945 14.6182 7.03441 14.8168 6.78514 15.0111C6.6753 15.0872 6.51898 15.197 6.33731 15.197ZM7.54985 16.7729C7.3555 16.7729 7.16538 16.6884 7.02596 16.5236C6.90767 16.38 6.85274 16.2025 6.86964 16.0251C6.88654 15.8392 6.98371 15.6702 7.14003 15.5435C7.61322 15.159 8.1033 14.7703 8.57227 14.3943L8.70324 14.2887C8.93983 14.1028 9.19755 14.069 9.45526 14.1957C9.69186 14.314 9.82705 14.521 9.8355 14.7788V14.783C9.8355 15.0238 9.74678 15.2097 9.57356 15.3491C9.45949 15.4421 9.34542 15.535 9.23135 15.6237C8.82576 15.949 8.4075 16.287 7.99346 16.6124C7.85826 16.718 7.70194 16.7729 7.54985 16.7729ZM10.2453 17.3644C9.9031 17.7108 9.50596 18.0066 9.12572 18.2685C9.04968 18.3192 8.95673 18.3488 8.86378 18.3488C8.84688 18.3488 8.82998 18.3488 8.81308 18.3445C8.52579 18.3276 8.31877 18.1967 8.20048 17.9516C8.07373 17.6855 8.12443 17.3771 8.323 17.1954C8.71169 16.8405 9.04968 16.5743 9.38344 16.3546C9.64961 16.1772 10.0087 16.2363 10.2326 16.4983C10.4523 16.756 10.4608 17.1447 10.2453 17.3644ZM17.229 13.2198C17.115 13.469 16.8741 13.6211 16.5995 13.6211C16.5615 13.6211 16.5235 13.6169 16.4855 13.6127C16.3334 13.5916 16.2193 13.5113 16.1179 13.431C15.8179 13.1902 15.4588 12.9029 15.1039 12.6198C15.011 12.5438 14.7702 12.3917 14.5927 12.6114C14.5336 12.6832 14.5082 12.755 14.5167 12.8311C14.5251 12.9283 14.5927 13.0297 14.7068 13.1226C14.8378 13.2282 14.9729 13.3339 15.1081 13.4437C15.3321 13.6211 15.5644 13.807 15.7883 13.9929C16.0376 14.2 16.1052 14.5253 15.9658 14.8168C15.8348 15.0872 15.5433 15.2393 15.2349 15.1928C15.0743 15.1674 14.9518 15.0787 14.8335 14.9858L14.5631 14.7703C14.297 14.5591 14.0223 14.3351 13.752 14.1239C13.6083 14.0098 13.4055 13.9211 13.2407 14.1155C13.1816 14.1873 13.1563 14.2591 13.1647 14.3309C13.1732 14.4281 13.2407 14.5295 13.359 14.6224C13.5492 14.7745 13.7351 14.9224 13.9252 15.0745C14.1026 15.2181 14.2801 15.3576 14.4575 15.5012C14.6476 15.6533 14.7575 15.8392 14.7786 16.0378C14.7955 16.211 14.7448 16.38 14.6265 16.5236C14.373 16.8405 13.9548 16.8574 13.5914 16.5659C13.4647 16.4645 13.3337 16.3589 13.2069 16.2575C12.9577 16.0589 12.7 15.8519 12.4422 15.6491C12.3197 15.5519 12.1972 15.5392 12.0662 15.6153C11.9479 15.6871 11.8972 15.797 11.9184 15.9448C11.931 16.0251 11.9775 16.0927 12.0747 16.173L12.1888 16.2617C12.3324 16.3758 12.4803 16.4941 12.6239 16.6166C12.9408 16.887 12.9957 17.2883 12.7549 17.5925C12.6197 17.7615 12.4338 17.8502 12.2352 17.8502C12.0747 17.8502 11.9057 17.7953 11.7536 17.677C11.7156 17.6474 11.6818 17.6179 11.6437 17.5883C11.593 17.546 11.5423 17.5038 11.4874 17.47C11.2635 17.3221 11.0269 17.1067 11.0058 16.6757C10.9847 16.2532 10.6763 15.9786 10.4228 15.8265C10.2326 15.7125 10.2411 15.5942 10.3256 15.4463C10.672 14.8083 10.4777 14.069 9.86085 13.6887C9.64116 13.5535 9.71721 13.4099 9.77213 13.3043C9.99605 12.886 9.98337 12.3917 9.74255 11.9903C9.50174 11.589 9.07925 11.3524 8.61029 11.3524C8.06951 11.3524 8.03571 11.3355 7.72307 10.8919C7.51182 10.5961 7.20341 10.406 6.84852 10.3511C6.4894 10.2962 6.13029 10.3891 5.83455 10.613C5.47543 10.8834 5.12054 11.1749 4.80368 11.4327C4.72763 11.496 4.58821 11.6101 4.42344 11.4115C4.2291 11.1749 3.9756 10.9806 3.67564 10.8243C3.62072 10.7947 3.54467 10.7567 3.51932 10.6764C3.49397 10.6004 3.53199 10.5243 3.55734 10.4778C4.35584 9.07941 5.12899 7.70632 5.77962 6.55293C5.85145 6.42619 5.9444 6.38816 6.08804 6.43464C6.31196 6.50646 6.54433 6.56983 6.76825 6.6332C6.87387 6.66278 6.97949 6.69235 7.08933 6.72615L7.10201 6.73038C7.16961 6.7515 7.28368 6.78107 7.30903 6.93739C7.47802 7.97249 8.323 8.59777 9.51441 8.5682C9.78903 8.55975 10.0679 8.51327 10.334 8.4668C10.3805 8.45835 10.4228 8.4499 10.4692 8.44145C11.1579 8.32315 11.817 8.47525 12.4296 8.88506C13.5872 9.66666 14.6688 10.5074 15.4799 11.1496L15.5982 11.2425C16.0756 11.6186 16.5657 12.0115 17.0474 12.4044C17.284 12.6114 17.36 12.924 17.229 13.2198ZM18.1289 10.6764C18.1078 10.7525 18.036 10.7947 17.9768 10.8243C17.6684 10.9806 17.4191 11.1792 17.2248 11.4073C17.1572 11.4918 17.0938 11.5214 17.0347 11.5214C16.9671 11.5214 16.9037 11.4834 16.8446 11.4369C15.725 10.5328 14.5124 9.56949 13.2323 8.66959C12.8183 8.37808 12.4127 8.10346 11.9479 7.93869C11.386 7.7359 10.7819 7.71477 9.9876 7.86687C9.53554 7.95559 9.16375 7.94714 8.81731 7.84152C8.40327 7.71477 8.12443 7.45705 7.98078 7.06837C7.83714 6.67968 7.91741 6.50646 8.29765 6.36281C8.52157 6.27832 8.76661 6.22762 9.09615 6.19804C9.60736 6.14734 10.127 6.10087 10.6298 6.05862C10.841 6.04172 11.0523 6.0206 11.2635 6.0037C11.5761 5.97412 11.8634 6.0544 12.0789 6.13044C12.2437 6.18959 12.4042 6.24452 12.569 6.30366C12.9197 6.42619 13.2872 6.55293 13.6421 6.6839C13.9505 6.8022 14.2505 6.81487 14.5547 6.72615C14.6603 6.69658 14.7702 6.667 14.8758 6.6332C15.0997 6.56983 15.3278 6.50646 15.5518 6.43886C15.6996 6.39239 15.7968 6.43041 15.8728 6.56983C16.5319 7.74012 17.3093 9.12165 18.0825 10.4736C18.1205 10.5285 18.1543 10.6004 18.1289 10.6764ZM20.9807 10.5454C20.9554 10.6299 20.8962 10.6975 20.799 10.7525C20.6723 10.8201 20.5498 10.8919 20.423 10.9595C20.1907 11.0904 19.9541 11.2214 19.7175 11.3482C19.6499 11.3862 19.5865 11.4031 19.5274 11.4031C19.4091 11.4031 19.3077 11.3355 19.2358 11.2087C19.164 11.0778 19.088 10.9468 19.0161 10.8158L18.4416 9.80186C17.6346 8.37808 16.8277 6.95007 16.0207 5.52206C15.9404 5.38264 15.9024 5.28125 15.9278 5.17985C15.9573 5.07845 16.0418 5.01508 16.1813 4.93903C16.4685 4.77849 16.8065 4.59259 17.1488 4.40247C17.4149 4.25883 17.5501 4.29685 17.7022 4.56302C17.7952 4.72779 17.8881 4.89256 17.9811 5.05733C18.0825 5.239 18.1838 5.42067 18.2895 5.59811C18.3021 5.61924 18.3148 5.63613 18.3275 5.65726L18.3359 5.66993C19.2063 7.21624 20.7441 9.93706 20.9216 10.2455C20.9892 10.3595 21.0061 10.4567 20.9807 10.5454Z" fill="#27282D"/>
<path id="Vector_2" d="M11.1409 1.7153C11.1409 1.94767 11.1409 2.19271 11.1409 2.4293C11.1409 2.54337 11.1113 2.64054 11.0564 2.70814C11.0015 2.77574 10.9254 2.81376 10.8282 2.81376C10.7437 2.81799 10.6677 2.78841 10.6128 2.73349C10.541 2.66589 10.5029 2.55605 10.5029 2.42508C10.5029 1.73642 10.5029 1.04777 10.5029 0.384463C10.5029 0.152095 10.6212 0.00422487 10.8156 0H10.824C10.9085 0 10.9803 0.0253491 11.031 0.0802725C11.0986 0.14787 11.1409 0.257717 11.1409 0.388688C11.1409 0.625281 11.1409 0.861874 11.1409 1.09847C11.1409 1.19986 11.1409 1.30549 11.1409 1.40688C11.1409 1.5125 11.1409 1.6139 11.1409 1.7153Z" fill="#27282D"/>
<path id="Vector_3" d="M8.28916 3.40079C8.28071 3.55711 8.20889 3.65428 8.06524 3.70076C7.91737 3.74723 7.79485 3.70076 7.70613 3.56556C7.59628 3.40079 7.49066 3.2318 7.38504 3.06703C7.34279 2.99943 7.30477 2.93606 7.26252 2.86846L7.0893 2.58962C6.92875 2.34035 6.76821 2.07841 6.60766 1.82491C6.53584 1.71084 6.51049 1.601 6.53162 1.50382C6.54852 1.42778 6.59499 1.36863 6.67104 1.32215C6.83581 1.22076 7.01748 1.27991 7.14 1.47847C7.36814 1.83759 7.60051 2.20515 7.8202 2.56004C7.95117 2.76706 8.08214 2.9783 8.21311 3.18532C8.27226 3.26982 8.29339 3.32897 8.28916 3.40079Z" fill="#27282D"/>
<path id="Vector_4" d="M15.0357 1.81672C14.647 2.43778 14.2963 2.99968 13.9625 3.52357C13.8611 3.67989 13.7259 3.74326 13.5781 3.70101C13.4344 3.65876 13.3499 3.53202 13.3499 3.3757V3.37147V3.36725C13.3457 3.3081 13.3837 3.2405 13.4302 3.16868C13.5316 3.01236 13.6288 2.85181 13.7302 2.69127C13.9794 2.29413 14.2372 1.88009 14.4949 1.47873C14.5667 1.36888 14.6554 1.29706 14.7526 1.27594C14.8286 1.25904 14.9047 1.27594 14.9765 1.32241C15.1371 1.43226 15.1624 1.61815 15.0357 1.81672Z" fill="#27282D"/>
</g>
</svg>
