<svg width="18" height="20" viewBox="0 0 18 20" fill="none" xmlns="http://www.w3.org/2000/svg">
<g id="Group">
<path id="Vector" d="M15.5718 2.86982H13.7686C13.7113 2.86982 13.6539 2.86163 13.5883 2.86163L13.2605 2.84524V2.28789C13.2113 1.01747 12.2359 0.042116 10.9819 0.0175272C9.62954 -0.00706158 8.28535 -0.00706157 6.98215 0.0257235C6.17892 0.042116 5.53961 0.410948 5.08062 1.14041C4.81834 1.55023 4.70359 2.01741 4.72818 2.61574L4.73637 2.86982H3.62988C3.46595 2.86982 3.29383 2.86163 3.12991 2.86163C2.84304 2.86163 2.56437 2.86982 2.2775 2.86982C1.63819 2.88622 1.08084 3.33701 0.966097 3.95173C0.900527 4.29597 0.916919 4.6648 0.941508 4.94348C0.974293 5.38608 1.20379 5.73851 1.6136 5.97621C1.86768 6.12374 1.91686 6.32864 1.92506 6.50896C2.01522 7.90233 2.11357 9.29569 2.20373 10.6972L2.35946 12.9512C2.47421 14.5331 2.58076 16.1068 2.68731 17.6887C2.77747 19.041 3.77741 19.9918 5.12979 20H12.49C12.6785 20 12.8671 20 13.0638 19.9918C14.1867 19.9508 15.1456 19.0656 15.2604 17.9837C15.3505 17.1067 15.4079 16.2051 15.4653 15.3363L15.7194 11.5906C15.8423 9.87762 15.957 8.16461 16.08 6.45159C16.0882 6.28766 16.2029 6.09915 16.3505 6.00899C16.7275 5.7713 16.957 5.46804 17.0308 5.08281C17.0799 4.86151 17.0799 4.61563 17.0799 4.37794C17.0717 3.46815 16.4816 2.87802 15.5718 2.86982ZM6.00679 1.43548C6.26907 1.13222 6.63791 0.960097 7.05591 0.9519C8.34273 0.935508 9.64593 0.935508 10.9327 0.9519C11.3508 0.960097 11.7278 1.13222 11.9819 1.43548C12.2605 1.75513 12.3753 2.19773 12.3015 2.64853L12.2687 2.85343H5.71992L5.68714 2.64853C5.62157 2.19773 5.73632 1.76333 6.00679 1.43548ZM14.9079 9.77107L14.6293 13.8118C14.5391 15.0822 14.4489 16.3445 14.367 17.6149C14.3178 18.4919 13.7277 19.0574 12.8589 19.0574C11.4819 19.0574 10.1049 19.0656 8.71976 19.0656C7.5231 19.0656 6.32645 19.0574 5.1216 19.0574C4.26919 19.0574 3.67906 18.4919 3.62168 17.6067C3.53972 16.3773 3.45776 15.1478 3.3676 13.9184L2.83484 6.1975L15.1456 6.18931L14.9079 9.77107ZM16.0062 5.09921C15.8587 5.24674 15.662 5.24674 15.3341 5.24674H2.4988C2.02341 5.24674 1.85129 5.08281 1.85129 4.60743C1.8431 4.27138 1.8431 4.09107 1.99063 3.94353C2.12997 3.8042 2.31848 3.8042 2.62994 3.8042H15.4899C15.9816 3.8042 16.1456 3.96812 16.1456 4.44351C16.1456 4.76316 16.1456 4.95987 16.0062 5.09921Z" fill="#666666"/>
<path id="Vector_2" d="M6.61352 16.2215C6.62172 16.4264 6.4496 16.6559 6.15453 16.6641C5.90864 16.6641 5.69554 16.4674 5.67095 16.1396L5.22835 9.56618C5.22016 9.41045 5.20377 9.25472 5.19557 9.09079C5.18737 8.82851 5.37589 8.60721 5.62178 8.59082H5.66276C5.92504 8.59082 6.10535 8.75475 6.12175 9.00883C6.20371 10.0498 6.26928 11.0907 6.34305 12.1316L6.61352 16.2215Z" fill="#666666"/>
<path id="Vector_3" d="M12.7934 9.09081C12.7114 10.3858 12.6213 11.6726 12.5311 12.9676L12.4081 14.8118C12.3754 15.2544 12.3508 15.7052 12.318 16.1478C12.3016 16.451 12.1131 16.6641 11.8754 16.6641H11.8344C11.7033 16.6641 11.5885 16.6068 11.5066 16.5166C11.4246 16.4183 11.3754 16.2789 11.3918 16.1232C11.4574 15.0085 11.5311 13.8938 11.6049 12.7791L11.7115 11.2874C11.7606 10.5252 11.8098 9.7629 11.8672 9.00065C11.8836 8.76296 12.0557 8.57444 12.3262 8.59084C12.4573 8.59084 12.5803 8.64002 12.6704 8.73017C12.7606 8.82853 12.8016 8.95147 12.7934 9.09081Z" fill="#666666"/>
<path id="Vector_4" d="M9.46601 9.0826V16.1806C9.46601 16.3937 9.37585 16.533 9.18733 16.6232C9.12176 16.6559 9.05619 16.6723 8.99062 16.6723C8.89227 16.6723 8.80211 16.6395 8.71195 16.5658C8.58081 16.4674 8.52344 16.3363 8.52344 16.115C8.53163 14.4593 8.53163 12.8037 8.53163 11.1399V9.0826C8.53163 8.78753 8.72015 8.59082 8.99882 8.59082C8.99882 8.59082 8.99882 8.59082 9.00702 8.59082C9.2693 8.59082 9.46601 8.79573 9.46601 9.0826Z" fill="#666666"/>
</g>
</svg>
