<svg width="19" height="19" viewBox="0 0 19 19" fill="none" xmlns="http://www.w3.org/2000/svg">
<g id="Group">
<path id="Union" fill-rule="evenodd" clip-rule="evenodd" d="M0.763152 6.93768V5.45394C0.763152 3.9628 0.763152 2.42356 0.759452 0.917624C0.755752 0.444012 0.948157 0.144304 1.35147 0.0037001H1.35887L17.1916 0C17.5986 0.144304 17.7873 0.436612 17.7873 0.917624C17.7836 2.97858 17.7836 5.07283 17.7836 7.10049V9.15404C17.7836 9.26874 17.7836 9.62765 17.4617 9.63135H17.458C17.3692 9.63135 17.2989 9.60545 17.2471 9.55365C17.1694 9.47595 17.1324 9.35015 17.1324 9.15774V0.891723V0.891695C17.1324 0.762209 17.1324 0.688216 17.1065 0.662317C17.0806 0.636417 17.0066 0.636417 16.8771 0.636417H1.65858C1.53277 0.636417 1.46617 0.640117 1.44027 0.666018C1.41437 0.691918 1.41437 0.76222 1.41437 0.888023V9.10964C1.41437 9.16884 1.41067 9.26504 1.39587 9.35755C1.36627 9.52405 1.25156 9.61655 1.07766 9.61285C0.918556 9.61285 0.803853 9.51295 0.770552 9.34645C0.763152 9.28724 0.763152 9.23174 0.763152 9.17624V6.93768ZM17.9279 17.0205C18.2831 17.0205 18.5347 17.2647 18.5495 17.631C18.5569 17.89 18.5569 18.1268 18.5421 18.3562C18.531 18.7521 18.2794 18.9963 17.8798 18.9963H15.9335H14.9604H9.27337H9.26904C6.46571 18.9963 3.57005 18.9963 0.722444 19C0.441237 19 0.252532 18.9149 0.119328 18.7373C0.0416261 18.6374 0.00462512 18.5264 0.00462512 18.3969C0.00462512 18.3544 0.0037001 18.3118 0.00277507 18.2693C0.00185005 18.2267 0.000925026 18.1841 0.000925026 18.1416C0.000925026 18.1002 0.000696303 18.0583 0.000466324 18.0163C-0.000228695 17.8891 -0.000935187 17.7598 0.00462512 17.6347C0.0157254 17.2684 0.278432 17.0168 0.637342 17.0242C0.700243 17.0279 0.740945 17.0168 0.763145 16.9983C0.789046 16.9761 0.792746 16.928 0.792746 16.8577C0.789046 14.8337 0.789046 12.7728 0.789046 10.7821V10.7266C0.789046 10.7144 0.788644 10.7018 0.788237 10.6891C0.78741 10.6632 0.786566 10.6367 0.789046 10.6119C0.800146 10.4306 0.914849 10.3085 1.07765 10.3048H1.08505C1.23676 10.3048 1.36256 10.4306 1.38106 10.6008C1.38476 10.6489 1.38476 10.697 1.38476 10.7414V10.7895V12.2991C1.38476 13.7829 1.38476 15.3184 1.38106 16.8281C1.38106 16.9169 1.39216 16.9687 1.42176 16.9946C1.45136 17.0205 1.49946 17.0279 1.58457 17.0205C1.74367 17.0057 1.91388 17.0057 2.12478 17.0205C2.18398 17.0242 2.22098 17.0168 2.23948 16.9983C2.25798 16.9798 2.26168 16.9428 2.25428 16.8873V16.8096V16.7726V1.95737C2.25428 1.55036 2.31349 1.48746 2.7279 1.48746H15.8299C15.9113 1.48746 15.9927 1.48746 16.0742 1.50226C16.2 1.52076 16.2814 1.60586 16.2962 1.73536C16.3073 1.81675 16.3073 1.89814 16.3073 1.97953V1.97957C16.3073 6.8489 16.3073 11.881 16.3036 16.8318C16.3036 16.928 16.3147 16.9761 16.3443 17.002C16.3702 17.0242 16.4183 17.0316 16.4923 17.0242C16.6847 17.0057 16.8808 17.0131 17.051 17.0242C17.1065 17.0242 17.1398 17.0168 17.1546 17.002C17.1731 16.9835 17.1768 16.9502 17.1768 16.8984C17.1712 16.7176 17.1719 16.5326 17.1726 16.3513C17.1728 16.2914 17.1731 16.2319 17.1731 16.1731V15.8808V10.7636C17.1731 10.6711 17.1805 10.5971 17.1916 10.5379C17.2138 10.3936 17.3211 10.3048 17.4691 10.3048H17.4802C17.6282 10.3048 17.7318 10.3973 17.7614 10.549C17.7688 10.6082 17.7688 10.6637 17.7688 10.7192V10.7599C17.7688 12.758 17.7688 14.8226 17.7651 16.854C17.7651 16.9243 17.7688 16.9687 17.7947 16.9946C17.8132 17.0131 17.8539 17.0205 17.9205 17.0205H17.9279ZM15.6984 2.25909C15.6845 2.26113 15.6758 2.2624 15.6671 2.26818L14.8124 2.67519L14.0886 3.01751L14.0873 3.01817C13.4332 3.32755 12.7693 3.6416 12.1113 3.95172C12.0188 3.99242 12.0188 4.04792 12.0188 4.13303V4.14783C12.0188 7.89973 12.0188 11.7811 12.0151 15.5959C12.0151 15.7143 12.0484 15.7624 12.1594 15.8031C13.1044 16.1507 14.0616 16.5106 14.9918 16.8604L15.2601 16.9613C15.3341 16.9909 15.4118 16.9983 15.4895 17.0057H15.4895C15.4936 17.0067 15.4979 17.0074 15.5024 17.008L15.5154 17.0095C15.5238 17.0104 15.5325 17.0113 15.5413 17.0131C15.6079 17.0242 15.6523 17.0168 15.6782 16.9946C15.7041 16.9724 15.7152 16.9243 15.7152 16.8318C15.7115 12.0253 15.7115 7.13751 15.7115 2.41248V2.25708L15.6984 2.25909ZM14.6126 2.10907C14.6385 2.10167 14.6607 2.09057 14.6792 2.07947H3.88603C3.90554 2.08923 3.92197 2.09796 3.93748 2.1062L3.93751 2.10622L3.93752 2.10622C3.95141 2.1136 3.96456 2.12059 3.97853 2.12757C4.29083 2.27551 4.58756 2.4163 4.87208 2.5513L4.87228 2.5514L4.8728 2.55165L4.87524 2.5528L4.87597 2.55315C5.55058 2.87325 6.15656 3.16078 6.7388 3.43371C7.00891 3.55951 7.13101 3.74822 7.13101 4.04792C7.12731 7.93303 7.12731 11.8847 7.12731 15.7032C7.12731 16.0658 7.03111 16.2027 6.6833 16.3322C6.58901 16.3674 6.49565 16.4025 6.40229 16.4376L6.402 16.4377C6.3086 16.4729 6.21521 16.508 6.12089 16.5432L6.05493 16.5676L6.05468 16.5676C5.70552 16.6968 5.34752 16.8293 4.99606 16.965C4.98126 16.9724 4.96646 16.9761 4.95166 16.9798C4.94279 16.9831 4.93392 16.9861 4.92514 16.989C4.90465 16.996 4.88469 17.0027 4.86655 17.0131H13.6728C13.6617 17.0094 13.6515 17.0057 13.6413 17.002C13.6312 16.9983 13.621 16.9946 13.6099 16.9909C13.3213 16.8799 13.0364 16.7726 12.7478 16.6653C12.4629 16.5543 12.1779 16.447 11.8893 16.3396C11.5082 16.1953 11.4268 16.0769 11.4268 15.6699V12.7691C11.4268 12.0645 11.4271 11.3541 11.4273 10.6399V10.6377V10.6354V10.6331V10.6308C11.428 8.46374 11.4287 6.26261 11.4231 4.08863C11.4231 3.75562 11.5489 3.55581 11.8449 3.41891C12.4046 3.16038 12.9742 2.88935 13.5312 2.62432L13.5314 2.62422L13.5315 2.62422L13.5318 2.62407L13.5318 2.62407L13.8911 2.45318C14.1205 2.34218 14.3462 2.23488 14.5719 2.12757L14.5828 2.1219C14.5927 2.1166 14.6016 2.11182 14.6126 2.10907ZM2.84342 16.9095C2.84424 16.9243 2.84507 16.9391 2.8426 16.9539C2.8389 16.9798 2.8426 16.9983 2.8537 17.0057C2.8611 17.0131 2.8759 17.0168 2.8981 17.0168H2.9832C3.08681 17.0168 3.18671 17.0168 3.28661 16.9798L3.30141 16.9724C3.62236 16.8522 3.94662 16.7301 4.27268 16.6074L4.27349 16.6071C4.98091 16.3408 5.69682 16.0713 6.40579 15.8105C6.5131 15.7698 6.5427 15.7254 6.5427 15.6144C6.539 11.8107 6.539 7.95153 6.5427 4.14783C6.5427 4.04052 6.5094 3.98872 6.40579 3.94062C6.1651 3.82619 5.92125 3.71072 5.67874 3.59587L5.67835 3.59568L5.67778 3.59541L5.67664 3.59488C5.46503 3.49466 5.25444 3.39493 5.04786 3.29681C4.8869 3.22095 4.72502 3.14418 4.56315 3.0674C4.40127 2.99062 4.23939 2.91385 4.07843 2.83799C3.89713 2.75289 3.71952 2.66779 3.53452 2.57899C3.45498 2.54118 3.37499 2.5029 3.29438 2.46434L3.29411 2.46421L3.29409 2.4642C3.14603 2.39336 2.99586 2.32152 2.8426 2.24968V16.8577V16.8873C2.8426 16.8947 2.84301 16.9021 2.84342 16.9095ZM17.8576 18.3969C17.8983 18.4006 17.9279 18.3932 17.9427 18.3784C17.9575 18.3636 17.9649 18.3303 17.9649 18.2822V17.9862V17.8382C17.9649 17.7198 17.9649 17.6532 17.939 17.6273C17.9131 17.6014 17.8502 17.6014 17.7318 17.6014H1.17016H1.02215C0.92595 17.6051 0.826047 17.6051 0.726144 17.6014C0.670643 17.5977 0.637342 17.6051 0.615141 17.6273C0.592941 17.6495 0.58554 17.6865 0.589241 17.7457C0.594808 17.8208 0.594093 17.9002 0.593397 17.9774C0.593168 18.0028 0.592941 18.028 0.592941 18.0528V18.1749C0.592941 18.2896 0.592941 18.3525 0.615141 18.3747C0.637342 18.3969 0.700244 18.3969 0.811246 18.3969H17.7244H17.7688C17.7786 18.3969 17.7884 18.3965 17.7983 18.3961L17.7984 18.3961C17.8181 18.3953 17.8379 18.3944 17.8576 18.3969ZM12.9365 15.3887C13.3176 15.533 13.7061 15.6884 14.0761 15.8401C14.2648 15.9178 14.4535 15.9918 14.6422 16.0658C14.7273 16.0991 14.8087 16.1176 14.879 16.1176C14.9493 16.1176 15.0122 16.0991 15.0603 16.0658C15.1639 15.9955 15.2157 15.8586 15.2157 15.6662V10.3899C15.2157 10.0532 15.0899 9.93106 14.7569 9.93106L13.0586 9.95326C12.7552 9.95696 12.6368 10.0791 12.6368 10.3862V11.5258V11.5267C12.6368 12.6475 12.6368 13.8054 12.6331 14.9447C12.6331 15.1741 12.7219 15.3073 12.9365 15.3887ZM13.2214 10.6526C13.2214 10.5527 13.2399 10.5305 13.3324 10.5305C13.6839 10.5342 14.0724 10.5305 14.5127 10.5231C14.6015 10.5231 14.6274 10.5268 14.6274 10.623V15.385C14.6274 15.3904 14.6254 15.3958 14.6229 15.4027L14.62 15.4109C14.2463 15.2592 13.7616 15.0668 13.2806 14.8818C13.215 14.8563 13.2176 14.82 13.2212 14.7694L13.2214 14.7671C13.2214 14.7597 13.2223 14.7532 13.2232 14.7467C13.2241 14.7403 13.2251 14.7338 13.2251 14.7264V12.2362V11.8403C13.2251 11.4518 13.2251 11.0485 13.2214 10.6526ZM12.6368 9.11704V8.05142V8.05101C12.6368 7.00401 12.6368 5.92002 12.6294 4.85453C12.6294 4.62143 12.7145 4.48082 12.9217 4.38092C13.325 4.18481 13.7357 3.98131 14.1316 3.7815L14.1317 3.78147C14.2834 3.70378 14.4351 3.62609 14.5867 3.5521C14.7792 3.4559 14.9346 3.44109 15.0456 3.5077C15.1603 3.578 15.2158 3.726 15.2158 3.94801V9.13554C15.2158 9.48705 15.1011 9.60546 14.7533 9.60546C14.2019 9.60546 13.6469 9.60176 13.1104 9.59806C12.7515 9.59436 12.6368 9.47965 12.6368 9.11704ZM13.325 4.84713C13.2473 4.88413 13.2214 4.92483 13.2214 5.00254C13.2251 6.29387 13.2251 7.6037 13.2177 8.89874C13.2177 9.00234 13.251 9.00604 13.3435 9.00604C13.5137 9.00234 13.6838 9.00234 13.854 9.00234H13.8541C14.0687 9.00234 14.2796 9.00604 14.4905 9.01344C14.5497 9.01344 14.5867 9.00604 14.6052 8.98754C14.6237 8.96904 14.6311 8.93204 14.6311 8.86174C14.6274 8.29932 14.6274 7.72581 14.6274 7.17079V6.60838V6.04226C14.6274 5.90442 14.6272 5.76521 14.627 5.62509C14.6263 5.201 14.6256 4.76852 14.6311 4.34022C14.6311 4.25142 14.62 4.22922 14.6089 4.22182C14.5904 4.21072 14.5238 4.24402 14.4905 4.26252C14.0983 4.46602 13.6987 4.66583 13.325 4.84713ZM3.49391 16.0695C3.54571 16.1028 3.60491 16.1213 3.67521 16.1213C3.74181 16.1213 3.81951 16.1065 3.90092 16.0732C4.00534 16.0321 4.11044 15.9903 4.21506 15.9487C4.35511 15.893 4.49429 15.8376 4.62983 15.7846C4.7227 15.7477 4.81647 15.7102 4.91088 15.6724L4.91112 15.6723L4.91149 15.6721C5.14792 15.5775 5.38839 15.4812 5.62886 15.3887C5.83237 15.311 5.92117 15.1815 5.92117 14.9595C5.91747 14.1973 5.91747 13.4203 5.91747 12.6728V10.3862C5.91747 10.0902 5.79537 9.96808 5.50306 9.96068C4.92954 9.94958 4.35233 9.94218 3.78621 9.93848C3.62341 9.93848 3.51241 9.96808 3.4421 10.0384C3.3718 10.1087 3.3385 10.2197 3.3385 10.3862V15.681C3.3385 15.8623 3.3903 15.9992 3.49391 16.0695ZM4.03412 10.5268C4.47443 10.5342 4.85924 10.5379 5.21445 10.5342C5.31435 10.5342 5.33285 10.5527 5.33285 10.6489C5.32915 12.0141 5.32915 13.4014 5.32915 14.7444V14.7449V14.7745C5.33285 14.83 5.33285 14.8596 5.27365 14.8818C4.97394 14.9965 4.68534 15.1112 4.37453 15.237L4.37447 15.237C4.22649 15.2962 4.0785 15.3554 3.92682 15.4146V15.4143C3.92682 13.7679 3.92682 12.2065 3.92312 10.623C3.92312 10.5379 3.94532 10.5268 4.03412 10.5268ZM5.46597 9.59807C4.91096 9.60177 4.34114 9.60547 3.76763 9.60547C3.46052 9.60547 3.33842 9.48336 3.33472 9.16145V3.92212C3.33472 3.72231 3.39022 3.57801 3.50122 3.51141C3.60852 3.4448 3.76023 3.4522 3.93783 3.54101C4.05253 3.59836 4.16631 3.65571 4.28008 3.71306C4.39386 3.77041 4.50764 3.82776 4.62235 3.88512C4.7916 3.96881 4.96366 4.05438 5.13664 4.1404C5.30778 4.22551 5.47984 4.31108 5.65098 4.39573C5.83598 4.48453 5.91738 4.61773 5.91738 4.82864C5.91368 5.90893 5.91368 7.00402 5.91368 8.06582V8.06623V9.14665C5.91368 9.47226 5.79158 9.59437 5.46597 9.59807ZM3.94501 4.21675C3.94396 4.21749 3.94307 4.21812 3.94153 4.21812C3.93413 4.22552 3.92303 4.24773 3.92673 4.32543C3.93043 4.89521 3.93043 5.47238 3.93043 6.03106V6.03117V6.59729V6.59743C3.93043 7.34851 3.93043 8.12548 3.92673 8.88765C3.92673 8.93945 3.93043 8.97275 3.94893 8.99125C3.96373 9.00605 3.99333 9.00975 4.03774 9.00975C4.38184 8.99865 4.75185 8.99865 5.23657 9.00235C5.32167 9.00235 5.33277 8.97645 5.33277 8.88765C5.32907 7.60001 5.32907 6.29388 5.33277 5.00994C5.33277 4.92114 5.30687 4.88044 5.22547 4.83974C4.76295 4.61404 4.38554 4.42533 4.04144 4.24773C3.98963 4.22182 3.96373 4.21442 3.95263 4.21442C3.9483 4.21442 3.9465 4.21569 3.94501 4.21675Z" fill="#27282D"/>
</g>
</svg>
