<svg width="25" height="25" viewBox="0 0 25 25" fill="none" xmlns="http://www.w3.org/2000/svg">
<g id="Group">
<path id="Vector" d="M11.8841 10.5864C11.8841 10.4682 11.8841 10.3662 11.8841 10.2641C11.8841 7.24118 11.8841 4.21824 11.8841 1.1958C11.8841 0.728515 12.0032 0.611328 12.4778 0.611328C16.4559 0.611328 20.4343 0.611328 24.4124 0.611328C24.8811 0.611328 24.9998 0.730468 24.9998 1.20263C24.9998 8.73433 24.9998 16.2655 24.9998 23.7972C24.9998 24.2694 24.8806 24.389 24.4128 24.3895C20.0164 24.3895 15.6199 24.3895 11.223 24.3895C10.8035 24.3895 10.7078 24.3124 10.6092 23.9003C10.5184 23.5209 10.4276 23.1415 10.3358 22.7587C8.35628 22.7587 6.39438 22.7587 4.4149 22.7587C4.32115 23.1508 4.22984 23.5389 4.1356 23.9262C4.04332 24.3055 3.93785 24.389 3.55211 24.3895C3.22789 24.39 2.90318 24.391 2.57897 24.3895C2.182 24.3876 2.0487 24.2509 2.04723 23.8456C2.04626 23.5126 2.05553 23.1791 2.04088 22.8466C2.03747 22.7665 1.97448 22.6566 1.90612 22.6176C1.44714 22.3559 1.22546 21.9672 1.22643 21.4423C1.22839 20.5287 1.22351 19.6147 1.23083 18.7011C1.23229 18.5468 1.18981 18.4623 1.05017 18.3822C0.357787 17.9833 -0.007934 17.3759 -0.000121539 16.5741C0.00769092 15.7836 0.377318 15.1855 1.06726 14.8032C1.22839 14.7138 1.2572 14.622 1.22741 14.4618C1.17956 14.2021 1.14538 13.9394 1.10827 13.6777C0.906612 12.2514 1.7694 10.9091 3.16051 10.5112C6.04917 9.6855 8.93294 9.68355 11.8079 10.5859C11.8231 10.5903 11.8411 10.5864 11.8841 10.5864ZM18.8636 20.2719C20.6433 20.2719 22.4046 20.2719 24.1604 20.2719C24.1604 14.9399 24.1604 9.62593 24.1604 4.31443C22.3855 4.31443 20.6301 4.31443 18.8636 4.31443C18.8636 9.6357 18.8636 14.9433 18.8636 20.2719ZM18.0203 5.95896C16.2395 5.95896 14.4783 5.95896 12.7137 5.95896C12.7093 6.01023 12.7044 6.04343 12.7044 6.07712C12.7039 7.70797 12.7015 9.33882 12.7098 10.9697C12.7103 11.0717 12.7767 11.1928 12.8494 11.2714C13.4632 11.9374 13.742 12.7133 13.6346 13.6176C13.5926 13.9726 13.5335 14.3251 13.4832 14.6738C13.4998 14.6923 13.5086 14.7099 13.5223 14.7162C15.1375 15.4521 15.1375 17.6669 13.6302 18.432C13.5731 18.4608 13.5452 18.5463 13.4817 18.6366C15.0296 18.6366 16.5193 18.6366 18.0208 18.6366C18.0203 14.4076 18.0203 10.1928 18.0203 5.95896ZM12.6663 14.5297C12.7117 14.2426 12.7664 13.9506 12.8026 13.6562C12.951 12.4453 12.3812 11.559 11.1956 11.2661C10.3626 11.0605 9.51399 10.8916 8.66243 10.7958C6.85287 10.5927 5.06919 10.79 3.32945 11.3251C2.62731 11.541 2.18395 12.0375 1.98376 12.747C1.81139 13.3578 2.0194 13.9413 2.08141 14.5405C2.6444 14.5839 3.11803 14.7704 3.50181 15.1576C3.89146 15.5507 4.07115 16.0356 4.10582 16.5868C6.29135 16.5868 8.46322 16.5868 10.6336 16.5868C10.7449 15.3818 11.4974 14.6533 12.6663 14.5297ZM12.7034 18.6728C12.3929 18.5541 12.2757 18.4125 12.2977 18.1991C12.3216 17.9696 12.4725 17.8564 12.7952 17.8256C13.5374 17.7543 14.0589 17.0697 13.908 16.3647C13.7752 15.7431 13.222 15.3232 12.6028 15.374C11.9764 15.4247 11.4857 15.9443 11.4774 16.5898C11.4671 17.3666 11.4749 18.144 11.4739 18.9208C11.4735 19.3373 11.3406 19.4691 10.9207 19.4691C8.55599 19.4696 6.19077 19.4696 3.82603 19.4691C3.40855 19.4691 3.27769 19.3368 3.27721 18.9164C3.27574 18.1308 3.28941 17.3446 3.26988 16.5595C3.25719 16.0448 2.99107 15.6684 2.51354 15.4687C2.04479 15.2724 1.6029 15.353 1.22839 15.6918C0.853878 16.0307 0.73425 16.4599 0.872921 16.9491C1.0155 17.4521 1.44177 17.7807 2.0111 17.8251C2.24547 17.8437 2.41051 17.9433 2.44762 18.1776C2.48522 18.4145 2.35631 18.5653 2.13415 18.64C2.10485 18.6498 2.07653 18.661 2.04723 18.6723C2.04723 19.579 2.04674 20.4672 2.04723 21.3549C2.04772 21.8065 2.17077 21.9286 2.62633 21.9286C4.61558 21.9291 6.60483 21.9286 8.59408 21.9286C9.79768 21.9286 11.0018 21.9296 12.2054 21.9276C12.5355 21.9271 12.7 21.7831 12.7015 21.4779C12.7068 20.5482 12.7034 19.6181 12.7034 18.6728ZM12.7039 23.5507C16.5467 23.5507 20.3572 23.5507 24.1677 23.5507C24.1677 22.7328 24.1677 21.9335 24.1677 21.1244C20.6179 21.1244 17.0808 21.1244 13.5237 21.1244C13.5237 21.2484 13.5232 21.3573 13.5237 21.4667C13.5262 21.8656 13.4144 22.2631 13.0687 22.4418C12.6702 22.6478 12.6873 22.9423 12.7029 23.2807C12.7073 23.3646 12.7039 23.4491 12.7039 23.5507ZM24.1692 1.4497C20.3362 1.4497 16.5267 1.4497 12.7166 1.4497C12.7166 2.13085 12.7166 2.79345 12.7166 3.46678C16.5389 3.46678 20.3484 3.46678 24.1692 3.46678C24.1692 2.79052 24.1692 2.12792 24.1692 1.4497ZM4.10826 18.6317C6.29916 18.6317 8.46956 18.6317 10.6336 18.6317C10.6336 18.2182 10.6336 17.8227 10.6336 17.4325C8.44857 17.4325 6.28452 17.4325 4.10826 17.4325C4.10826 17.8354 4.10826 18.2245 4.10826 18.6317ZM18.0198 4.31834C16.2395 4.31834 14.4793 4.31834 12.7239 4.31834C12.7239 4.5952 12.7239 4.85398 12.7239 5.10789C14.4988 5.10789 16.2532 5.10789 18.0198 5.10789C18.0198 4.84275 18.0198 4.58982 18.0198 4.31834ZM18.0203 19.4872C16.513 19.4872 15.0257 19.4872 13.5442 19.4872C13.5442 19.7641 13.5442 20.0229 13.5442 20.2763C15.0462 20.2763 16.5271 20.2763 18.0203 20.2763C18.0203 20.0111 18.0203 19.7582 18.0203 19.4872ZM3.36949 23.5634C3.4359 23.2899 3.4984 23.0307 3.56236 22.767C3.31432 22.767 3.09752 22.767 2.88707 22.767C2.88707 23.0438 2.88707 23.3026 2.88707 23.5634C3.05064 23.5634 3.19469 23.5634 3.36949 23.5634ZM11.1824 22.7577C11.2552 23.0448 11.3206 23.3046 11.3836 23.5556C11.5623 23.5556 11.7122 23.5556 11.8675 23.5556C11.8675 23.2831 11.8675 23.0248 11.8675 22.7577C11.6414 22.7577 11.431 22.7577 11.1824 22.7577Z" fill="#27282D"/>
<path id="Vector_2" d="M20.4904 12.1157C20.4904 12.3721 20.4962 12.6284 20.4889 12.8843C20.4811 13.146 20.3131 13.3183 20.0812 13.3183C19.8492 13.3183 19.6774 13.146 19.674 12.8843C19.6676 12.355 19.6676 11.8252 19.674 11.2959C19.6774 11.0337 19.8483 10.8623 20.0812 10.8623C20.3136 10.8623 20.4821 11.0337 20.4889 11.2959C20.4962 11.5688 20.4904 11.8423 20.4904 12.1157Z" fill="#27282D"/>
</g>
</svg>
