<svg width="18" height="18" viewBox="0 0 18 18" fill="none" xmlns="http://www.w3.org/2000/svg">
<g id="Group">
<path id="Vector" d="M17.7715 14.4352C17.6098 14.2664 17.3742 14.1785 17.0965 14.1785H17.093C13.7813 14.1891 10.4133 14.1855 7.15781 14.1855C6.13828 14.1855 5.11875 14.1855 4.09922 14.1855C3.82148 14.1855 3.81094 14.175 3.81094 13.9008C3.81094 12.9129 3.81094 11.925 3.81094 10.9371C3.81094 7.66055 3.81094 4.27148 3.81797 0.938672C3.81797 0.446484 3.62813 0.147656 3.2168 0.00351563L3.20625 0H0.611719H0.601172C0.267188 0.0632812 0.0632813 0.267188 0 0.604688V17.3953L0.00351563 17.4059C0.158203 17.8031 0.428906 18 0.836719 18C4.74258 17.9965 8.71172 17.9965 12.5508 17.9965C14.0906 17.9965 15.6305 17.9965 17.1668 17.9965C17.6766 17.9965 17.9895 17.6801 17.993 17.1738C17.993 16.9559 17.993 16.7344 17.9895 16.5164C17.9859 16.0488 17.9824 15.5672 18 15.0961C18.0105 14.8289 17.9297 14.6004 17.7715 14.4352ZM5.18203 14.8395C5.19961 14.857 5.20313 14.8992 5.19961 14.966C5.18555 15.1418 5.18906 15.3176 5.19258 15.4898C5.19258 15.532 5.19609 15.5742 5.19609 15.6164C5.19961 15.8203 5.31914 15.9609 5.49844 15.9645C5.58281 15.968 5.65664 15.9398 5.71641 15.8836C5.7832 15.8203 5.82188 15.7254 5.82539 15.6129C5.82891 15.3668 5.82891 15.1172 5.82539 14.8781C5.82539 14.8324 5.82891 14.8219 5.83242 14.8219C5.83242 14.8219 5.84297 14.8113 5.88516 14.8148C6.18047 14.8219 6.49336 14.8219 6.81328 14.8148C6.85195 14.8148 6.85899 14.8219 6.85899 14.8219C6.85899 14.8219 6.86602 14.8289 6.8625 14.8711C6.85547 15.0258 6.85547 15.1664 6.8625 15.2965C6.87305 15.4969 7.00664 15.6305 7.18945 15.6234C7.36172 15.6164 7.48125 15.4863 7.48828 15.293C7.49531 15.1523 7.49531 15.0152 7.48828 14.8887C7.48477 14.843 7.4918 14.8324 7.49531 14.8289C7.49531 14.8289 7.50586 14.8184 7.54805 14.8219C7.875 14.8289 8.17735 14.8289 8.47617 14.8219C8.51484 14.8219 8.52539 14.8289 8.52539 14.8289C8.52891 14.8324 8.53242 14.8465 8.53242 14.8922C8.52891 15.1242 8.52891 15.3562 8.53242 15.5918C8.53242 15.8238 8.65195 15.968 8.8418 15.975C8.92617 15.9785 8.99649 15.9504 9.05274 15.8977C9.12305 15.8309 9.16172 15.7219 9.16172 15.5883V15.4758C9.16172 15.2824 9.16524 15.082 9.1582 14.8887C9.1582 14.8465 9.16524 14.8359 9.16524 14.8324C9.16875 14.8289 9.1793 14.8219 9.22149 14.8254C9.51328 14.8289 9.81563 14.8289 10.1496 14.8254C10.1953 14.8254 10.1988 14.8324 10.1988 14.8324C10.1988 14.8324 10.2059 14.8395 10.2023 14.8781C10.1953 15.0012 10.1953 15.1383 10.2023 15.3C10.2094 15.5004 10.3395 15.6375 10.5223 15.634C10.6945 15.6305 10.8176 15.5004 10.8281 15.307C10.8281 15.2895 10.8281 15.2719 10.8281 15.2543C10.8281 15.2367 10.8281 15.2191 10.8281 15.2051C10.8316 15.1523 10.8246 15.0996 10.8211 15.0469C10.8105 14.9625 10.8035 14.8746 10.8387 14.843C10.8844 14.8078 10.9863 14.8148 11.0777 14.8219C11.1234 14.8254 11.1691 14.8289 11.2113 14.8289C11.2816 14.8289 11.3555 14.8289 11.4258 14.8289C11.5523 14.8289 11.6789 14.8324 11.809 14.8254C11.8547 14.8219 11.8652 14.8324 11.8688 14.8324C11.8723 14.8359 11.8793 14.85 11.8793 14.8992C11.8723 15.1172 11.8758 15.3387 11.8758 15.5531V15.6164C11.8793 15.8309 12.0023 15.975 12.1852 15.975C12.3715 15.975 12.498 15.8309 12.5016 15.6164V15.525C12.5051 15.3246 12.5086 15.1207 12.498 14.9168C12.4945 14.8605 12.5051 14.843 12.5086 14.8359C12.5227 14.8219 12.5789 14.8219 12.6 14.8219C12.8707 14.8289 13.1555 14.8289 13.4402 14.8219C13.4578 14.8219 13.5176 14.8184 13.5316 14.8359C13.5387 14.843 13.5457 14.8605 13.5422 14.9133C13.5316 15.0434 13.5352 15.1734 13.5422 15.3035V15.3211C13.5492 15.4934 13.6512 15.6023 13.827 15.6234C13.9078 15.634 13.9852 15.6094 14.0484 15.5602C14.1117 15.5074 14.1539 15.4301 14.1609 15.3422C14.175 15.1945 14.1715 15.0434 14.168 14.8957V14.8641C14.168 14.8289 14.1715 14.8219 14.1715 14.8219C14.1715 14.8219 14.1785 14.8148 14.2102 14.8184C14.5898 14.8219 14.8816 14.8219 15.1559 14.8184C15.1945 14.8184 15.2016 14.8254 15.2016 14.8254C15.2016 14.8254 15.2086 14.8324 15.2086 14.8781C15.2051 15.1313 15.2016 15.3809 15.2086 15.6305C15.2121 15.7641 15.2789 15.8801 15.3809 15.9363C15.4758 15.9891 15.5848 15.982 15.6797 15.9258C15.7816 15.8625 15.8344 15.7641 15.8344 15.6305C15.8344 15.5461 15.8344 15.4582 15.8344 15.3738C15.8344 15.2191 15.8344 15.0574 15.8309 14.8957C15.8309 14.85 15.8379 14.8359 15.8414 14.8324C15.8449 14.8289 15.859 14.8219 15.9047 14.8219C16.3441 14.8289 16.7941 14.8254 17.1809 14.8219H17.1844C17.2477 14.8219 17.2934 14.8359 17.3215 14.8641C17.3496 14.8922 17.3637 14.9379 17.3637 15.0047C17.3637 15.3352 17.3637 15.6656 17.3637 15.9961C17.3637 16.3934 17.3637 16.7906 17.3637 17.1879C17.3637 17.3355 17.3215 17.3742 17.1738 17.3742C16.7906 17.3742 16.4074 17.3742 16.0242 17.3742H15.5672H1.06875L1.58555 16.8574C2.27461 16.1684 2.95313 15.4934 3.62813 14.8184C3.63164 14.8148 3.63867 14.8078 3.64219 14.8043C3.6668 14.7797 3.67383 14.7727 3.69844 14.7762C4.01836 14.843 4.34531 14.8324 4.6582 14.8219C4.78477 14.8184 4.91836 14.8148 5.04844 14.8148C5.12227 14.8113 5.16445 14.8184 5.18203 14.8395ZM0.629297 4.33125V4.01133C0.632813 3.97969 0.632813 3.94805 0.629297 3.92344C0.629297 2.91094 0.629297 1.89492 0.629297 0.882422C0.629297 0.653906 0.650391 0.632812 0.882422 0.632812C1.56797 0.632812 2.25703 0.632812 2.94258 0.632812C3.15703 0.632812 3.18164 0.657422 3.18164 0.878906C3.18164 0.987891 3.18164 1.09336 3.18164 1.20234C3.18164 1.43438 3.18164 1.67344 3.18516 1.9125C3.18516 1.96523 3.17813 1.98281 3.17461 1.98633C3.17109 1.98984 3.15703 1.99687 3.10781 1.99687C2.89688 1.98984 2.68242 1.98984 2.475 1.99336H2.39063C2.27813 1.99336 2.17969 2.03203 2.11641 2.09531C2.06016 2.15156 2.03203 2.22539 2.03555 2.30977C2.03906 2.49258 2.1832 2.61914 2.39766 2.61914C2.62969 2.62266 2.8793 2.62266 3.13242 2.61914C3.17109 2.61914 3.17813 2.62617 3.18164 2.62617C3.18164 2.62617 3.18867 2.6332 3.18867 2.67539C3.18516 3.00234 3.18516 3.30469 3.18867 3.60352C3.18867 3.6457 3.18164 3.65625 3.17813 3.65977C3.17461 3.66328 3.16406 3.67031 3.12188 3.6668C3.00234 3.65977 2.87227 3.65977 2.71406 3.6668C2.51016 3.67383 2.37656 3.80039 2.37656 3.9832C2.38008 4.16602 2.51367 4.28555 2.71758 4.29609C2.84063 4.29961 2.97422 4.29961 3.12188 4.29609C3.16758 4.29609 3.17461 4.29961 3.17461 4.29961C3.17461 4.29961 3.18164 4.30664 3.18164 4.3418C3.17461 4.65469 3.17461 4.97461 3.18164 5.2875C3.18164 5.32266 3.17461 5.32969 3.17461 5.32969C3.17109 5.3332 3.16055 5.33672 3.11836 5.33672C2.8793 5.3332 2.6332 5.3332 2.36602 5.33672C2.22539 5.33672 2.12344 5.4 2.06367 5.51602C2.01094 5.62148 2.01797 5.73047 2.08828 5.83242C2.14805 5.92031 2.24297 5.96602 2.37305 5.96602H2.37656C2.45742 5.96602 2.5418 5.96602 2.62266 5.96602C2.77734 5.96602 2.93555 5.96953 3.09375 5.9625C3.14648 5.95898 3.16406 5.96953 3.16758 5.97305C3.17813 5.98359 3.18164 6.01172 3.18164 6.05391C3.17109 6.39844 3.17109 6.66211 3.18164 6.91172C3.18516 6.97148 3.17461 6.98906 3.16758 6.99609C3.15703 7.00664 3.12891 7.01016 3.0832 7.00664C2.96367 6.99609 2.84766 6.99961 2.71055 7.00664C2.50664 7.01367 2.37305 7.14375 2.37656 7.32656C2.37656 7.50586 2.51719 7.62891 2.71758 7.63594H2.7457C2.8582 7.63945 2.97422 7.64297 3.09023 7.63242C3.13594 7.62891 3.16055 7.63242 3.17109 7.64297C3.17813 7.65 3.18516 7.66406 3.18516 7.7168C3.17813 7.97695 3.17461 8.25117 3.18516 8.60977C3.18516 8.65547 3.17813 8.66953 3.17461 8.66953C3.17109 8.67305 3.16055 8.68008 3.11133 8.68008C2.91797 8.67305 2.72461 8.67656 2.53477 8.67656H2.4082C2.17617 8.67656 2.03203 8.79609 2.02852 8.98594C2.02852 9.07031 2.05664 9.14414 2.10938 9.20039C2.17617 9.26719 2.27813 9.30586 2.40117 9.30586H2.51719C2.71406 9.30586 2.91797 9.30937 3.11836 9.30234C3.16055 9.30234 3.17109 9.30937 3.17109 9.30937C3.17109 9.30937 3.17813 9.31992 3.17813 9.36562C3.17109 9.66797 3.17109 9.97383 3.17813 10.2762C3.17813 10.3254 3.17109 10.3395 3.16758 10.343C3.16406 10.3465 3.15352 10.3535 3.11133 10.35C2.96367 10.3395 2.81602 10.3465 2.68594 10.35C2.50664 10.357 2.38008 10.4801 2.37305 10.6488C2.36602 10.8211 2.49258 10.9582 2.66484 10.9723C2.81602 10.9863 2.9707 10.9793 3.12539 10.9758C3.16758 10.9758 3.17461 10.9828 3.17461 10.9828C3.17461 10.9828 3.18164 10.9898 3.18164 11.0285C3.17461 11.3203 3.17461 11.6262 3.18164 11.9566C3.18164 12.0023 3.17461 12.0129 3.17109 12.0129C3.16758 12.0164 3.15703 12.0234 3.11836 12.0199C2.8793 12.0129 2.63672 12.0164 2.40117 12.0199C2.17969 12.0199 2.03906 12.1359 2.03203 12.3187C2.02852 12.4031 2.05664 12.477 2.10938 12.5367C2.17617 12.607 2.27813 12.6457 2.39766 12.6492H2.46797C2.66836 12.6527 2.87578 12.6562 3.0832 12.6457C3.13945 12.6422 3.16406 12.6492 3.17109 12.6598C3.18516 12.6738 3.18867 12.723 3.18516 12.7582C3.17813 13.0465 3.18164 13.3418 3.18164 13.6266C3.18164 13.732 3.18164 13.841 3.18164 13.9465C3.18164 13.9605 3.18164 13.9711 3.17813 13.9852C3.17461 14.0238 3.17109 14.066 3.18867 14.1047C3.26953 14.3016 3.16406 14.407 3.02695 14.5406L2.99531 14.5687C2.39062 15.1664 1.77891 15.7781 1.18828 16.3723C1.00195 16.5586 0.815625 16.7449 0.629297 16.9348V5.00625C0.629297 4.98516 0.629297 4.96406 0.629297 4.94297C0.629297 4.73203 0.629297 4.53164 0.629297 4.33125Z" fill="#27282D"/>
<path id="Vector_2" d="M7.02402 9.11929C7.02051 9.51304 7.18574 9.79781 7.52324 9.99117C8.36348 10.4693 9.2459 10.9791 10.3885 11.6435C10.5502 11.7384 10.7084 11.7841 10.8701 11.7841C11.0248 11.7841 11.1795 11.7384 11.3307 11.6505C11.6998 11.4361 12.0689 11.2251 12.4381 11.0107C13.0393 10.6626 13.6404 10.3181 14.2381 9.97007C14.551 9.79077 14.7057 9.51304 14.7057 9.15093C14.7021 8.7607 14.7021 8.36343 14.7057 7.98023C14.7057 7.81851 14.7057 7.65327 14.7057 7.49156C14.7057 7.32984 14.7057 7.16812 14.7057 7.00288C14.7021 6.63726 14.7021 6.25757 14.7092 5.88491C14.7197 5.46304 14.551 5.16773 14.1783 4.95679C13.1588 4.38023 12.1428 3.7896 11.3729 3.33609C11.0248 3.13218 10.7014 3.13218 10.3533 3.3396C9.52715 3.82476 8.62715 4.34507 7.51973 4.97788C7.18223 5.17124 7.02051 5.44898 7.02051 5.8357C7.02754 7.04156 7.02754 8.11382 7.02402 9.11929ZM10.5537 7.75171C10.5502 8.61304 10.5502 9.45327 10.5502 10.3462V11.0107L10.3006 10.8666C9.85762 10.6099 9.4252 10.3603 8.99629 10.1107L8.89785 10.0544C8.54277 9.85054 8.18066 9.6396 7.81855 9.4357C7.70254 9.3689 7.65332 9.29156 7.65332 9.17554C7.65332 8.46538 7.65332 7.75874 7.65332 7.04859C7.65332 6.69702 7.65332 6.34546 7.65332 5.9939L8.57441 6.52476C9.19316 6.87984 9.83301 7.24898 10.4623 7.61109C10.5291 7.64976 10.5537 7.67788 10.5537 7.75171ZM13.4682 5.62124C13.2818 5.73023 13.0955 5.8357 12.9092 5.94468C12.7088 6.0607 12.6455 6.23648 12.7404 6.40171C12.8354 6.56695 13.0252 6.59859 13.2221 6.48609C13.426 6.37007 13.6264 6.25406 13.8408 6.13101C13.9217 6.08531 13.999 6.0396 14.0834 5.99038V6.68999C14.0834 6.90796 14.0834 7.12593 14.0834 7.3439C14.0834 7.93101 14.0834 8.53921 14.0834 9.13687C14.0834 9.27749 14.0412 9.35835 13.9322 9.42163C13.2537 9.81187 12.5682 10.2091 11.9037 10.5923L11.1795 11.0107V10.4693C11.1795 9.53765 11.1795 8.65523 11.176 7.75171C11.176 7.68491 11.1936 7.65327 11.2533 7.62163C11.4994 7.48804 11.742 7.3439 11.9811 7.20679L12.0268 7.18218C12.1393 7.11538 12.2131 7.03101 12.2342 6.93609C12.2518 6.85874 12.2412 6.7814 12.1955 6.70757C12.1393 6.61265 12.0514 6.56343 11.9494 6.56343C11.8756 6.56343 11.7982 6.58804 11.7139 6.63374C11.4502 6.78491 11.1936 6.93257 10.9439 7.07671C10.8877 7.11187 10.8596 7.1189 10.8104 7.09077C9.95254 6.59156 9.07715 6.08531 8.22988 5.59663L7.96973 5.44546C7.98027 5.43843 7.99082 5.43491 8.00137 5.42788C8.01191 5.42085 8.02246 5.41734 8.03301 5.41031C8.37754 5.20991 8.72207 5.00952 9.07012 4.81265C9.60098 4.50679 10.1494 4.19038 10.6873 3.87749C10.8174 3.80015 10.9123 3.79663 11.0248 3.86343C11.6787 4.24312 12.3467 4.62984 12.99 4.99898C13.2467 5.14663 13.5068 5.29781 13.7635 5.44546C13.665 5.50523 13.5666 5.56148 13.4682 5.62124Z" fill="#27282D"/>
<path id="Vector_3" d="M5.52617 3.3542C5.5332 3.55459 5.66328 3.6917 5.84258 3.6917C6.02539 3.6917 6.14844 3.55459 6.15195 3.35069V3.29444C6.15547 3.15733 6.15898 3.01319 6.14844 2.87608C6.14492 2.82334 6.14844 2.78819 6.1625 2.77764C6.16953 2.77061 6.19414 2.76006 6.25039 2.76358C6.3875 2.77412 6.53164 2.77061 6.66523 2.76709H6.725C6.93594 2.76006 7.05898 2.64405 7.05898 2.45772C7.05898 2.27139 6.92891 2.14834 6.725 2.14131C6.52461 2.1378 6.28555 2.13077 6.04297 2.14131C5.72305 2.15538 5.52969 2.35928 5.51914 2.68623C5.51562 2.76358 5.51914 2.84092 5.51914 2.91827C5.51914 2.95342 5.51914 2.98506 5.51914 3.02022C5.51914 3.05538 5.51914 3.09053 5.51914 3.12217C5.52266 3.19952 5.52266 3.27686 5.52617 3.3542Z" fill="#27282D"/>
<path id="Vector_4" d="M15.001 2.77061C15.1697 2.77764 15.3314 2.78115 15.4932 2.77061C15.5459 2.76709 15.5635 2.77764 15.567 2.78115C15.574 2.78818 15.5811 2.80928 15.5775 2.86201C15.5705 3.0167 15.5705 3.1749 15.574 3.32607V3.3542C15.5775 3.55459 15.7076 3.69521 15.8869 3.69521C16.0662 3.69521 16.1928 3.55459 16.1998 3.3542C16.2033 3.27686 16.2033 3.19951 16.1998 3.12217C16.1998 3.08701 16.1998 3.05537 16.1998 3.02022C16.1998 2.98506 16.1998 2.94639 16.1998 2.91123C16.1998 2.83037 16.1998 2.74951 16.1998 2.66865C16.1893 2.36982 15.9959 2.16592 15.7076 2.14834C15.4615 2.13428 15.2154 2.13779 14.9869 2.14482C14.8006 2.15186 14.667 2.28545 14.667 2.46123C14.6775 2.63701 14.8111 2.76357 15.001 2.77061Z" fill="#27282D"/>
<path id="Vector_5" d="M6.04727 12.8247C6.12461 12.8282 6.19844 12.8247 6.27227 12.8247C6.30391 12.8247 6.33906 12.8247 6.3707 12.8247C6.40937 12.8247 6.44453 12.8247 6.47969 12.8247C6.51484 12.8247 6.55352 12.8247 6.59219 12.8247C6.63789 12.8247 6.68359 12.8247 6.72578 12.8247C6.92969 12.8177 7.05977 12.6946 7.05977 12.5118C7.05977 12.329 6.92617 12.2024 6.72227 12.1989C6.55 12.1954 6.38477 12.1919 6.2125 12.1989C6.1668 12.2024 6.15625 12.1919 6.15273 12.1919C6.14922 12.1884 6.14219 12.1743 6.1457 12.1286C6.15273 11.9634 6.14922 11.7946 6.1457 11.6364C6.14219 11.4431 6.02266 11.313 5.84688 11.306C5.7625 11.3024 5.68516 11.3306 5.62539 11.3868C5.56211 11.4466 5.52344 11.5345 5.51992 11.6329C5.51289 11.9001 5.51289 12.1181 5.51992 12.3149C5.5375 12.6103 5.74844 12.8142 6.04727 12.8247Z" fill="#27282D"/>
<path id="Vector_6" d="M15.5282 12.1996C15.3278 12.1926 15.1485 12.1926 14.9833 12.1996C14.8075 12.2066 14.6774 12.3332 14.6739 12.5055C14.6704 12.6777 14.804 12.8184 14.9868 12.8254C15.036 12.8289 15.0817 12.8289 15.1309 12.8289C15.1661 12.8289 15.2048 12.8289 15.2399 12.8289C15.2751 12.8289 15.3137 12.8289 15.3489 12.8289C15.3805 12.8289 15.4157 12.8289 15.4473 12.8289C15.5212 12.8289 15.595 12.8289 15.6723 12.8289C15.9852 12.8219 16.1962 12.6215 16.2067 12.3156C16.2137 12.1117 16.2137 11.8902 16.2067 11.6336C16.2032 11.4473 16.0731 11.3102 15.8973 11.3066C15.8938 11.3066 15.8938 11.3066 15.8903 11.3066C15.711 11.3066 15.5844 11.4438 15.5809 11.6406C15.5774 11.8445 15.5774 11.9992 15.5809 12.1504C15.5809 12.1926 15.5739 12.1996 15.5739 12.1996C15.5739 12.1926 15.5669 12.1996 15.5282 12.1996Z" fill="#27282D"/>
</g>
</svg>
