<svg width="20" height="16" viewBox="0 0 20 16" fill="none" xmlns="http://www.w3.org/2000/svg">
<g id="Group">
<path id="Vector" d="M10 14.25C11.7043 14.25 13.086 12.8684 13.086 11.1641C13.086 9.45975 11.7043 8.07812 10 8.07812C8.29569 8.07812 6.91406 9.45975 6.91406 11.1641C6.91406 12.8684 8.29569 14.25 10 14.25Z" fill="#666666"/>
<g id="Group_2">
<path id="Vector_2" d="M1.88282 13.5205L0 15.8252L2.97658 15.8643L2.56252 14.9737L10.1329 11.4463L9.87115 10.8799L2.29689 14.4112L1.88282 13.5205Z" fill="#666666"/>
<g id="Group_3">
<path id="Vector_3" d="M2.20703 13.3809L2.72266 12.666V12.8691L2.22656 12.1777H2.54297L2.88672 12.6582L2.75391 12.6621L3.09376 12.1777H3.39454L2.90235 12.8574V12.6582L3.42188 13.3809H3.10157L2.7461 12.8691H2.875L2.52735 13.3809H2.20703Z" fill="#666666"/>
</g>
</g>
<g id="Group_4">
<path id="Vector_4" d="M18.1163 13.5274L19.9991 15.8321L17.0225 15.8711L17.4366 14.9805L9.86621 11.4492L10.1279 10.8867L17.7022 14.418L18.1163 13.5274Z" fill="#666666"/>
<g id="Group_5">
<path id="Vector_5" d="M17.0996 13.3789V12.8867L17.1621 13.0547L16.6309 12.1719H16.9277L17.334 12.8477H17.1621L17.5684 12.1719H17.8418L17.3145 13.0547L17.377 12.8867V13.3789H17.0996Z" fill="#666666"/>
</g>
</g>
<g id="Group_6">
<path id="Vector_6" d="M11.293 2.80861L10 0.128906L8.70703 2.80861H9.69141V11.1641H10.3125V2.80861H11.293Z" fill="#666666"/>
<g id="Group_7">
<path id="Vector_7" d="M7.98828 4.59083V4.41114L8.73438 3.5127L8.76954 3.61426H8.00391V3.3877H9.01563V3.56738L8.27344 4.46583L8.23828 4.36426H9.04298V4.59083H7.98828Z" fill="#666666"/>
</g>
</g>
</g>
</svg>
