<svg width="20" height="17" viewBox="0 0 20 17" fill="none" xmlns="http://www.w3.org/2000/svg">
<g id="Group">
<path id="Vector" d="M19.9497 6.04311C19.7934 5.53919 19.352 5.24621 18.7348 5.24231C18.1801 5.23449 17.6606 5.2384 17.1566 5.24621C17.0824 5.24621 16.9965 5.2384 16.9379 5.1798C16.8754 5.1173 16.8715 5.03527 16.8715 4.96496C16.8793 4.52354 16.8754 4.07431 16.8754 3.6368V3.30476C16.8754 2.45318 16.3676 1.94536 15.516 1.94536C13.5472 1.94536 11.512 1.94536 9.50803 1.94536H9.50412C9.03146 1.94536 8.64863 1.75004 8.36738 1.36331C8.33222 1.31644 8.29706 1.26565 8.26191 1.21878C8.17206 1.09377 8.08221 0.964866 7.98456 0.843769C7.55095 0.304695 6.99625 0.0234381 6.33999 0.00781271C6.02357 2.96866e-08 5.70325 0 5.38293 0C5.00402 0 4.6251 0.00390637 4.254 0.00781271H4.16806C3.54305 0.0156254 2.94538 0.429697 2.71491 1.01565C2.68365 1.08987 2.65631 1.1719 2.62897 1.24612C2.60943 1.30472 2.5899 1.36331 2.56646 1.418C2.43756 1.75395 2.16802 1.94145 1.80863 1.94536C1.59769 1.94536 1.30472 1.94926 1.1094 1.94926C0.457042 1.94926 0 2.50396 0 3.29695V15.6254C0 16.4105 0.67189 16.6918 1.30081 16.6918C5.8517 16.6918 10.4651 16.6918 15.0121 16.6918C15.8832 16.6918 16.6605 16.1449 16.9457 15.3324C17.7504 13.0511 18.559 10.7346 19.3442 8.48847L19.9067 6.87516C20.0161 6.57827 20.0278 6.30483 19.9497 6.04311ZM0.863301 3.33601C0.863301 2.91803 0.968772 2.81647 1.39456 2.81256C1.46488 2.81256 1.53519 2.81256 1.60551 2.81647C1.77348 2.82038 1.92973 2.82428 2.08598 2.79303C2.73444 2.67194 3.16804 2.31646 3.37117 1.73832C3.6368 0.976585 3.81259 0.855488 4.61339 0.87502C5.16809 0.886739 5.7306 0.882832 6.20717 0.87502C6.69937 0.867207 7.09391 1.07034 7.37907 1.4766C7.48064 1.62113 7.58611 1.76176 7.7033 1.91801C8.15253 2.51178 8.74629 2.81256 9.47287 2.81256C10.8909 2.81647 12.3323 2.81647 13.7269 2.81647C14.3167 2.81647 14.9105 2.81647 15.5004 2.81647C15.8949 2.81647 16.0082 2.93366 16.0082 3.3282C16.0082 3.48055 16.0082 3.63289 16.0082 3.78915C16.0082 4.16416 16.0043 4.55088 16.0121 4.9298C16.0121 5.01574 16.0082 5.10949 15.9418 5.1759C15.8754 5.24231 15.7816 5.25403 15.6918 5.25403C12.8753 5.25012 10.0159 5.25012 7.24626 5.25012H5.14074C4.10556 5.25012 3.37508 5.76966 3.03132 6.75406C2.6485 7.85174 2.25786 8.96505 1.87504 10.0627L1.53128 11.0471C1.46097 11.2503 1.39066 11.4534 1.32034 11.6526L1.19143 12.0237L1.05081 12.4222C1.01565 12.5237 0.867207 12.4964 0.867207 12.3909V3.33601H0.863301ZM19.0903 6.60171C18.9067 7.14079 18.7153 7.68767 18.5278 8.21503L18.4809 8.34785C18.1059 9.41818 17.7309 10.4885 17.3559 11.5589C16.9574 12.6956 16.559 13.8284 16.1644 14.9652C15.9652 15.5277 15.5472 15.8285 14.9496 15.8285H1.45706H1.418H1.37894C1.36331 15.8285 1.35159 15.8285 1.33597 15.8285C1.17971 15.8285 1.01955 15.8168 0.941428 15.7074C0.859395 15.5941 0.906271 15.4339 0.960959 15.2816C1.19925 14.598 1.43753 13.9183 1.67582 13.2347C2.41021 11.1409 3.1446 9.04708 3.87899 6.95328C4.0665 6.4103 4.50791 6.1017 5.08605 6.1017H18.7387C18.8754 6.10561 19.02 6.12123 19.0942 6.23061C19.1645 6.33999 19.1332 6.47671 19.0903 6.60171Z" fill="#27282D"/>
</g>
</svg>
