<svg width="20" height="21" viewBox="0 0 20 21" fill="none" xmlns="http://www.w3.org/2000/svg">
<g id="Group">
<path id="Vector" d="M17.0325 4.50656C17.0219 3.89681 16.5962 3.46908 15.9841 3.4515C15.7075 3.4433 15.7098 3.4433 15.7059 3.16167C15.7032 2.98667 15.7294 2.80855 15.6766 2.63746C15.5716 2.29606 15.3185 2.12419 14.9181 2.12302C14.0337 2.12145 13.1497 2.12341 12.2654 2.12145C12.0576 2.12145 12.0416 2.10387 12.0388 1.90075C12.0361 1.67302 12.0404 1.44529 12.0377 1.21717C12.0334 0.798041 11.8752 0.598045 11.4736 0.5H0.507412C0.221871 0.552733 0.0527333 0.721871 0 1.00819V19.9918C0.0527333 20.2777 0.221871 20.4473 0.507412 20.5H12.1373C12.54 20.4023 12.6958 20.2051 12.7013 19.7848C12.7033 19.6031 12.7029 19.4203 12.7013 19.2383C12.6982 18.8321 12.5634 18.6258 12.1869 18.4782C12.0779 18.4352 12.0377 18.3723 12.0377 18.2606C12.0388 16.7575 12.0388 15.2536 12.0377 13.7505C12.0377 13.6314 12.0791 13.563 12.197 13.5181C12.5517 13.383 12.7001 13.1556 12.7013 12.7705C12.7029 12.2693 12.7017 11.7681 12.7017 11.2674C12.7013 10.59 12.7037 9.91349 12.7001 9.23694C12.699 8.99319 12.6025 8.85999 12.3959 8.79437C12.3263 8.77249 12.2552 8.76703 12.1837 8.76234C12.0611 8.75414 12.0322 8.68187 12.0533 8.57445C12.0814 8.43188 12.1787 8.35102 12.3025 8.29477C12.9771 7.98892 13.6443 7.66548 14.3161 7.35338C15.0177 7.02722 15.7212 6.70535 16.4176 6.36824C16.8321 6.16786 17.0364 5.8288 17.0337 5.36631C17.0317 5.07882 17.0372 4.79288 17.0325 4.50656ZM14.8083 2.83316C14.9505 2.83199 14.9931 2.86089 14.9903 3.01128C14.9798 3.57064 14.9821 4.12962 14.9892 4.68937C14.9907 4.8132 14.9548 4.83702 14.8372 4.83702C12.4978 4.83351 10.158 4.83351 7.8186 4.83702C7.69751 4.83702 7.65063 4.81515 7.65259 4.68C7.66079 4.12063 7.66079 3.56127 7.65259 3.0019C7.65063 2.85933 7.69868 2.83316 7.82836 2.83394C8.99826 2.83863 10.1678 2.83667 11.3373 2.83667C12.4947 2.83628 13.6513 2.83941 14.8083 2.83316ZM11.9884 12.6712C11.9896 12.7888 11.974 12.856 11.833 12.8384C11.6681 12.8177 11.4463 12.9095 11.3502 12.7994C11.2681 12.7048 11.322 12.4896 11.3213 12.3283C11.3201 11.4494 11.3232 10.5709 11.3181 9.69279C11.317 9.5506 11.3381 9.48928 11.5037 9.49279C11.9861 9.50217 11.9861 9.49396 11.9861 9.97716V11.1486C11.9857 11.6564 11.983 12.1638 11.9884 12.6712ZM2.80776 1.16249C5.59755 1.166 8.38694 1.166 11.1763 1.16249C11.3033 1.1621 11.3271 1.20233 11.3232 1.31639C11.3142 1.53709 11.3111 1.75896 11.3236 1.98005C11.333 2.13161 11.2896 2.17497 11.1334 2.1738C10.0213 2.16637 8.9092 2.1695 7.7975 2.17028C7.23111 2.17028 6.99049 2.41051 6.99049 2.97495C6.99049 3.05972 6.98619 3.14409 6.99088 3.22885C6.99986 3.37885 7.00807 3.50853 6.8108 3.56517C6.69479 3.59877 6.65729 3.73236 6.66667 3.8597C6.67643 3.9972 6.74479 4.09876 6.87448 4.13743C6.97799 4.1679 6.99752 4.22258 6.99244 4.31907C6.98424 4.46828 6.98932 4.61867 6.99049 4.76789C6.994 5.22491 7.26509 5.49951 7.71782 5.4999C8.8553 5.50107 9.99356 5.50303 11.1314 5.49678C11.2775 5.49639 11.3263 5.52412 11.3248 5.6831C11.3166 6.6655 11.317 7.64869 11.3248 8.63148C11.3259 8.78929 11.2955 8.85452 11.1267 8.83304C10.9463 8.80999 10.7799 8.84984 10.6549 9.07757C10.6549 8.50688 10.6599 7.99595 10.6537 7.48463C10.6439 6.74675 10.0475 6.16278 9.31622 6.1663C8.601 6.16981 8.01078 6.74363 7.99906 7.46197C7.9893 8.02798 8.00102 8.59437 7.9932 9.16077C7.98813 9.51545 7.73891 9.78732 7.40376 9.83029C7.09556 9.87013 6.79362 9.67365 6.69323 9.37092C6.65964 9.26975 6.66393 9.16585 6.66393 9.06194C6.66354 8.00767 6.66667 6.953 6.66276 5.89872C6.66003 5.22569 6.27839 4.71203 5.66903 4.54758C4.89678 4.3386 4.11281 4.86398 4.01125 5.65693C3.97727 5.92333 3.99914 6.19012 3.99367 6.45691C3.9843 6.8737 3.70657 7.17174 3.32728 7.1694C2.94721 7.16784 2.66206 6.86745 2.66167 6.45262C2.65893 4.74132 2.66167 3.02925 2.65815 1.31717C2.65776 1.19921 2.68393 1.16249 2.80776 1.16249ZM0.881233 1.16092C1.19255 1.17655 1.50583 1.17342 1.81754 1.1621C1.96168 1.15624 1.99957 1.19296 1.99918 1.341C1.99332 3.04018 1.99371 4.73898 1.99566 6.43738C1.99684 7.1819 2.46206 7.72017 3.18275 7.82369C3.8761 7.9229 4.57764 7.37565 4.64405 6.6741C4.66475 6.45418 4.65928 6.23192 4.66007 6.01044C4.66202 5.4749 4.90967 5.16046 5.3331 5.16788C5.65458 5.17374 6.01355 5.40069 6.00184 6.00224C5.9827 7.04323 5.99246 8.08501 5.99754 9.12639C6.00105 9.79435 6.40691 10.3209 7.00885 10.4604C7.85141 10.6557 8.63928 10.0498 8.65725 9.18186C8.66858 8.64203 8.65882 8.1018 8.66038 7.56119C8.66194 7.1319 8.94006 6.82917 9.32755 6.83191C9.71387 6.83464 9.98848 7.13893 9.98965 7.569C9.99121 8.08345 9.99121 8.5975 9.98965 9.11194C9.98848 9.54162 10.1717 9.86544 10.5557 10.0584C10.6584 10.11 10.6553 10.1752 10.6553 10.2604C10.6549 11.0869 10.6549 11.9134 10.6553 12.74C10.6553 13.163 10.8166 13.3853 11.2177 13.4876C11.3135 13.5122 11.3217 13.5529 11.3213 13.6322C11.3197 15.2075 11.3185 16.7825 11.3232 18.3579C11.3232 18.4832 11.2842 18.5055 11.1681 18.5055C7.72172 18.5024 4.27531 18.5012 0.828499 18.5075C0.65819 18.5075 0.662878 18.4329 0.662878 18.311C0.664831 15.4864 0.66444 12.6615 0.66444 9.83693C0.66444 7.01823 0.666003 4.19993 0.660143 1.38162C0.660143 1.20428 0.703111 1.15194 0.881233 1.16092ZM11.9545 19.8043C11.8603 19.882 11.6584 19.8336 11.5041 19.8336C7.96156 19.8348 4.41984 19.8324 0.877327 19.8395C0.692955 19.8395 0.657018 19.7852 0.661315 19.6149C0.672643 19.1692 0.664831 19.1684 1.11873 19.1684H6.34402C8.15765 19.1684 9.9709 19.1703 11.7841 19.1653C11.9349 19.1649 12.015 19.1828 11.9888 19.3586C11.9658 19.5102 12.0537 19.7215 11.9545 19.8043ZM16.1204 5.71162C14.7657 6.34559 13.4103 6.97839 12.0548 7.61041C12.0388 7.61783 12.0173 7.61392 11.9861 7.61627C11.9861 6.94362 11.9892 6.27567 11.9841 5.60732C11.983 5.45576 12.0834 5.50185 12.1552 5.50146C13.0583 5.49951 13.9618 5.50029 14.8646 5.4999C15.4028 5.4999 15.6509 5.25225 15.6513 4.71554C15.6513 4.63078 15.5872 4.16946 15.7696 4.16946C16.1434 4.16946 16.3122 4.08548 16.3122 4.4843C16.3122 4.7964 16.3169 5.10889 16.3149 5.42061C16.3134 5.55693 16.2415 5.65459 16.1204 5.71162Z" fill="#27282D"/>
<path id="Vector_2" d="M19.9771 14.8063C19.9619 14.6477 19.8717 14.5414 19.7115 14.5118C19.6357 14.4977 19.5553 14.4899 19.4799 14.4997C19.3361 14.5184 19.3049 14.459 19.3139 14.3274C19.3299 14.093 19.3107 13.8586 19.2607 13.6294C18.9611 12.2579 17.7643 11.3915 16.3452 11.5169C15.0655 11.6298 14.0464 12.7466 13.987 14.102C13.9819 14.2188 14.0225 14.3579 13.9718 14.4477C13.9065 14.5653 13.7487 14.4774 13.6335 14.4989C13.4687 14.5301 13.3569 14.6133 13.328 14.7813C13.3011 14.9422 13.3694 15.0821 13.5159 15.1274C13.6519 15.1692 13.6581 15.2387 13.6581 15.3508C13.6554 16.7887 13.6655 18.2261 13.6507 19.664C13.6464 20.0722 13.7854 20.3499 14.1667 20.4999H19.1228C19.5138 20.3616 19.6553 20.0812 19.6517 19.673C19.6396 18.2355 19.6474 16.7984 19.647 15.3606C19.647 15.2567 19.6318 15.1684 19.7818 15.1305C19.9228 15.0942 19.992 14.9582 19.9771 14.8063ZM16.2202 12.2161C17.4471 11.9536 18.5959 12.843 18.6486 14.0973C18.6654 14.4973 18.6654 14.4973 18.2666 14.4973H16.6495C16.0456 14.4973 15.4413 14.4911 14.8374 14.5016C14.6761 14.5047 14.6483 14.4504 14.6487 14.3043C14.6514 13.2403 15.2643 12.4208 16.2202 12.2161ZM18.8303 19.8359C17.3803 19.8339 15.9299 19.8331 14.48 19.8374C14.3557 19.8374 14.3167 19.8101 14.3175 19.6792C14.3241 18.9566 14.3206 18.2347 14.3206 17.5121C14.3206 16.7832 14.3241 16.0539 14.3175 15.325C14.3163 15.1965 14.3503 15.1528 14.4792 15.1637C14.6393 15.1774 14.8495 15.1153 14.9503 15.1957C15.0585 15.2813 14.9827 15.4996 14.9839 15.6594C14.9885 16.2453 14.9854 16.8309 14.9858 17.4168C14.9862 17.6754 15.1151 17.8355 15.3182 17.8355C15.5217 17.8355 15.6499 17.6758 15.6503 17.4168C15.6506 16.7203 15.6534 16.0238 15.6471 15.3274C15.646 15.2016 15.6764 15.1524 15.8073 15.1641C15.9682 15.1778 16.1768 15.1157 16.2788 15.1961C16.3885 15.2817 16.3084 15.4996 16.3131 15.6594C16.3206 15.9 16.3147 16.1414 16.3151 16.382C16.3155 16.6801 16.4319 16.8336 16.6537 16.8309C16.8705 16.8281 16.9795 16.6832 16.9799 16.3934C16.9803 16.0356 16.9846 15.6778 16.9772 15.3196C16.9744 15.202 17.0041 15.1625 17.1276 15.1641C17.6998 15.17 18.2721 15.1684 18.8443 15.1645C18.9424 15.1641 18.9807 15.1891 18.9807 15.2949C18.9775 16.7656 18.9771 18.2371 18.981 19.7078C18.9826 19.8331 18.9252 19.8359 18.8303 19.8359Z" fill="#27282D"/>
</g>
</svg>
