<svg width="15" height="20" viewBox="0 0 15 20" fill="none" xmlns="http://www.w3.org/2000/svg">
<g id="Group 8">
<path id="Vector" d="M14.8105 7.89125C14.8105 7.21965 14.8105 6.54806 14.8105 5.88036C14.8105 5.09553 14.3966 4.52545 13.6743 4.3185C13.4283 4.24822 13.2135 4.24431 13.0144 4.29898C12.9519 4.3185 12.784 4.36536 12.6552 4.26384C12.5302 4.16232 12.538 3.99832 12.5419 3.91242C12.5497 3.65862 12.5497 3.32672 12.4404 3.00654C12.1436 2.12019 11.0777 1.57744 10.203 1.86639L10.1835 1.87029C10.1093 1.90543 9.96876 1.964 9.836 1.89372C9.70715 1.82343 9.67591 1.68287 9.66029 1.56963C9.56268 0.749657 8.92231 0.0819623 8.16481 0.0116787C7.27846 -0.0703189 6.78647 0.300622 6.61857 0.464618C6.21639 0.847273 6.01726 1.2924 6.00554 1.82734C6.00164 1.95619 6.00554 2.08505 6.00554 2.22171C6.00554 2.29199 6.00554 2.36228 6.00554 2.43646V2.70588L5.74784 2.62779C5.4628 2.54189 5.22462 2.50675 5.00205 2.52627C4.2055 2.58094 3.53 3.24082 3.45972 4.03346C3.448 4.1467 3.4441 4.25993 3.4441 4.3966V9.5234L3.08877 9.07436C2.97163 8.92599 2.8623 8.79713 2.61241 8.6058C2.19071 8.28562 1.62844 8.18801 1.11302 8.34419C0.613228 8.49257 0.234478 8.8518 0.0665779 9.32816C-0.109131 9.83967 0.0665779 10.4996 0.550754 11.136C1.37463 12.2332 1.69482 13.2289 2.00328 14.1973C2.2727 15.0446 2.55384 15.9192 3.17858 16.8915C3.48314 17.3717 3.82285 17.8754 4.26798 18.2893C5.2129 19.1718 6.34134 19.7145 7.61816 19.898C9.00431 20.1011 10.3163 19.9996 11.5189 19.6052C12.9402 19.1327 13.9125 18.1331 14.4083 16.6416C14.6856 15.8099 14.8183 14.9196 14.8144 13.9239C14.8105 11.9052 14.8105 9.8631 14.8105 7.89125ZM14.0257 14.0176C14.0257 14.7986 13.9281 15.5092 13.725 16.1964C13.3111 17.6138 12.4248 18.5236 11.0933 18.9063C10.4178 19.0976 9.70324 19.1913 8.95746 19.1913C8.66851 19.1913 8.37566 19.1757 8.07891 19.1483C6.77086 19.0234 5.6307 18.4963 4.68968 17.5787C3.57295 16.4932 3.0263 14.9196 2.54212 13.5335C2.28051 12.7838 2.03452 12.077 1.72996 11.5343C1.58548 11.2805 1.42539 11.0462 1.28483 10.8432C0.952932 10.3629 0.663989 9.9451 0.843602 9.5273C0.929505 9.32426 1.11302 9.16417 1.3473 9.09389C1.63625 9.00798 1.96814 9.05874 2.23756 9.23445C2.76469 9.58197 2.91306 10.1208 3.04582 10.5972C3.13953 10.933 3.22544 11.2493 3.42848 11.4952C3.60419 11.71 3.7877 11.7295 3.91265 11.71C4.06884 11.6866 4.18598 11.585 4.21722 11.5031C4.25626 11.4015 4.26017 11.2766 4.26017 11.1438C4.26017 10.3824 4.26017 9.61711 4.26017 8.8518C4.26017 7.34851 4.25626 5.79446 4.26017 4.26774C4.26017 3.70547 4.63111 3.29939 5.13871 3.29939C5.65413 3.29939 6.01335 3.69766 6.01335 4.26774V8.88694C6.01335 8.95332 6.01335 9.01189 6.01726 9.07436C6.02897 9.23445 6.1383 9.37111 6.29449 9.41797C6.42334 9.45311 6.54439 9.43749 6.642 9.36331C6.75133 9.28131 6.81381 9.14074 6.81381 8.97675V1.98743C6.81381 1.90543 6.81381 1.81953 6.82162 1.72972C6.86066 1.30021 7.16913 0.933175 7.59083 0.812131C8.00472 0.694992 8.44204 0.847273 8.70366 1.19869C8.87936 1.43687 8.9067 1.70239 8.9067 1.95619V8.85961C8.9067 8.96113 8.9106 9.03532 8.92232 9.10169C8.94574 9.21102 9.00822 9.30083 9.09802 9.3555C9.19174 9.41407 9.30107 9.42968 9.4104 9.39845C9.55487 9.3594 9.70325 9.2735 9.70325 8.92208L9.71496 3.77966C9.71496 3.65081 9.71496 3.50243 9.74619 3.36186C9.86724 2.86597 10.3163 2.54579 10.8161 2.59655C11.3549 2.65122 11.7493 3.06511 11.761 3.58833C11.7649 3.96708 11.7649 4.34584 11.7649 4.71287C11.7649 4.96277 11.7649 5.21267 11.7688 5.46256C11.7727 6.61443 11.7766 7.80145 11.7844 8.98846C11.7844 9.22664 11.8742 9.37502 12.0577 9.42968C12.1866 9.46873 12.3115 9.45311 12.4053 9.38283C12.5146 9.30083 12.581 9.15245 12.581 8.98065C12.5849 8.31296 12.581 7.63355 12.581 6.97757C12.581 6.64177 12.581 6.30987 12.581 5.97407C12.581 5.90379 12.581 5.83741 12.5849 5.76713C12.5966 5.47428 12.7606 5.2439 13.0495 5.12676C13.2955 5.02134 13.5532 5.06819 13.7719 5.25952C13.9944 5.45866 14.0218 5.71637 14.0218 5.9155C14.0179 8.59799 14.0179 11.3273 14.0257 14.0176Z" fill="#666666"/>
</g>
</svg>
