<svg width="20" height="18" viewBox="0 0 20 18" fill="none" xmlns="http://www.w3.org/2000/svg">
<g id="Group 6">
<path id="Vector" d="M17.4961 10.0947L17.4648 10.083C17.2383 10.001 17 9.94238 16.7578 9.90332C16.6875 9.8916 16.6328 9.87207 16.5898 9.84473C16.4531 9.76269 16.4375 9.62207 16.4375 9.52051C16.4414 7.52051 16.4453 5.34473 16.4414 2.67676C16.4414 1.1377 15.3398 0.0166016 13.8242 0.00878906C10.1094 -0.00292969 6.33984 -0.00292969 2.62109 0.00878906C1.10547 0.0166016 0 1.13379 0 2.67285C0 4.95801 0 7.24316 0 9.52832C0 11.0557 0 12.583 0 14.1103C0 14.3603 0.0195312 14.5635 0.0625 14.7432C0.367188 16.0205 1.35156 16.7822 2.69531 16.7822C5.75781 16.7822 9.12891 16.7822 13.3008 16.7822C13.3633 16.7822 13.418 16.7861 13.4688 16.7978C13.5625 16.8135 13.6445 16.8525 13.7266 16.9111C14.4258 17.4346 15.1992 17.708 16.0156 17.7236H16.0195C16.0273 17.7236 16.0352 17.7236 16.043 17.7236C16.0508 17.7236 16.0586 17.7236 16.0664 17.7236C18.2344 17.7119 20 15.9385 20 13.7705C20 12.1377 19.0156 10.6924 17.4961 10.0947ZM0.714844 2.73145C0.714844 2.14551 0.902344 1.64551 1.26172 1.29004C1.61719 0.93457 2.11719 0.74707 2.70703 0.74707C6.36328 0.74707 10.0742 0.74707 13.7305 0.74707C14.3203 0.74707 14.8203 0.93457 15.1797 1.29395C15.5391 1.65332 15.7266 2.15332 15.7266 2.74707C15.7266 4.17676 15.7266 5.61035 15.7266 7.04004V8.71191L15.6562 8.75879C15.6367 8.77051 15.6172 8.78223 15.6016 8.79394L15.4766 8.87207L15.3867 8.75488C15.375 8.73535 15.3594 8.71973 15.3477 8.70019C15.3242 8.66504 15.3008 8.62988 15.2734 8.60644C14.4492 7.77832 13.6367 6.96973 12.6719 6.00098C12.5391 5.86816 12.4258 5.80176 12.3281 5.80176C12.2773 5.80176 12.2266 5.81738 12.168 5.85254C12.1094 5.88769 12.0469 5.93848 11.9805 6.00488L11.4102 6.57519C10.2461 7.74316 9.04688 8.94629 7.86719 10.1377C7.80469 10.2002 7.72656 10.2666 7.62109 10.2666C7.51562 10.2666 7.4375 10.2002 7.375 10.1377C6.65234 9.39941 5.91016 8.65723 5.19141 7.93457L4.67188 7.41113C4.39844 7.13769 4.24609 7.13769 3.96094 7.41504C3.15625 8.19238 2.33984 8.98144 1.54688 9.74316L0.71875 10.54V2.73145H0.714844ZM12.6211 16.0127C12.5586 16.0791 12.4844 16.0908 12.4297 16.0908C12.4062 16.0908 12.3906 16.0869 12.375 16.0869C12.3672 16.0869 12.3633 16.0869 12.3555 16.0869C9.72266 16.0869 6.24609 16.0908 2.72656 16.0869C1.75781 16.0869 1.04688 15.5752 0.785156 14.6885C0.738281 14.5244 0.714844 14.3408 0.714844 14.1143C0.714844 13.9307 0.714844 13.751 0.714844 13.5674C0.714844 13.0283 0.714844 12.4736 0.710938 11.9268C0.710938 11.7705 0.761719 11.6494 0.875 11.5361C2.0625 10.3486 3.10938 9.29785 4.07422 8.32129C4.14062 8.25488 4.21484 8.19629 4.31641 8.19629C4.41797 8.19629 4.49609 8.25879 4.55469 8.32129C5.24609 9.0166 5.94922 9.72363 6.63281 10.4072C6.84375 10.6182 7.05469 10.8291 7.26562 11.04C7.39453 11.1689 7.51172 11.2314 7.62109 11.2314C7.72656 11.2314 7.84375 11.1689 7.96875 11.0439L8.66406 10.3447C9.78516 9.21972 10.9414 8.05566 12.0781 6.91113C12.1406 6.84863 12.2188 6.78223 12.3242 6.78223C12.4297 6.78223 12.5078 6.84473 12.5742 6.91504C13.1523 7.50488 13.7461 8.10254 14.3203 8.68066C14.5859 8.95019 14.8555 9.21973 15.1211 9.48535C15.1289 9.49316 15.1367 9.50098 15.1445 9.50879C15.1914 9.54785 15.2578 9.61035 15.2891 9.72363L15.3281 9.87207L15.1562 9.91894C15.1406 9.92285 15.1289 9.92676 15.1133 9.93066C13.8203 10.2979 12.9141 11.0713 12.418 12.2393C11.9609 13.3096 11.9922 14.4189 12.5078 15.54C12.5508 15.6338 12.5977 15.7314 12.6484 15.8252L12.7031 15.9268L12.6211 16.0127ZM18.3555 16.0713C17.75 16.6689 16.9453 17.001 16.082 17.001H16.0664C15.2031 16.9971 14.3906 16.6533 13.7812 16.04C13.1758 15.4268 12.8438 14.6182 12.8516 13.7627C12.8555 12.8838 13.1953 12.0674 13.8086 11.4658C14.4102 10.8721 15.2148 10.5479 16.0742 10.5479H16.1016C16.9688 10.5557 17.7773 10.8955 18.3789 11.5049C18.9805 12.1143 19.3086 12.9268 19.3047 13.7939C19.3008 14.6572 18.9648 15.4697 18.3555 16.0713Z" fill="#27282D"/>
<path id="Vector_2" d="M8.75357 5.80566C8.70669 6.43848 8.16372 6.93848 7.55044 6.93848C7.5231 6.93848 7.49576 6.93848 7.46841 6.93457C6.73404 6.88379 6.23794 6.32129 6.28872 5.59863C6.33169 4.98535 6.89419 4.45801 7.48404 4.45801C7.50747 4.45801 7.53091 4.45801 7.55044 4.46191C7.91372 4.48535 8.23794 4.6416 8.45669 4.89551C8.67544 5.1416 8.78091 5.46582 8.75357 5.80566Z" fill="#27282D"/>
<path id="Vector_3" d="M17.5472 14.5244C17.1722 14.9111 16.7738 15.3096 16.3285 15.7432C16.1801 15.8877 15.9965 15.8877 15.848 15.7471C15.4613 15.3838 15.0668 14.9893 14.6019 14.5049C14.5433 14.4463 14.516 14.3564 14.5199 14.2588C14.5238 14.165 14.5629 14.0752 14.6176 14.0205C14.684 13.9541 14.7777 13.9229 14.8715 13.9229C14.9652 13.9229 15.0551 13.9541 15.1254 14.0166C15.1605 14.0479 15.1957 14.083 15.2269 14.1221L15.2347 14.1299L15.2777 14.1807L15.2855 14.1885C15.2894 14.1924 15.2933 14.2002 15.3011 14.2041C15.3285 14.2354 15.3558 14.2705 15.3832 14.3018L15.4027 14.3252L15.7113 14.6846V12.4619C15.7113 12.4229 15.7113 12.3877 15.7113 12.3486C15.7113 12.251 15.7113 12.1611 15.7152 12.0674C15.723 11.8643 15.8832 11.7041 16.0746 11.7041C16.2699 11.7041 16.434 11.8721 16.434 12.0674C16.4379 12.4658 16.4379 12.8682 16.4379 13.2627V13.6689C16.4379 13.7939 16.4379 13.9229 16.4379 14.0479C16.4379 14.0518 16.4379 14.0518 16.4379 14.0557C16.4379 14.0596 16.4379 14.0596 16.4379 14.0635C16.4379 14.083 16.434 14.1104 16.4379 14.1416V14.6104L16.9301 14.1182L16.9652 14.083C16.9847 14.0635 17.0043 14.0439 17.0238 14.0244C17.1761 13.8838 17.3793 13.8799 17.5199 14.0166C17.6683 14.1494 17.6761 14.3877 17.5472 14.5244Z" fill="#27282D"/>
</g>
</svg>
