<svg width="20" height="20" viewBox="0 0 20 20" fill="none" xmlns="http://www.w3.org/2000/svg">
<g id="Group">
<path id="Vector" d="M19.2995 11.1675C18.6421 11.1659 17.9846 11.1675 17.3272 11.1667C17.2663 11.1667 17.2049 11.1605 17.1264 11.1558C17.1585 11.0827 17.1796 11.0292 17.2049 10.978C17.6897 9.99948 18.1768 9.02248 18.6573 8.04196C18.7151 7.92359 18.7831 7.87046 18.9171 7.85484C19.5604 7.78062 20.0276 7.21613 19.9976 6.56532C19.9683 5.92544 19.4343 5.40276 18.7866 5.39573C18.6589 5.39416 18.5882 5.35119 18.5175 5.25275C17.8917 4.38083 17.2608 3.51204 16.6315 2.64246C16.5256 2.49597 16.419 2.34987 16.3057 2.19361C16.4116 2.10493 16.5084 2.02993 16.5987 1.94789C16.9776 1.60256 17.0378 1.05761 16.7432 0.638059C16.6795 0.54782 16.6092 0.461878 16.5377 0.377889C16.1643 -0.0611962 15.6014 -0.124481 15.1448 0.223975C14.9069 0.405625 14.6705 0.589228 14.4389 0.779082C14.3459 0.855257 14.2674 0.880259 14.1412 0.842757C13.7365 0.722438 13.3521 0.791973 13.0111 1.04042C12.7326 1.24356 12.4646 1.46115 12.1967 1.67874C12.0263 1.81703 12.008 1.98305 12.1439 2.15728C12.7451 2.92646 13.3479 3.69369 13.9537 4.45896C14.0998 4.64334 14.2561 4.65897 14.4455 4.51599C14.669 4.34763 14.8846 4.16871 15.108 4.00073C15.517 3.69329 15.7299 3.29523 15.7065 2.77606C15.7037 2.71395 15.7463 2.65027 15.7842 2.53933C16.5526 3.59915 17.2842 4.6078 18.0147 5.61488C17.2971 6.24421 17.378 7.20168 18.1135 7.71108C18.1143 7.71733 18.1178 7.72475 18.1155 7.72905C17.5651 8.84161 17.0147 9.95417 16.4608 11.0652C16.4389 11.1089 16.3795 11.162 16.3366 11.1624C15.8635 11.1695 15.3905 11.1667 14.9069 11.1667C14.9069 11.0702 14.9069 10.996 14.9069 10.9011C15.0143 10.9011 15.1104 10.903 15.2061 10.9007C15.7354 10.8894 16.1256 10.5015 16.137 9.97175C16.1416 9.75689 16.1436 9.54204 16.1354 9.32757C16.1213 8.94825 15.9405 8.66191 15.5928 8.51737C15.4252 8.44784 15.2248 8.46073 15.0432 8.42088C14.9862 8.40838 14.9061 8.35174 14.8951 8.30252C14.8088 7.91734 14.5932 7.73022 14.2018 7.72905C13.5963 7.7271 12.9908 7.72827 12.3857 7.72866C11.8599 7.72905 11.6217 7.96422 11.6209 8.48925C11.6197 9.30296 11.6209 10.1163 11.6201 10.93C11.6201 11.0046 11.6119 11.0796 11.6072 11.1546C10.0591 11.1546 8.53294 11.1546 7.00831 11.1546C7.00831 10.7749 7.00831 10.4085 7.00831 10.035C7.87668 10.035 8.72942 10.0362 9.58178 10.0346C10.2955 10.0335 10.7271 9.60532 10.7279 8.89317C10.7298 7.11613 10.7298 5.33947 10.7279 3.56243C10.7271 2.84716 10.2986 2.42409 9.58256 2.42409C6.9462 2.4237 4.30983 2.4237 1.67346 2.42409C0.949623 2.42409 0.528523 2.83739 0.527351 3.55735C0.525008 5.3344 0.525398 7.11105 0.527351 8.88809C0.528133 9.61782 0.949623 10.0339 1.68362 10.035C2.47113 10.0358 3.25903 10.0354 4.04654 10.0354C4.11451 10.0354 4.18248 10.0354 4.24655 10.0354C4.24655 10.4288 4.24655 10.7901 4.24655 11.1683C4.16412 11.1683 4.09381 11.1683 4.0235 11.1683C2.94926 11.1683 1.87503 11.1796 0.801184 11.1624C0.414459 11.1562 0.14883 11.2843 0 11.6418C0 11.9801 0 12.3187 0 12.657C0.137111 13.0133 0.3961 13.168 0.776574 13.1411C0.969155 13.1274 1.1633 13.1387 1.37424 13.1387C1.37424 13.2407 1.37424 13.318 1.37424 13.395C1.37424 15.4517 1.3758 17.5089 1.3719 19.5656C1.3715 19.759 1.41994 19.9105 1.60159 20C2.61723 20 3.63287 20 4.64851 20C4.80359 19.8867 4.84577 19.7344 4.84499 19.5445C4.83952 17.494 4.84187 15.4439 4.84187 13.3934C4.84187 13.3165 4.84187 13.2399 4.84187 13.1508C6.70518 13.1508 8.55091 13.1508 10.4271 13.1508C10.4271 13.2293 10.4271 13.304 10.4271 13.3786C10.4271 15.4353 10.4291 17.4921 10.4236 19.5492C10.4232 19.7398 10.463 19.8918 10.6248 19.9996C13.2158 19.9996 15.8069 19.9996 18.3979 19.9996C18.5835 19.9031 18.6284 19.7445 18.628 19.5453C18.6237 17.4952 18.6253 15.4447 18.6253 13.3946C18.6253 13.3176 18.6253 13.2407 18.6253 13.1383C18.8686 13.1383 19.0948 13.1414 19.321 13.1375C19.7522 13.1301 19.9964 12.8824 19.9991 12.4547C20.0003 12.2594 20.0003 12.064 19.9991 11.8687C19.9968 11.4136 19.7534 11.1687 19.2995 11.1675ZM14.7713 3.46946C14.6135 3.59446 14.4537 3.71634 14.2733 3.85619C13.7842 3.23507 13.2998 2.62019 12.8033 1.9893C13.0029 1.83343 13.1779 1.68811 13.3623 1.5549C13.6877 1.31973 14.0787 1.37443 14.335 1.68811C14.5283 1.92484 14.7182 2.16431 14.9033 2.40768C15.1866 2.77997 15.1346 3.18194 14.7713 3.46946ZM16.1475 1.51428C15.9209 1.69866 15.6893 1.87679 15.4377 2.07485C15.2264 1.80687 15.0225 1.54865 14.8104 1.27989C15.0658 1.07793 15.3002 0.882993 15.5448 0.701734C15.7159 0.575165 15.9057 0.605635 16.0502 0.76619C16.1108 0.833772 16.1666 0.906041 16.219 0.980264C16.3526 1.16855 16.328 1.367 16.1475 1.51428ZM18.7589 6.01607C19.0983 6.0149 19.378 6.29734 19.3745 6.63759C19.3706 6.96925 19.0921 7.24895 18.7655 7.24895C18.4225 7.24895 18.1421 6.97354 18.1389 6.63446C18.1362 6.29499 18.4143 6.01724 18.7589 6.01607ZM14.9061 9.05881C15.0326 9.05881 15.1545 9.04553 15.2721 9.06232C15.4159 9.08303 15.5037 9.18225 15.5096 9.32835C15.5178 9.54829 15.5186 9.769 15.51 9.98854C15.5037 10.1526 15.403 10.2514 15.242 10.2706C15.135 10.2835 15.0252 10.2729 14.9061 10.2729C14.9061 9.86471 14.9061 9.4725 14.9061 9.05881ZM12.2596 8.35916C12.9252 8.35916 13.5803 8.35916 14.2604 8.35916C14.2604 9.29358 14.2604 10.2136 14.2604 11.1472C13.5932 11.1472 12.9338 11.1472 12.2596 11.1472C12.2596 10.2182 12.2596 9.29319 12.2596 8.35916ZM1.15041 7.12355C1.15041 5.95279 1.15002 4.78202 1.1508 3.61087C1.15119 3.171 1.27697 3.04756 1.72229 3.04756C4.33092 3.04756 6.93995 3.04756 9.54858 3.04756C9.96304 3.04756 10.1044 3.18428 10.1044 3.59134C10.1052 4.77499 10.1048 5.95904 10.1044 7.14269C10.1044 7.20012 10.0994 7.25793 10.0959 7.32864C7.11807 7.32864 4.1485 7.32864 1.15041 7.32864C1.15041 7.25168 1.15041 7.18762 1.15041 7.12355ZM1.74026 9.40961C1.27267 9.40961 1.15158 9.28851 1.1508 8.82051C1.15041 8.54198 1.1508 8.26384 1.1508 7.97828C4.14303 7.97828 7.11299 7.97828 10.0962 7.97828C10.0962 8.33807 10.1107 8.68848 10.0912 9.03693C10.0779 9.27796 9.8978 9.40726 9.62553 9.40843C9.03334 9.41156 8.44114 9.40961 7.84933 9.40961C5.81298 9.40961 3.77662 9.40961 1.74026 9.40961ZM6.35166 10.0432C6.35166 10.4093 6.35166 10.7745 6.35166 11.1503C5.86727 11.1503 5.38875 11.1503 4.89695 11.1503C4.89695 10.7831 4.89695 10.4226 4.89695 10.0432C5.3868 10.0432 5.86141 10.0432 6.35166 10.0432ZM4.2067 19.3675C3.46997 19.3675 2.74926 19.3675 2.01331 19.3675C2.01331 17.3003 2.01331 15.2376 2.01331 13.1637C2.74613 13.1637 3.47075 13.1637 4.2067 13.1637C4.2067 15.231 4.2067 17.2893 4.2067 19.3675ZM17.9878 19.3672C15.6772 19.3672 13.3807 19.3672 11.0677 19.3672C11.0677 17.3026 11.0677 15.2388 11.0677 13.1637C13.3721 13.1637 15.6729 13.1637 17.9878 13.1637C17.9878 15.2279 17.9878 17.287 17.9878 19.3672ZM19.3643 12.5059C13.117 12.5059 6.88487 12.5059 0.638681 12.5059C0.638681 12.2719 0.638681 12.0422 0.638681 11.8019C6.88057 11.8019 13.117 11.8019 19.3643 11.8019C19.3643 12.034 19.3643 12.2586 19.3643 12.5059Z" fill="#282828"/>
<path id="Vector_2" d="M12.586 16.8297C13.2305 16.8309 13.8747 16.8301 14.5192 16.8301C15.1833 16.8301 15.847 16.8329 16.5111 16.829C16.899 16.8266 17.1677 16.5711 17.174 16.1844C17.1833 15.6184 17.1845 15.0519 17.1736 14.4859C17.1661 14.0819 16.9021 13.8343 16.4997 13.8335C15.1849 13.8315 13.87 13.8315 12.5551 13.8335C12.1333 13.8343 11.8758 14.0944 11.8743 14.5167C11.8723 15.0504 11.8731 15.584 11.8739 16.1176C11.8751 16.5782 12.1254 16.829 12.586 16.8297ZM12.511 14.4695C13.8466 14.4695 15.1821 14.4695 16.5411 14.4695C16.5411 15.0472 16.5411 15.6152 16.5411 16.1946C15.1942 16.1946 13.8587 16.1946 12.511 16.1946C12.511 15.6203 12.511 15.0519 12.511 14.4695Z" fill="#282828"/>
<path id="Vector_3" d="M5.62001 8.38967C5.44657 8.39162 5.31063 8.52952 5.31454 8.69984C5.31844 8.86899 5.46258 9.00845 5.63016 9.00494C5.79814 9.00142 5.93798 8.85727 5.93603 8.68969C5.93408 8.51975 5.79501 8.38772 5.62001 8.38967Z" fill="#282828"/>
<path id="Vector_4" d="M14.5337 15.0206C14.3626 15.0167 14.2216 15.1503 14.2169 15.321C14.2122 15.4941 14.3431 15.6308 14.5173 15.6351C14.6915 15.639 14.8326 15.5077 14.8372 15.3378C14.8411 15.1702 14.7021 15.0245 14.5337 15.0206Z" fill="#282828"/>
</g>
</svg>
