<svg width="20" height="20" viewBox="0 0 20 20" fill="none" xmlns="http://www.w3.org/2000/svg">
<g id="Group">
<path id="Vector" d="M15.8396 6.06832C13.9743 5.35309 12.1087 4.64098 10.2455 3.92223C10.0658 3.8527 9.906 3.86364 9.73179 3.93083C7.88023 4.6445 6.02829 5.35465 4.17634 6.06558C3.96619 6.14605 3.8615 6.29566 3.8615 6.51792C3.86111 7.6812 3.8615 8.84487 3.8615 10.0078H3.87205C3.87205 11.13 3.87166 12.2527 3.87205 13.3749C3.87244 13.732 3.93767 13.8234 4.27205 13.9523C6.11696 14.6632 7.96187 15.3749 9.80601 16.0874C9.94077 16.1401 10.0677 16.1382 10.2021 16.0862C12.0283 15.3823 13.8552 14.6792 15.6818 13.9761C16.0779 13.8234 16.1302 13.7472 16.131 13.3269C16.1341 11.062 16.1368 8.79682 16.1407 6.53199C16.1407 6.30855 16.0415 6.14605 15.8396 6.06832ZM9.39663 14.9882C7.89039 14.4038 6.38141 13.8265 4.87283 13.2476C4.79392 13.2175 4.7404 13.1894 4.74079 13.08C4.74587 11.1031 4.74392 9.12612 4.74392 7.12652C6.3318 7.73745 7.88844 8.33862 9.44859 8.93315C9.57827 8.98237 9.55913 9.0683 9.55913 9.16088V12.8753C9.55913 13.5394 9.5564 14.2027 9.56148 14.8663C9.56265 14.9999 9.55132 15.0487 9.39663 14.9882ZM10.1697 8.14917C10.074 8.18589 9.98608 8.20659 9.8771 8.1644C8.46617 7.61675 7.05328 7.07534 5.64079 6.53199C5.61657 6.52261 5.59353 6.51011 5.53962 6.48472C5.96891 6.32027 6.37555 6.16519 6.78141 6.00933C7.79898 5.61754 8.81734 5.22652 9.83335 4.8316C9.94897 4.78668 10.0474 4.78239 10.1658 4.82848C11.5576 5.36793 12.9517 5.90152 14.345 6.43785C14.3759 6.44917 14.404 6.46753 14.4595 6.49605C13.7376 6.77339 13.0408 7.0398 12.3439 7.30776C11.6189 7.58745 10.8943 7.86792 10.1697 8.14917ZM15.2611 13.0042C15.2611 13.1456 15.2259 13.2144 15.0857 13.2675C13.588 13.8366 12.0939 14.4144 10.5986 14.9898C10.5548 15.0066 10.5087 15.0183 10.4517 15.0362C10.4486 14.9722 10.4431 14.9194 10.4431 14.8663C10.4427 12.964 10.4427 11.0617 10.4427 9.15971C10.4427 9.06479 10.429 8.98159 10.556 8.93354C12.1162 8.3394 13.6732 7.73784 15.2349 7.13706C15.2767 7.20659 15.2568 7.27456 15.2568 7.33862C15.2579 9.22768 15.256 11.1156 15.2611 13.0042Z" fill="#666666"/>
<path id="Vector_2" d="M1.08669 13.4755C1.1738 13.3833 1.30154 13.3329 1.457 13.3302C1.72341 13.3251 1.91286 13.5372 1.91989 13.8446C1.93591 14.4782 2.04528 14.9739 2.26598 15.4036C2.99411 16.8212 4.12965 17.6188 5.64058 17.7755L5.65269 17.7778C5.71362 17.7911 5.81597 17.8133 5.91519 17.7434L6.04136 17.6532L5.86831 17.4649C5.82027 17.4134 5.77261 17.3614 5.72534 17.3087C5.5562 17.1176 5.55503 16.8419 5.723 16.6673C5.89058 16.4934 6.15347 16.4809 6.34917 16.6372C6.63237 16.8645 6.89214 17.1313 7.14331 17.3891C7.32065 17.5716 7.50424 17.7598 7.69643 17.9356C7.85033 18.0758 7.89252 18.2149 7.84174 18.4153C7.82924 18.4633 7.79447 18.4966 7.73549 18.5497C7.71518 18.5673 7.69487 18.586 7.67572 18.6044L7.65619 18.6239C7.33471 18.9438 7.00151 19.2739 6.67846 19.6032C6.54057 19.743 6.41128 19.8497 6.28042 19.9305C6.20737 19.9755 6.12378 19.9997 6.03823 19.9997C5.96362 19.9997 5.89019 19.9786 5.82769 19.9383C5.65112 19.8247 5.58238 19.6821 5.60152 19.4821C5.61284 19.3626 5.67066 19.2626 5.79448 19.1481C5.82808 19.1169 5.86284 19.0872 5.9062 19.0505C5.92964 19.0301 5.95542 19.0083 5.98472 18.9833L6.21167 18.786L5.9144 18.7438C5.80269 18.7278 5.69527 18.7149 5.59058 18.7016C5.37652 18.6747 5.17378 18.6497 4.97886 18.6079C4.14566 18.4282 3.4152 18.0731 2.74567 17.5227C2.22419 17.095 1.80856 16.5438 1.39763 15.7372C1.13083 15.2141 0.99763 14.6329 0.965599 13.8516C0.958568 13.697 1.00076 13.5669 1.08669 13.4755Z" fill="#666666"/>
<path id="Vector_3" d="M18.9142 6.52419C18.827 6.61638 18.6993 6.66677 18.5438 6.6695C18.2774 6.67458 18.088 6.46247 18.081 6.15505C18.0649 5.52146 17.9556 5.02576 17.7349 4.59607C17.0067 3.1785 15.8712 2.38085 14.3603 2.22421L14.3482 2.22187C14.2872 2.20858 14.1849 2.18632 14.0857 2.25624L13.9595 2.34647L14.1325 2.53475C14.1806 2.58632 14.2282 2.63827 14.2755 2.691C14.4446 2.88202 14.4458 3.1578 14.2778 3.33241C14.1103 3.50623 13.8474 3.51873 13.6517 3.36248C13.3685 3.13514 13.1087 2.86835 12.8575 2.61054C12.6802 2.42811 12.4966 2.23983 12.3044 2.06405C12.1505 1.92382 12.1083 1.78476 12.1591 1.58437C12.1716 1.53632 12.2064 1.50312 12.2654 1.44999C12.2857 1.43242 12.306 1.41367 12.3251 1.39531L12.3447 1.37578C12.6661 1.05585 12.9993 0.725778 13.3224 0.396483C13.4603 0.256639 13.5896 0.149999 13.7204 0.0691403C13.7935 0.0242186 13.8771 0 13.9626 0C14.0372 0 14.1107 0.0210937 14.1732 0.0613279C14.3497 0.174999 14.4185 0.317577 14.3993 0.517576C14.388 0.637107 14.3302 0.737106 14.2064 0.851559C14.1728 0.882809 14.138 0.912496 14.0946 0.949214C14.0712 0.969527 14.0454 0.991402 14.0161 1.0164L13.7892 1.21367L14.0864 1.25585C14.1982 1.27187 14.3056 1.28476 14.4103 1.29804C14.6243 1.32499 14.8271 1.34999 15.022 1.39179C15.8552 1.57148 16.5857 1.92655 17.2552 2.47694C17.7767 2.90467 18.1923 3.45584 18.6032 4.26248C18.87 4.78553 19.0032 5.36677 19.0352 6.14802C19.0423 6.30271 19.0001 6.43278 18.9142 6.52419Z" fill="#666666"/>
</g>
</svg>
