<svg width="22" height="18" viewBox="0 0 22 18" fill="none" xmlns="http://www.w3.org/2000/svg">
<g id="Group">
<path id="Vector" d="M21.9996 11.9998V12.0084C21.9996 12.176 21.9695 12.3478 21.9093 12.5197C21.4711 13.7527 20.3627 14.3542 19.3531 14.8225C18.0857 15.411 16.7152 15.7075 15.6669 15.8965C15.538 15.918 15.4134 15.8922 15.3189 15.8235C15.2287 15.759 15.1685 15.6602 15.1514 15.5485C15.1127 15.2736 15.2673 15.0802 15.5724 15.0244C16.7753 14.8096 17.7549 14.5389 18.6614 14.1737C19.1984 13.9589 19.8858 13.641 20.4744 13.1254C20.8181 12.8247 21.0071 12.4209 21.0071 11.9912C21.0071 11.5659 20.8224 11.1621 20.4873 10.8613C20.324 10.7153 20.1436 10.5778 19.9417 10.4489C19.7097 10.2985 19.4691 10.0536 19.6624 9.7529C19.7268 9.64979 19.8085 9.58535 19.8987 9.56816C19.9245 9.56387 19.9502 9.55957 19.9803 9.55957C20.1049 9.55957 20.2596 9.61542 20.4271 9.72283C20.8825 10.015 21.2391 10.3329 21.527 10.7024C21.6988 10.9215 21.8234 11.175 21.9265 11.5058C21.9695 11.6647 21.9996 11.8366 21.9996 11.9998Z" fill="#666666"/>
<path id="Vector_2" d="M11.4399 15.8489C11.4399 15.9821 11.3754 16.1023 11.2594 16.1926C10.7482 16.5878 10.1982 17.0046 9.51514 17.5029C9.29603 17.6619 9.04685 17.6318 8.89218 17.4213C8.74182 17.2194 8.78907 16.9659 9.00389 16.794C9.04685 16.7597 9.08552 16.7296 9.13707 16.6909L9.65691 16.2871L9.107 16.2355C8.96952 16.2226 8.83204 16.2098 8.69885 16.1969C8.4196 16.1711 8.15323 16.1496 7.89116 16.1152C6.32303 15.9348 4.27373 15.6083 2.3662 14.6932C1.52843 14.2936 0.939849 13.8554 0.510225 13.3227C-0.164284 12.4806 -0.168581 11.514 0.488744 10.6633C0.798073 10.2681 1.20622 9.92006 1.73465 9.60644C1.80769 9.56347 1.88502 9.54199 1.96235 9.54199C2.10413 9.54199 2.24161 9.61073 2.32324 9.73962C2.45212 9.94154 2.40487 10.1907 2.20724 10.3325C2.1428 10.3798 2.07406 10.427 2.00961 10.47C1.83347 10.5903 1.64873 10.7149 1.48117 10.8738C1.46829 10.8867 1.4554 10.8996 1.44251 10.9125C1.41673 10.934 1.39095 10.9597 1.36518 10.9855C0.712148 11.6514 0.712148 12.326 1.36947 12.9876C1.90221 13.5246 2.55953 13.8468 3.13523 14.0874C4.29521 14.5815 5.59267 14.9209 7.21236 15.1486C7.58183 15.2001 7.9556 15.2431 8.32078 15.2818C8.48834 15.2989 8.65589 15.3204 8.82344 15.3376L9.35188 15.3978L9.02107 14.981C8.88789 14.8135 8.81915 14.7061 8.81056 14.5815C8.79337 14.3881 8.86211 14.255 9.01678 14.1604C9.18433 14.0616 9.34329 14.0659 9.49366 14.1776C9.76002 14.371 10.0479 14.5858 10.3486 14.8092C10.645 15.0326 10.9544 15.2646 11.2594 15.4966C11.3754 15.5954 11.4399 15.7157 11.4399 15.8489Z" fill="#666666"/>
<path id="Vector_3" d="M11.5733 5.34054C11.1823 5.28468 10.7871 5.33194 10.3703 5.4995L10.0696 5.61549V5.29328C10.0696 5.17298 10.0696 5.05698 10.0696 4.94099C10.0696 4.67032 10.0696 4.41684 10.0739 4.15477C10.0825 3.48026 10.5808 2.9819 11.2597 2.97761C11.4616 2.97761 11.6635 2.97761 11.8697 2.97761C12.1103 2.97761 12.3552 2.97761 12.5958 2.97761C12.8793 2.97331 13.077 2.79287 13.077 2.53939C13.077 2.28591 12.8793 2.10547 12.5958 2.10547C12.3509 2.10547 12.1189 2.10547 11.9041 2.10547C11.685 2.10547 11.4831 2.10547 11.2854 2.10547C10.0868 2.11406 9.21035 2.9819 9.20176 4.18055C9.19316 5.29757 9.19316 6.32867 9.20176 7.32969C9.20605 7.94406 9.44235 8.49397 9.87197 8.88063C10.3059 9.2673 10.8859 9.44774 11.5045 9.38329C12.4841 9.28448 13.2617 8.41664 13.2789 7.40703C13.2918 6.39311 12.5442 5.48661 11.5733 5.34054ZM12.0502 8.19324C11.8311 8.40805 11.5432 8.52834 11.2425 8.52834H11.2296C10.916 8.52405 10.6238 8.39946 10.409 8.17605C10.1899 7.94835 10.0696 7.65191 10.0739 7.32969C10.0825 6.70244 10.6023 6.18689 11.2339 6.18689H11.2425C11.5518 6.18689 11.8439 6.30719 12.0631 6.5263C12.2865 6.7497 12.4068 7.05044 12.4068 7.36836C12.3982 7.68198 12.2736 7.97413 12.0502 8.19324Z" fill="#666666"/>
<path id="Vector_4" d="M18.5247 5.96779V5.74868C18.5247 5.54675 18.5247 5.34483 18.529 5.1472C18.5333 4.70899 18.5333 4.25359 18.5247 3.80678C18.5033 2.88738 17.7342 2.12695 16.8062 2.10547C16.7934 2.10547 16.7762 2.10547 16.7633 2.10547C16.2778 2.10547 15.8267 2.28161 15.4959 2.60383C15.1479 2.94323 14.9503 3.42012 14.9503 3.94855C14.9417 5.09565 14.946 6.26423 14.9503 7.39843V7.56169C14.9503 7.72495 14.9675 7.87532 15.0018 8.0085C15.2166 8.9236 16.0329 9.4864 16.9867 9.38329C17.4163 9.33604 17.7987 9.12122 18.0736 8.79901C18.3529 8.48108 18.5204 8.06005 18.5247 7.60895C18.529 7.18362 18.529 6.7454 18.529 6.32867C18.5247 6.20837 18.5247 6.08808 18.5247 5.96779ZM17.6526 6.26852C17.6526 6.69815 17.6526 7.12347 17.6526 7.5531C17.6526 8.10731 17.2745 8.51545 16.759 8.52405C16.7504 8.52405 16.7461 8.52405 16.7375 8.52405C16.5012 8.52405 16.2821 8.43383 16.1146 8.27057C15.9298 8.09013 15.8267 7.83235 15.8224 7.5531C15.8181 6.35445 15.8181 5.14291 15.8224 3.94426C15.8224 3.66071 15.9212 3.40723 16.1017 3.23108C16.2692 3.06783 16.4926 2.97761 16.7375 2.97761H16.7461C17.2659 2.9819 17.644 3.39004 17.6483 3.94426C17.6483 4.36959 17.6483 4.79921 17.6483 5.22024C17.6483 5.40068 17.6483 5.58112 17.6483 5.76157L17.6526 6.26852Z" fill="#666666"/>
<path id="Vector_5" d="M7.33729 8.19334C6.985 8.97526 6.34056 9.3791 5.42546 9.40488C5.07747 9.41347 4.73807 9.40918 4.45022 9.40488C4.14948 9.40059 3.94756 9.22444 3.94756 8.96237C3.94756 8.7003 4.14948 8.53275 4.45452 8.52845C4.48889 8.52845 4.52326 8.52845 4.56192 8.52845C4.64785 8.52845 4.73807 8.52845 4.82399 8.52845C5.0431 8.52845 5.2665 8.53275 5.48991 8.52415C6.09997 8.49838 6.55538 8.09883 6.6456 7.50594C6.72293 6.9818 6.38353 6.43188 5.86798 6.25574C5.65746 6.1827 5.44695 6.1827 5.2751 6.187C4.93999 6.1913 4.66933 6.1913 4.42444 6.187C4.14519 6.1827 3.95615 6.01515 3.94756 5.76167C3.94326 5.64997 3.98623 5.54256 4.06356 5.46094C4.14948 5.37071 4.27837 5.31486 4.41585 5.31486C4.61348 5.31057 4.8154 5.31057 5.00873 5.31057C5.1591 5.31057 5.31376 5.31057 5.46413 5.31057C6.13864 5.30197 6.64989 4.80361 6.65419 4.15058C6.65849 3.50185 6.13864 2.9906 5.47272 2.98201C5.30087 2.98201 5.12473 2.98201 4.95718 2.98201C4.78962 2.98201 4.61777 2.98201 4.44592 2.98201C4.29126 2.98201 4.15808 2.92616 4.06785 2.83593C3.99052 2.75431 3.95186 2.6512 3.95186 2.53949C3.95615 2.28602 4.15378 2.11417 4.44163 2.10987C4.57481 2.10987 4.71229 2.10987 4.84547 2.10987H5.03021H5.0388C5.46413 2.09698 5.91094 2.10128 6.31479 2.28172C6.90767 2.54379 7.33299 3.05934 7.47477 3.69518C7.62084 4.33103 7.45759 4.98405 7.03226 5.48242L7.01937 5.4996C6.95922 5.56834 6.79596 5.75738 7.00648 6.01085C7.57788 6.68536 7.68958 7.42002 7.33729 8.19334Z" fill="#666666"/>
<path id="Vector_6" d="M20.7067 0.897914V0.885025C20.6509 0.421031 20.2299 0.0386662 19.7229 0.00429634C19.7057 0.00429634 19.6885 0 19.6714 0C19.6069 0 19.5425 0.00429637 19.4823 0.0128888C18.9496 0.0945174 18.5586 0.541326 18.5586 1.08265C18.5543 1.61109 18.9453 2.07508 19.4651 2.15671C19.5081 2.1653 19.5554 2.1696 19.5983 2.1696C19.6112 2.1696 19.6241 2.1696 19.637 2.1696H19.6413C19.6499 2.1696 19.6628 2.1696 19.6714 2.1696H19.6928C19.7014 2.1696 19.71 2.1696 19.7143 2.1696H19.7229H19.7272L19.753 2.1653C19.7573 2.1653 19.7659 2.1653 19.7702 2.1653C19.7831 2.1653 19.7874 2.16101 19.7959 2.16101H19.8002C19.8045 2.16101 19.8088 2.16101 19.8088 2.16101H19.8174C19.8389 2.15671 19.8561 2.15242 19.8776 2.14812C19.8819 2.14812 19.8905 2.14382 19.8991 2.14382H19.9034C19.9205 2.13953 19.9334 2.13523 19.9506 2.13093H19.9549C19.9635 2.12664 19.9678 2.12664 19.9764 2.12234H19.9807C19.9936 2.11805 20.0108 2.11375 20.0236 2.10516C20.3373 1.98486 20.5693 1.73568 20.6724 1.41776C20.6767 1.40917 20.681 1.3748 20.6896 1.32324L20.6939 1.29746C20.711 1.21154 20.7239 1.06976 20.7067 0.897914ZM20.406 1.09124C20.4017 1.50798 20.058 1.85168 19.6413 1.85168H19.637C19.2117 1.85168 18.8766 1.51228 18.8766 1.08695C18.8766 0.880729 18.9582 0.683102 19.1043 0.53703C19.2503 0.390958 19.4437 0.313625 19.6499 0.317922C20.0666 0.326514 20.406 0.670213 20.406 1.08695V1.09124Z" fill="#666666"/>
</g>
</svg>
