<svg width="18" height="17" viewBox="0 0 18 17" fill="none" xmlns="http://www.w3.org/2000/svg">
<g id="Group">
<path id="Vector" d="M13.538 0.408718C13.508 0.614738 13.3552 0.744332 13.1359 0.744332H8.98889C8.63002 0.744332 8.54695 0.601447 8.51039 0.44527C8.48381 0.318999 8.50707 0.222635 8.59347 0.136239C8.67654 0.0498437 8.79949 0 8.93905 0H13.096C13.2322 0 13.3618 0.0531666 13.4449 0.142885C13.5213 0.222635 13.5479 0.309031 13.538 0.408718Z" fill="#666666"/>
<path id="Vector_2" d="M6.92641 0.408718C6.8965 0.614738 6.74365 0.744332 6.52434 0.744332H4.26624C3.90736 0.744332 3.82429 0.601447 3.78774 0.44527C3.76115 0.318999 3.78441 0.222635 3.87081 0.136239C3.95388 0.0498437 4.07683 0 4.21639 0H6.48446C6.6207 0 6.7503 0.0531666 6.83337 0.142885C6.9098 0.222635 6.93638 0.309031 6.92641 0.408718Z" fill="#666666"/>
<path id="Vector_3" d="M13.5375 16.6626C13.5076 16.8686 13.3548 16.9982 13.1354 16.9982H12.7662C12.4074 16.9982 12.3243 16.8554 12.2877 16.6992C12.2612 16.5729 12.2844 16.4765 12.3708 16.3901C12.4539 16.3037 12.5768 16.2539 12.7164 16.2539H13.0956C13.2318 16.2539 13.3614 16.3071 13.4445 16.3968C13.5209 16.4765 13.5475 16.5629 13.5375 16.6626Z" fill="#666666"/>
<path id="Vector_4" d="M17.0168 8.6521V12.6728H17.0135V12.8091C17.0135 12.9453 16.9603 13.0749 16.8706 13.158C16.7942 13.2311 16.7078 13.261 16.6081 13.2477C16.4021 13.2178 16.2725 13.0649 16.2725 12.8456V8.70526C16.2725 8.34639 16.4153 8.26332 16.5715 8.22677C16.6048 8.22012 16.6347 8.2168 16.6612 8.2168C16.7011 8.2168 16.741 8.22344 16.7775 8.24006C16.8141 8.25667 16.8473 8.27993 16.8806 8.30984C16.9669 8.39291 17.0168 8.51918 17.0168 8.6521Z" fill="#666666"/>
<path id="Vector_5" d="M17.0168 4.21264V6.34447H17.0135V6.48071C17.0135 6.61695 16.9603 6.74655 16.8706 6.82962C16.7942 6.90272 16.7078 6.93263 16.6081 6.91934C16.4021 6.88943 16.2725 6.73658 16.2725 6.51727V4.26581C16.2725 3.90694 16.4153 3.82386 16.5715 3.78731C16.6048 3.78067 16.6347 3.77734 16.6612 3.77734C16.7011 3.77734 16.741 3.78399 16.7775 3.8006C16.8141 3.81722 16.8473 3.84048 16.8806 3.87039C16.9669 3.95346 17.0168 4.07973 17.0168 4.21264Z" fill="#666666"/>
<path id="Vector_6" d="M0.744331 3.74097V4.54954H0.741008V4.68578C0.741008 4.82202 0.687842 4.95161 0.598124 5.03468C0.521697 5.10779 0.435301 5.13769 0.335614 5.1244C0.129594 5.0945 0 4.94164 0 4.72233V3.79413C0 3.43526 0.142885 3.35218 0.299062 3.31563C0.332291 3.30899 0.362196 3.30566 0.38878 3.30566C0.428655 3.30566 0.46853 3.31231 0.505082 3.32892C0.541634 3.34554 0.574863 3.3688 0.608092 3.39871C0.694488 3.48178 0.744331 3.60805 0.744331 3.74097Z" fill="#666666"/>
<path id="Vector_7" d="M17.0097 16.8037C16.9898 16.9665 16.8535 16.9898 16.8103 16.9931H15.1024C14.9462 16.9931 14.5873 16.9565 14.584 16.6342C14.584 16.5345 14.6172 16.4448 14.6803 16.3817C14.7568 16.3019 14.8764 16.2587 15.0126 16.2587C15.1057 16.2587 15.1987 16.2587 15.2951 16.2587C15.3848 16.2587 15.4778 16.2587 15.5709 16.2587C15.7105 16.2587 15.85 16.2587 15.9863 16.2654C16.0594 16.2687 16.1458 16.2621 16.2056 16.1989C16.2687 16.1358 16.2753 16.0527 16.272 15.9829C16.2654 15.7204 16.2654 15.4513 16.2687 15.1954C16.2687 15.1389 16.2687 15.0857 16.2687 15.0293C16.2654 14.8299 16.3285 14.584 16.6674 14.584C16.8004 14.584 16.9765 14.6239 17.0097 14.9827V14.9894C17.013 15.0093 17.013 15.0293 17.013 15.0525V16.7671L17.0097 16.8037Z" fill="#666666"/>
<path id="Vector_8" d="M2.42572 0.376072C2.42572 0.552186 2.29281 0.744915 2.00039 0.744915C1.9007 0.744915 1.80434 0.744915 1.7113 0.744915C1.48202 0.744915 1.26603 0.748238 1.02678 0.741592C0.960321 0.738269 0.873925 0.744915 0.81079 0.80805C0.750977 0.871186 0.744332 0.950935 0.744332 1.02736C0.750977 1.27326 0.747654 1.5258 0.747654 1.76837C0.747654 1.85144 0.747654 1.93452 0.747654 2.01427C0.747654 2.13721 0.70778 2.24355 0.637998 2.31997C0.57154 2.39308 0.478499 2.42963 0.372166 2.42963C0.265833 2.42963 0.172791 2.38975 0.106333 2.31665C0.0299062 2.23358 -0.00664582 2.11395 0.00332291 1.98104V1.97439V1.97107C0.00332291 1.97107 0 0.618644 0 0.598707C0.00332291 0.263093 0.242572 0.00390625 0.551603 0.00390625H1.96384C2.23632 0.00390625 2.42572 0.199958 2.42572 0.376072Z" fill="#666666"/>
<path id="Vector_9" d="M17.0132 0.252541V2.07017C17.0132 2.19644 16.9268 2.46228 16.6543 2.46228C16.3785 2.46228 16.2755 2.22635 16.2722 2.06353C16.2656 1.70798 16.2656 1.36239 16.2722 1.01016C16.2755 0.947029 16.2689 0.867279 16.2091 0.804144C16.1559 0.750977 16.0861 0.741009 16.0263 0.741009C16.0197 0.741009 16.013 0.741009 16.0064 0.741009C15.7605 0.747654 15.5079 0.744332 15.2654 0.744332C15.1823 0.744332 15.0992 0.744332 15.0162 0.744332C14.8035 0.744332 14.5908 0.62803 14.5908 0.36552C14.5908 0.196052 14.7437 0 14.9397 0H16.764C16.9069 0.0332291 16.9833 0.109656 17.0132 0.252541Z" fill="#666666"/>
<path id="Vector_10" d="M11.025 16.6208C11.0283 16.7172 10.9951 16.8036 10.9287 16.87C10.8489 16.9498 10.7293 16.9963 10.593 16.9963C8.89836 16.9996 7.17377 16.9996 5.50234 16.9996H0.474783C0.1292 16.9963 0.00292969 16.87 0.00292969 16.5245V6.40952C0.00292969 6.25334 0.062742 6.1171 0.169075 6.04067C0.228887 5.99748 0.295346 5.97754 0.36845 5.97754C0.408325 5.97754 0.448199 5.98419 0.488074 5.99748C0.650897 6.05064 0.747261 6.19353 0.747261 6.38958C0.747261 6.54243 0.747261 6.69529 0.747261 6.84482C0.747261 7.29341 0.747261 7.7553 0.743938 8.20389C0.740615 8.29361 0.750584 8.38665 0.817042 8.45311C0.886823 8.52289 0.986511 8.53286 1.06626 8.53286C2.79085 8.52621 4.54535 8.52953 6.24003 8.52953H7.96462C8.24374 8.52953 8.4697 8.75549 8.4697 9.03462V10.7625C8.4697 12.4572 8.4697 14.2084 8.46638 15.9297C8.46638 16.0094 8.47635 16.1091 8.54613 16.1789C8.61591 16.2453 8.70895 16.2553 8.79535 16.252C9.24394 16.2453 9.7025 16.2486 10.1478 16.2486C10.2973 16.2486 10.4502 16.2486 10.5997 16.2486C10.8489 16.252 11.0217 16.3982 11.025 16.6208Z" fill="#666666"/>
<path id="Vector_11" d="M14.5881 2.84471V5.13752C14.5881 5.26712 14.5449 5.38009 14.4652 5.45652C14.3987 5.52298 14.3123 5.55621 14.2159 5.55621C13.9966 5.55289 13.8471 5.38009 13.8471 5.1342V3.815C13.8471 3.77181 13.7973 3.75187 13.7673 3.78177L13.671 3.87814L13.465 4.08416L12.7738 4.77532L10.1753 7.37384C10.0656 7.4835 9.98255 7.53002 9.88619 7.53666C9.71672 7.54663 9.5971 7.4835 9.52399 7.34393C9.45089 7.20437 9.46086 7.06813 9.56387 6.93522C9.58713 6.90531 9.62036 6.87208 9.66356 6.83221L9.66688 6.82888C10.491 6.0048 11.335 5.16078 12.1757 4.32009L13.2423 3.25343C13.2722 3.22353 13.2523 3.17368 13.2091 3.17368H11.8833C11.747 3.17368 11.6307 3.13048 11.551 3.05073C11.4845 2.98428 11.4513 2.89788 11.4513 2.79819C11.4546 2.5822 11.6274 2.436 11.8799 2.43267H14.1595C14.4386 2.42935 14.5848 2.57224 14.5881 2.84471Z" fill="#666666"/>
</g>
</svg>
