<svg width="30" height="30" viewBox="0 0 30 30" fill="none" xmlns="http://www.w3.org/2000/svg">
<g id="Select">
<path id="Vector" d="M5.04605 5.22031V5.21992C5.06324 5.18594 5.08707 5.15586 5.11832 5.12812C5.19879 5.05664 5.30621 5.01758 5.42066 5.01758C5.48628 5.01758 5.55347 5.03125 5.61636 5.05703L6.22417 5.30859C6.86361 5.57382 7.43314 5.80898 7.96634 6.02733C13.1089 8.13122 18.9373 10.516 24.5986 12.8257C25.0322 13.0027 25.0068 13.1913 24.9951 13.2816C24.9646 13.53 24.9009 13.6152 24.5654 13.6687C24.2884 13.7136 24.0099 13.7644 23.7408 13.8136L21.3295 14.2534C19.5373 14.5792 17.6842 14.9155 15.8647 15.2417C15.5069 15.3062 15.2924 15.5229 15.2284 15.887C14.8893 17.7721 14.5401 19.6893 14.203 21.5432L14.0745 22.2487C14.0561 22.3494 14.0385 22.4498 14.0202 22.5502C14.0014 22.6553 13.9823 22.7604 13.9635 22.8658C13.8565 23.4619 13.7452 24.0783 13.6241 24.6889C13.5843 24.8869 13.4346 24.9939 13.2143 24.9818C13.0698 24.9736 12.9479 24.9393 12.8042 24.5865C11.3909 21.1252 9.9796 17.6741 8.65461 14.4362L7.26322 11.0351C7.13314 10.7156 7.00268 10.3964 6.87182 10.0777L6.60776 9.43238C6.11323 8.22028 5.58355 6.92342 5.0609 5.65507C4.97301 5.44218 4.99137 5.32695 5.04605 5.22031ZM13.0846 23.1412L13.4456 21.2006C13.4858 20.9889 13.5253 20.776 13.5643 20.5627L13.8956 18.7421C14.1432 17.3827 14.3909 16.0229 14.6397 14.664C14.6409 14.6593 14.6464 14.6538 14.6522 14.6526C15.7784 14.4464 16.9057 14.2413 18.0326 14.0359L21.2318 13.4534C21.2932 13.4425 21.3553 13.4296 21.4166 13.4171C21.4646 13.407 21.5119 13.3968 21.5584 13.3878L23.1158 13.0937L6.13237 6.1453L13.0846 23.1412Z" fill="#666666"/>
</g>
</svg>
