<svg width="23" height="18" viewBox="0 0 23 18" fill="none" xmlns="http://www.w3.org/2000/svg">
<g id="Group">
<path id="Vector" d="M22.4956 12.2696V12.2784C22.4956 12.4497 22.4649 12.6254 22.4034 12.8011C21.9553 14.0619 20.8219 14.6769 19.7896 15.1558C18.4937 15.7576 17.0923 16.0607 16.0204 16.254C15.8886 16.276 15.7612 16.2496 15.6646 16.1793C15.5724 16.1134 15.5109 16.0124 15.4933 15.8982C15.4537 15.617 15.6119 15.4193 15.9238 15.3622C17.1538 15.1426 18.1554 14.8658 19.0823 14.4924C19.6314 14.2728 20.3343 13.9477 20.9361 13.4206C21.2876 13.113 21.4809 12.7001 21.4809 12.2608C21.4809 11.8259 21.292 11.413 20.9493 11.1055C20.7824 10.9561 20.5979 10.8155 20.3914 10.6838C20.1542 10.53 19.9082 10.2796 20.1059 9.9721C20.1718 9.86667 20.2552 9.80077 20.3475 9.7832C20.3738 9.77881 20.4002 9.77441 20.4309 9.77441C20.5583 9.77441 20.7165 9.83152 20.8878 9.94135C21.3535 10.2401 21.7181 10.5651 22.0124 10.9429C22.1881 11.167 22.3155 11.4262 22.4209 11.7644C22.4649 11.927 22.4956 12.1027 22.4956 12.2696Z" fill="#27282D"/>
<path id="Vector_2" d="M11.6973 16.2057C11.6973 16.3418 11.6314 16.4649 11.5128 16.5571C10.9901 16.9613 10.4278 17.3874 9.72931 17.8969C9.50527 18.0595 9.25048 18.0287 9.09233 17.8135C8.93858 17.607 8.9869 17.3478 9.20655 17.1721C9.25048 17.137 9.29001 17.1062 9.34273 17.0667L9.87427 16.6537L9.31198 16.601C9.1714 16.5879 9.03083 16.5747 8.89465 16.5615C8.60911 16.5351 8.33675 16.5132 8.06878 16.478C6.46535 16.2935 4.36992 15.9597 2.41946 15.024C1.56284 14.6154 0.961003 14.1673 0.521709 13.6226C-0.167982 12.7616 -0.172375 11.7732 0.499745 10.9034C0.816036 10.4992 1.23336 10.1434 1.7737 9.82273C1.84838 9.7788 1.92745 9.75684 2.00652 9.75684C2.15149 9.75684 2.29206 9.82712 2.37553 9.95891C2.50732 10.1654 2.45899 10.4202 2.25692 10.5651C2.19103 10.6135 2.12074 10.6618 2.05484 10.7057C1.87473 10.8287 1.68584 10.9561 1.51451 11.1186C1.50133 11.1318 1.48816 11.145 1.47498 11.1582C1.44862 11.1801 1.42226 11.2065 1.3959 11.2329C0.728177 11.9138 0.728177 12.6035 1.4003 13.28C1.94502 13.8291 2.61714 14.1586 3.20579 14.4046C4.39189 14.9098 5.71855 15.2568 7.37469 15.4896C7.75248 15.5423 8.13467 15.5863 8.50807 15.6258C8.67939 15.6434 8.85072 15.6653 9.02204 15.6829L9.56238 15.7444L9.22412 15.3183C9.08794 15.147 9.01765 15.0371 9.00886 14.9098C8.99129 14.7121 9.06158 14.5759 9.21973 14.4792C9.39105 14.3782 9.55359 14.3826 9.70734 14.4968C9.9797 14.6945 10.274 14.9141 10.5815 15.1426C10.8846 15.371 11.2009 15.6082 11.5128 15.8454C11.6314 15.9465 11.6973 16.0695 11.6973 16.2057Z" fill="#27282D"/>
<path id="Vector_3" d="M11.8338 5.46023C11.4341 5.40312 11.0299 5.45144 10.6038 5.62276L10.2963 5.74137V5.4119C10.2963 5.2889 10.2963 5.17029 10.2963 5.05168C10.2963 4.77493 10.2963 4.51574 10.3007 4.24778C10.3095 3.55808 10.8191 3.0485 11.5131 3.04411C11.7196 3.04411 11.9261 3.04411 12.1369 3.04411C12.383 3.04411 12.6333 3.04411 12.8794 3.04411C13.1693 3.03972 13.3714 2.85521 13.3714 2.59603C13.3714 2.33685 13.1693 2.15234 12.8794 2.15234C12.629 2.15234 12.3917 2.15234 12.1721 2.15234C11.9481 2.15234 11.7416 2.15234 11.5395 2.15234C10.3139 2.16113 9.41772 3.0485 9.40893 4.27413C9.40015 5.4163 9.40015 6.4706 9.40893 7.49416C9.41333 8.12235 9.65494 8.68464 10.0942 9.08001C10.5379 9.47537 11.131 9.65987 11.7635 9.59398C12.7651 9.49294 13.5603 8.60557 13.5778 7.57323C13.591 6.5365 12.8266 5.60959 11.8338 5.46023ZM12.3215 8.37714C12.0974 8.59678 11.8031 8.71979 11.4956 8.71979H11.4824C11.1617 8.71539 10.863 8.588 10.6433 8.35956C10.4193 8.12674 10.2963 7.82363 10.3007 7.49416C10.3095 6.85279 10.841 6.32563 11.4868 6.32563H11.4956C11.8119 6.32563 12.1106 6.44864 12.3346 6.67268C12.5631 6.90111 12.6861 7.20862 12.6861 7.53369C12.6773 7.85438 12.5499 8.1531 12.3215 8.37714Z" fill="#27282D"/>
<path id="Vector_4" d="M18.9412 6.10159V5.87755C18.9412 5.67109 18.9412 5.46462 18.9456 5.26254C18.95 4.81446 18.95 4.34881 18.9412 3.89195C18.9193 2.95186 18.1329 2.17431 17.1841 2.15234C17.1709 2.15234 17.1533 2.15234 17.1401 2.15234C16.6437 2.15234 16.1825 2.33245 15.8442 2.66192C15.4884 3.00897 15.2863 3.49658 15.2863 4.03691C15.2775 5.20983 15.2819 6.40471 15.2863 7.56444V7.73137C15.2863 7.89831 15.3039 8.05206 15.339 8.18824C15.5587 9.12394 16.3933 9.69941 17.3686 9.59398C17.8079 9.54566 18.1988 9.32601 18.48 8.99654C18.7655 8.67146 18.9369 8.24096 18.9412 7.7797C18.9456 7.3448 18.9456 6.89672 18.9456 6.4706C18.9412 6.3476 18.9412 6.2246 18.9412 6.10159ZM18.0495 6.4091C18.0495 6.84839 18.0495 7.28329 18.0495 7.72259C18.0495 8.28928 17.6629 8.70661 17.1357 8.71539C17.127 8.71539 17.1226 8.71539 17.1138 8.71539C16.8722 8.71539 16.6481 8.62314 16.4768 8.45621C16.2879 8.27171 16.1825 8.00813 16.1781 7.72259C16.1737 6.49696 16.1737 5.25815 16.1781 4.03252C16.1781 3.74259 16.2791 3.4834 16.4636 3.30329C16.635 3.13636 16.8634 3.04411 17.1138 3.04411H17.1226C17.6541 3.0485 18.0407 3.46583 18.0451 4.03252C18.0451 4.46742 18.0451 4.90672 18.0451 5.33722C18.0451 5.52173 18.0451 5.70623 18.0451 5.89073L18.0495 6.4091Z" fill="#27282D"/>
<path id="Vector_5" d="M7.50246 8.37724C7.14224 9.17676 6.4833 9.58969 5.5476 9.61605C5.19178 9.62484 4.84473 9.62045 4.55041 9.61605C4.2429 9.61166 4.03643 9.43155 4.03643 9.16358C4.03643 8.89561 4.2429 8.72429 4.5548 8.71989C4.58994 8.71989 4.62509 8.71989 4.66462 8.71989C4.75248 8.71989 4.84473 8.71989 4.93259 8.71989C5.15663 8.71989 5.38507 8.72429 5.6135 8.7155C6.2373 8.68914 6.70295 8.2806 6.7952 7.67437C6.87427 7.13844 6.52723 6.57614 6.00008 6.39603C5.78482 6.32135 5.56957 6.32135 5.39385 6.32574C5.0512 6.33013 4.77445 6.33013 4.52405 6.32574C4.23851 6.32135 4.04522 6.15002 4.03643 5.89084C4.03204 5.77662 4.07597 5.6668 4.15504 5.58334C4.2429 5.49108 4.37469 5.43398 4.51526 5.43398C4.71734 5.42958 4.92381 5.42958 5.12149 5.42958C5.27524 5.42958 5.43339 5.42958 5.58714 5.42958C6.27683 5.4208 6.79959 4.91122 6.80398 4.24349C6.80838 3.58016 6.27683 3.0574 5.59593 3.04861C5.42021 3.04861 5.2401 3.04861 5.06877 3.04861C4.89745 3.04861 4.72173 3.04861 4.54601 3.04861C4.38787 3.04861 4.25169 2.9915 4.15944 2.89925C4.08036 2.81578 4.04083 2.71035 4.04083 2.59614C4.04522 2.33695 4.24729 2.16124 4.54162 2.15684C4.6778 2.15684 4.81838 2.15684 4.95456 2.15684H5.14345H5.15224C5.58714 2.14367 6.04401 2.14806 6.45694 2.33256C7.06317 2.60053 7.49807 3.12768 7.64303 3.77784C7.79239 4.42799 7.62546 5.09572 7.19056 5.6053L7.17738 5.62287C7.11588 5.69316 6.94895 5.88645 7.1642 6.14563C7.74847 6.83532 7.86268 7.58652 7.50246 8.37724Z" fill="#27282D"/>
<path id="Vector_6" d="M21.1731 0.918124V0.904945C21.116 0.430508 20.6855 0.0395365 20.1671 0.00439304C20.1495 0.00439304 20.1319 0 20.1144 0C20.0485 0 19.9826 0.00439307 19.9211 0.0131789C19.3764 0.0966448 18.9766 0.55351 18.9766 1.10702C18.9722 1.64735 19.372 2.12179 19.9035 2.20525C19.9474 2.21404 19.9958 2.21843 20.0397 2.21843C20.0529 2.21843 20.066 2.21843 20.0792 2.21843H20.0836C20.0924 2.21843 20.1056 2.21843 20.1144 2.21843H20.1363C20.1451 2.21843 20.1539 2.21843 20.1583 2.21843H20.1671H20.1715L20.1978 2.21404C20.2022 2.21404 20.211 2.21404 20.2154 2.21404C20.2286 2.21404 20.233 2.20965 20.2418 2.20965H20.2462C20.2506 2.20965 20.2549 2.20965 20.2549 2.20965H20.2637C20.2857 2.20525 20.3033 2.20086 20.3252 2.19647C20.3296 2.19647 20.3384 2.19208 20.3472 2.19208H20.3516C20.3692 2.18768 20.3823 2.18329 20.3999 2.1789H20.4043C20.4131 2.1745 20.4175 2.1745 20.4263 2.17011H20.4307C20.4438 2.16572 20.4614 2.16133 20.4746 2.15254C20.7953 2.02954 21.0325 1.77475 21.1379 1.44967C21.1423 1.44088 21.1467 1.40574 21.1555 1.35302L21.1599 1.32667C21.1775 1.23881 21.1906 1.09384 21.1731 0.918124ZM20.8656 1.11581C20.8612 1.54192 20.5097 1.89336 20.0836 1.89336H20.0792C19.6443 1.89336 19.3017 1.54631 19.3017 1.11141C19.3017 0.900552 19.3851 0.698477 19.5345 0.549117C19.6839 0.399757 19.8815 0.320685 20.0924 0.325077C20.5185 0.333863 20.8656 0.685298 20.8656 1.11141V1.11581Z" fill="#27282D"/>
</g>
</svg>
