<svg width="20" height="20" viewBox="0 0 20 20" fill="none" xmlns="http://www.w3.org/2000/svg">
<g id="Group">
<path id="Vector" d="M19.5278 12.2232C19.3223 12.0756 19.1165 11.9287 18.9 11.7736C19.1305 11.6021 19.3544 11.4376 19.5763 11.27C19.8474 11.0649 19.8439 10.8453 19.5661 10.6422C19.3505 10.4839 19.1321 10.3292 18.9149 10.1734C18.9332 10.1472 18.9387 10.1339 18.9485 10.1265C19.1411 9.98271 19.3344 9.84051 19.5271 9.69674C19.8665 9.44358 19.865 9.24551 19.5216 8.99978C16.4755 6.81981 13.4294 4.63984 10.3833 2.45988C10.138 2.28446 10.0497 2.28251 9.80667 2.44894C6.61759 4.63789 3.42812 6.82684 0.239429 9.01618C-0.0735013 9.23105 -0.0789708 9.4514 0.220677 9.67525C0.441018 9.84012 0.66253 10.0038 0.892638 10.1745C0.652373 10.3398 0.426563 10.4922 0.203878 10.6492C-0.0637344 10.8387 -0.0684225 11.0618 0.192939 11.2622C0.418749 11.436 0.649638 11.6032 0.892247 11.7837C0.654717 11.9478 0.424219 12.1033 0.197236 12.2643C-0.0609997 12.4479 -0.0645158 12.667 0.183954 12.8659C0.214426 12.8905 0.246852 12.9124 0.278106 12.9354C3.42304 15.2725 6.56797 17.6091 9.7133 19.9457C9.81057 20.018 9.9434 20.0184 10.0415 19.9469C10.4536 19.6453 10.8677 19.3456 11.2779 19.0409C14.031 16.9973 16.7837 14.9529 19.5364 12.9085C19.8638 12.6651 19.8607 12.4627 19.5278 12.2232ZM16.0797 7.31519C17.0154 7.99262 17.9561 8.6634 18.9184 9.35255C16.6697 11.0227 14.433 12.6838 12.1699 14.3649C11.9562 13.1694 11.7475 12.0005 11.5366 10.8316C11.5182 10.7305 11.5436 10.668 11.6292 10.6027C13.0489 9.51898 14.4651 8.43134 15.8824 7.34449C15.9418 7.29917 15.9856 7.24721 16.0797 7.31519ZM11.4229 14.9263C10.9416 15.2689 10.4693 15.6241 9.9981 15.9804C9.91762 16.0413 9.86839 16.0483 9.78401 15.985C8.91632 15.335 8.04472 14.69 7.16024 14.0328C8.41821 13.0683 9.66915 12.1092 10.9435 11.1321C11.0252 11.5837 11.1037 12.0138 11.1807 12.4444C11.3073 13.1538 11.428 13.8648 11.5631 14.5731C11.5944 14.7361 11.5592 14.829 11.4229 14.9263ZM12.9684 5.08795C13.7439 5.65482 14.5264 6.21192 15.3105 6.76746C15.4203 6.8452 15.4441 6.88193 15.3199 6.97686C12.4625 9.16269 9.60821 11.3524 6.75354 13.5422C6.68088 13.5976 6.62892 13.6437 6.52422 13.5648C5.71591 12.9546 4.90057 12.3541 4.08719 11.7501C4.06726 11.7353 4.04773 11.7193 4.02077 11.6982C5.0881 10.8793 6.14409 10.0691 7.20048 9.25918C9.0093 7.87268 10.8193 6.48734 12.625 5.09654C12.752 4.99887 12.8332 4.98911 12.9684 5.08795ZM6.22223 5.68255C7.4634 4.83127 8.70575 3.98156 9.9438 3.12481C10.0551 3.04784 10.1223 3.05175 10.2282 3.1291C10.8943 3.61354 11.5655 4.09055 12.2515 4.58202C11.7975 4.93011 11.3569 5.26844 10.9162 5.60637C9.96294 6.33733 9.0093 7.0675 8.05801 7.80079C7.9744 7.86526 7.90486 7.88635 7.79547 7.85549C6.69885 7.54646 5.59949 7.24525 4.5013 6.94131C4.48997 6.93818 4.48138 6.92685 4.447 6.90068C5.04668 6.4893 5.63426 6.08612 6.22223 5.68255ZM0.871932 9.35451C1.43763 8.96579 1.99239 8.58488 2.54715 8.20358C2.9054 7.95785 3.26403 7.7125 3.62111 7.4652C3.68753 7.4191 3.7473 7.39254 3.83442 7.41676C4.97832 7.73672 6.12299 8.05239 7.26884 8.36923C7.25009 8.43681 7.19774 8.45635 7.15789 8.48682C5.97923 9.39162 4.79861 10.2937 3.62307 11.2028C3.51446 11.2868 3.45156 11.2848 3.34451 11.204C2.57215 10.6222 1.79432 10.0487 1.01844 9.4721C0.972336 9.43772 0.92858 9.40022 0.871932 9.35451ZM0.87623 10.9707C1.06805 10.8367 1.2337 10.6367 1.42044 10.6144C1.60171 10.5926 1.76033 10.8195 1.9248 10.9414C4.47474 12.8323 7.02272 14.7263 9.57109 16.6191C9.84886 16.8254 9.92973 16.8246 10.2071 16.6187C12.8754 14.6364 15.5441 12.6553 18.2105 10.6703C18.3206 10.5883 18.3988 10.5691 18.5097 10.6652C18.6312 10.7711 18.7703 10.8567 18.9176 10.9621C18.6015 11.1969 18.2949 11.4247 17.9886 11.6525C15.341 13.6191 12.6934 15.5858 10.0462 17.5532C9.95786 17.6185 9.89457 17.6802 9.76682 17.5849C6.83598 15.4006 3.90084 13.2226 0.966475 11.0434C0.941082 11.0246 0.91686 11.0039 0.87623 10.9707ZM16.9314 14.0489C14.6381 15.7522 12.3441 17.4544 10.054 19.1612C9.92934 19.2546 9.85433 19.2601 9.72463 19.1632C6.82543 17.0024 3.92232 14.8462 1.01648 12.6944C0.875839 12.5905 0.894591 12.5506 1.0243 12.4639C1.43763 12.1889 1.43411 12.1849 1.82674 12.4768C4.40637 14.3934 6.98599 16.3097 9.56601 18.2256C9.85511 18.4404 9.92231 18.4393 10.2165 18.2209C12.8746 16.2468 15.5332 14.2739 18.1882 12.2959C18.3175 12.1998 18.4078 12.181 18.5324 12.2928C18.643 12.3916 18.773 12.4682 18.918 12.5713C18.2421 13.0741 17.587 13.5621 16.9314 14.0489Z" fill="#27282D"/>
<path id="Vector_2" d="M9.89667 0.000390675C10.0713 0.0890739 10.1404 0.228154 10.135 0.426226C10.1248 0.796586 10.1342 1.16695 10.1315 1.5377C10.1299 1.76819 10.0123 1.90727 9.82361 1.91274C9.62788 1.9186 9.50247 1.77679 9.50052 1.53535C9.49739 1.17788 9.50755 0.820027 9.49661 0.46295C9.49075 0.268394 9.53295 0.10978 9.70211 0C9.76696 0.000390675 9.83181 0.000390675 9.89667 0.000390675Z" fill="#27282D"/>
<path id="Vector_3" d="M8.54363 2.0451C8.5409 2.19199 8.48191 2.28615 8.36705 2.34357C8.23305 2.41077 8.1092 2.37834 8.00802 2.28263C7.82362 2.10878 7.64742 1.92633 7.4681 1.74701C7.31652 1.59543 7.16103 1.44698 7.0157 1.28914C6.87154 1.13248 6.8735 0.947693 7.00711 0.821114C7.13291 0.701959 7.31808 0.700396 7.46146 0.839867C7.79236 1.16139 8.11506 1.49151 8.43971 1.81968C8.50535 1.88609 8.5491 1.96501 8.54363 2.0451Z" fill="#27282D"/>
<path id="Vector_4" d="M12.9472 0.73745C13.0913 0.739012 13.1859 0.803865 13.2386 0.917551C13.2992 1.04765 13.2738 1.17422 13.1746 1.27658C12.948 1.50942 12.7175 1.73875 12.4881 1.96886C12.3827 2.07473 12.2811 2.18529 12.169 2.28335C12.0229 2.4111 11.8556 2.40837 11.7295 2.28921C11.6037 2.17005 11.5927 1.97667 11.7287 1.83525C12.0576 1.49341 12.3952 1.16055 12.7323 0.826914C12.7925 0.76675 12.8698 0.729246 12.9472 0.73745Z" fill="#27282D"/>
</g>
</svg>
