<svg width="20" height="20" viewBox="0 0 20 20" fill="none" xmlns="http://www.w3.org/2000/svg">
<g id="Group 9">
<path id="Vector" d="M7.84495 6.16036C7.79583 6.11114 7.73749 6.07209 7.67326 6.04544C7.60903 6.0188 7.54017 6.00508 7.47064 6.00508C7.4011 6.00508 7.33225 6.0188 7.26802 6.04544C7.20379 6.07209 7.14544 6.11114 7.09632 6.16036L4.5 8.75137L1.90368 6.15505C1.85452 6.10589 1.79617 6.0669 1.73194 6.0403C1.66772 6.01369 1.59888 6 1.52936 6C1.45985 6 1.39101 6.01369 1.32678 6.0403C1.26256 6.0669 1.2042 6.10589 1.15505 6.15505C1.10589 6.2042 1.0669 6.26256 1.0403 6.32678C1.01369 6.39101 1 6.45985 1 6.52936C1 6.59888 1.01369 6.66772 1.0403 6.73194C1.0669 6.79617 1.10589 6.85452 1.15505 6.90368L3.75137 9.5L1.15505 12.0963C1.10589 12.1455 1.0669 12.2038 1.0403 12.2681C1.01369 12.3323 1 12.4011 1 12.4706C1 12.5402 1.01369 12.609 1.0403 12.6732C1.0669 12.7374 1.10589 12.7958 1.15505 12.845C1.2042 12.8941 1.26256 12.9331 1.32678 12.9597C1.39101 12.9863 1.45985 13 1.52936 13C1.59888 13 1.66772 12.9863 1.73194 12.9597C1.79617 12.9331 1.85452 12.8941 1.90368 12.845L4.5 10.2486L7.09632 12.845C7.14548 12.8941 7.20383 12.9331 7.26806 12.9597C7.33228 12.9863 7.40112 13 7.47064 13C7.54015 13 7.60899 12.9863 7.67322 12.9597C7.73744 12.9331 7.7958 12.8941 7.84495 12.845C7.89411 12.7958 7.9331 12.7374 7.9597 12.6732C7.98631 12.609 8 12.5402 8 12.4706C8 12.4011 7.98631 12.3323 7.9597 12.2681C7.9331 12.2038 7.89411 12.1455 7.84495 12.0963L5.24863 9.5L7.84495 6.90368C8.04671 6.70192 8.04671 6.36212 7.84495 6.16036Z" fill="#666666"/>
<path id="Subtract" fill-rule="evenodd" clip-rule="evenodd" d="M0.0460531 0.202342V0.202732C-0.00863388 0.309372 -0.0269941 0.424605 0.0608957 0.637494C0.583547 1.90584 1.11323 3.2027 1.60776 4.4148L1.67123 4.56992L3.02494 5.75442L1.13237 1.12772L18.1158 8.07609L16.5584 8.37023C16.5185 8.37795 16.478 8.38653 16.4369 8.39524C16.4301 8.39666 16.4234 8.3981 16.4166 8.39953C16.4096 8.40096 16.4026 8.40239 16.3956 8.40382C16.3411 8.41495 16.2862 8.42617 16.2318 8.43586L13.0326 9.01827C12.7506 9.06969 12.4686 9.12108 12.1866 9.17247C11.3416 9.32645 10.4966 9.48043 9.65221 9.63506C9.64635 9.63624 9.64088 9.6417 9.63971 9.64639C9.40377 10.935 9.16889 12.2243 8.93406 13.5132L8.89558 13.7245L8.56433 15.5452C8.52527 15.7584 8.48582 15.9713 8.44558 16.183L8.08465 18.1237L7.35339 16.336L5.88222 14.8648C6.51716 16.418 7.16047 17.9924 7.80418 19.569C7.94793 19.9217 8.0698 19.9561 8.21433 19.9643C8.43464 19.9764 8.58425 19.8693 8.62409 19.6713C8.74519 19.0608 8.85651 18.4444 8.96354 17.8483C8.97369 17.7912 8.98396 17.7342 8.99421 17.6773C9.0029 17.6291 9.01158 17.5809 9.02019 17.5326C9.02979 17.4801 9.03919 17.4276 9.04859 17.375C9.05716 17.3271 9.06573 17.2791 9.07448 17.2311L9.203 16.5256C9.24404 16.2999 9.28526 16.0732 9.32663 15.8458C9.62499 14.2054 9.9306 12.525 10.2284 10.8694C10.2924 10.5054 10.5069 10.2886 10.8647 10.2241C12.6842 9.89795 14.5373 9.56163 16.3295 9.23585L18.7408 8.79601C19.0099 8.74679 19.2884 8.69601 19.5654 8.65109C19.9009 8.59757 19.9646 8.51242 19.9951 8.26398L19.9951 8.26346C20.0069 8.17302 20.0314 7.98474 19.5986 7.80813C14.1284 5.57635 8.50216 3.27455 3.48942 1.22376L2.96634 1.00976C2.43314 0.791399 1.86361 0.556245 1.22417 0.291013L0.616359 0.0394528C0.553469 0.0136717 0.486283 0 0.420659 0C0.306207 0 0.198785 0.0390621 0.118317 0.110546C0.0870674 0.13828 0.0632404 0.168358 0.0460531 0.202342Z" fill="#666666"/>
</g>
</svg>
